<svg width="40" height="40" viewBox="0 0 40 40" fill="none" xmlns="http://www.w3.org/2000/svg">
<path fill-rule="evenodd" clip-rule="evenodd" d="M40 20C40 8.95432 31.0457 0 20 0C8.95432 0 0 8.95432 0 20C0 31.0457 8.95432 40 20 40C31.0457 40 40 31.0457 40 20ZM21.775 10H13V29.224H22.801C24.601 29.224 26.059 28.702 27.175 27.658C28.309 26.614 28.876 25.246 28.876 23.554C28.876 22.33 28.552 21.313 27.904 20.503C27.256 19.693 26.374 19.153 25.258 18.883C26.086 18.559 26.752 18.037 27.256 17.317C27.76 16.579 28.012 15.751 28.012 14.833C28.012 13.357 27.472 12.187 26.392 11.323C25.33 10.441 23.791 10 21.775 10ZM16.294 18.019V12.727H20.992C22.162 12.727 23.062 12.898 23.692 13.24C24.34 13.582 24.664 14.293 24.664 15.373C24.664 16.327 24.358 17.011 23.746 17.425C23.134 17.821 22.18 18.019 20.884 18.019H16.294ZM16.294 26.47V20.449H21.289C21.901 20.449 22.432 20.485 22.882 20.557C23.332 20.629 23.764 20.764 24.178 20.962C24.61 21.16 24.934 21.475 25.15 21.907C25.384 22.321 25.501 22.843 25.501 23.473C25.501 24.607 25.132 25.39 24.394 25.822C23.656 26.254 22.639 26.47 21.343 26.47H16.294Z" fill="white"/>
</svg>
