<svg width="40" height="40" viewBox="0 0 40 40" fill="none" xmlns="http://www.w3.org/2000/svg">
<path fill-rule="evenodd" clip-rule="evenodd" d="M40 20C40 8.95432 31.0457 0 20 0C8.95432 0 0 8.95432 0 20C0 31.0457 8.95432 40 20 40C31.0457 40 40 31.0457 40 20ZM25.823 28.009C27.335 26.587 28.181 24.697 28.361 22.339H24.986C24.572 25.615 22.934 27.253 20.072 27.253C19.082 27.253 18.209 27.046 17.453 26.632C16.715 26.218 16.13 25.669 15.698 24.985C15.266 24.283 14.942 23.518 14.726 22.69C14.51 21.862 14.402 20.98 14.402 20.044C14.402 18.802 14.582 17.659 14.942 16.615C15.32 15.553 15.95 14.662 16.832 13.942C17.732 13.222 18.821 12.862 20.099 12.862C21.341 12.862 22.385 13.195 23.231 13.861C24.077 14.509 24.617 15.409 24.851 16.561H28.199C27.893 14.437 26.984 12.817 25.472 11.701C23.96 10.567 22.187 10 20.153 10C18.263 10 16.616 10.468 15.212 11.404C13.808 12.322 12.755 13.537 12.053 15.049C11.351 16.543 11 18.208 11 20.044C11 23.086 11.819 25.525 13.457 27.361C15.095 29.197 17.273 30.115 19.991 30.115C22.385 30.115 24.329 29.413 25.823 28.009Z" fill="white"/>
</svg>
