<svg width="512" height="512" viewBox="0 0 512 512" fill="none" xmlns="http://www.w3.org/2000/svg">
<path d="M83.1223 167.761C79.7768 163.415 77.057 158.622 75.0423 153.521C74.1053 151.372 72.5616 149.544 70.6006 148.259C68.6396 146.975 66.3464 146.291 64.0023 146.291C61.6581 146.291 59.365 146.975 57.4039 148.259C55.4429 149.544 53.8992 151.372 52.9623 153.521C49.272 163.679 42.3059 172.319 33.1623 178.081C31.5264 179.191 30.187 180.684 29.2613 182.431C28.3356 184.177 27.8516 186.124 27.8516 188.101C27.8516 190.078 28.3356 192.024 29.2613 193.771C30.187 195.518 31.5264 197.011 33.1623 198.121C42.304 203.866 49.2708 212.494 52.9623 222.641C53.8992 224.79 55.4429 226.618 57.4039 227.902C59.365 229.187 61.6581 229.871 64.0023 229.871C66.3464 229.871 68.6396 229.187 70.6006 227.902C72.5616 226.618 74.1053 224.79 75.0423 222.641C78.7337 212.494 85.7006 203.866 94.8423 198.121C96.4782 197.011 97.8175 195.518 98.7432 193.771C99.669 192.024 100.153 190.078 100.153 188.101C100.153 186.124 99.669 184.177 98.7432 182.431C97.8175 180.684 96.4782 179.191 94.8423 178.081C90.433 175.258 86.4808 171.777 83.1223 167.761Z" fill="#F4811F"/>
<path d="M225.081 11.0005C224.034 8.38808 222.228 6.14913 219.897 4.57213C217.566 2.99514 214.816 2.15234 212.001 2.15234C209.187 2.15234 206.437 2.99514 204.105 4.57213C201.774 6.14913 199.969 8.38808 198.921 11.0005C194.181 25.4202 184.906 37.9215 172.481 46.6405C170.704 47.9536 169.259 49.6655 168.264 51.6385C167.269 53.6115 166.75 55.7906 166.75 58.0005C166.75 60.2104 167.269 62.3894 168.264 64.3624C169.259 66.3354 170.704 68.0473 172.481 69.3605C184.906 78.0794 194.181 90.5808 198.921 105C199.969 107.613 201.774 109.852 204.105 111.429C206.437 113.006 209.187 113.849 212.001 113.849C214.816 113.849 217.566 113.006 219.897 111.429C222.228 109.852 224.034 107.613 225.081 105C229.822 90.5808 239.096 78.0794 251.521 69.3605C253.299 68.0473 254.743 66.3354 255.739 64.3624C256.734 62.3894 257.253 60.2104 257.253 58.0005C257.253 55.7906 256.734 53.6115 255.739 51.6385C254.743 49.6655 253.299 47.9536 251.521 46.6405C239.096 37.9215 229.822 25.4202 225.081 11.0005Z" fill="#F4811F"/>
<path d="M460.957 106.321C459.898 103.754 458.101 101.56 455.794 100.016C453.487 98.4726 450.773 97.6484 447.997 97.6484C445.221 97.6484 442.507 98.4726 440.2 100.016C437.893 101.56 436.096 103.754 435.037 106.321C430.783 118.535 422.863 129.138 412.357 136.681C410.597 137.997 409.168 139.705 408.184 141.67C407.2 143.636 406.688 145.803 406.688 148.001C406.688 150.198 407.2 152.366 408.184 154.331C409.168 156.296 410.597 158.004 412.357 159.321C422.863 166.864 430.783 177.467 435.037 189.681C436.096 192.247 437.893 194.441 440.2 195.985C442.507 197.529 445.221 198.353 447.997 198.353C450.773 198.353 453.487 197.529 455.794 195.985C458.101 194.441 459.898 192.247 460.957 189.681C465.21 177.467 473.131 166.864 483.637 159.321C485.397 158.004 486.826 156.296 487.81 154.331C488.794 152.366 489.306 150.198 489.306 148.001C489.306 145.803 488.794 143.636 487.81 141.67C486.826 139.705 485.397 137.997 483.637 136.681C473.131 129.138 465.21 118.535 460.957 106.321Z" fill="#F4811F"/>
<path d="M12.4384 387.321L242.398 504.161C246.615 506.291 251.274 507.401 255.998 507.401C260.723 507.401 265.381 506.291 269.598 504.161L499.558 387.321C501.717 386.219 503.631 384.693 505.187 382.835C506.743 380.977 507.908 378.825 508.614 376.506C509.319 374.188 509.551 371.751 509.294 369.341C509.037 366.932 508.297 364.598 507.118 362.481L461.318 280.721C458.007 274.787 452.773 270.16 446.478 267.601L416.318 255.281L373.478 173.241C370.136 166.774 364.545 161.752 357.758 159.121L302.878 137.801C295.88 135.081 288.117 135.081 281.118 137.801L153.638 187.361C147.319 189.84 142.02 194.378 138.598 200.241L109.998 249.441L65.5184 267.601C59.2239 270.16 53.9894 274.787 50.6784 280.721L4.87841 362.481C3.6999 364.598 2.96012 366.932 2.70321 369.341C2.44631 371.751 2.67757 374.188 3.38317 376.506C4.08877 378.825 5.25425 380.977 6.81005 382.835C8.36584 384.693 10.2801 386.219 12.4384 387.321ZM249.998 494.361C249.258 494.105 248.536 493.798 247.838 493.441L126.158 431.641C126.158 431.641 178.838 332.081 178.838 331.321L249.998 360.361V494.361ZM436.126 276.321C441.054 277.681 445.53 280.333 449.09 284.001L261.998 360.353V356.321C261.998 355.128 261.643 353.963 260.977 352.973C260.312 351.984 259.367 351.215 258.262 350.765L255.998 349.841L436.126 276.321ZM347.442 168.001C351.97 169.713 357.842 171.601 360.77 175.693L225.858 228.161L225.994 224.209C226.038 222.965 225.693 221.739 225.009 220.7C224.324 219.661 223.334 218.86 222.174 218.409L219.998 217.565L347.442 168.001ZM148.958 206.281C149.529 205.318 150.185 204.407 150.918 203.561L213.838 228.041L210.318 331.201L102.038 287.001L148.958 206.281ZM15.3184 368.361L61.1184 286.561C61.6353 285.652 62.238 284.795 62.9184 284.001L117.798 306.401L114.318 425.641L17.8384 376.641C17.1235 376.269 16.4901 375.758 15.9751 375.138C15.4602 374.518 15.0741 373.801 14.8394 373.03C14.6047 372.259 14.5262 371.449 14.6085 370.647C14.6907 369.845 14.9321 369.068 15.3184 368.361Z" fill="#F4811F"/>
</svg>
