<svg width="551" height="420" viewBox="0 0 551 420" fill="none" xmlns="http://www.w3.org/2000/svg">
<path d="M239.653 199.916C238.704 200.154 237.307 200.417 235.462 200.707C233.616 200.971 232.127 201.103 230.993 201.103C229.438 201.103 228.093 200.945 226.96 200.628C225.826 200.285 224.943 199.864 224.311 199.363C223.678 198.862 223.164 198.229 222.768 197.465C222.399 196.7 222.162 195.989 222.057 195.33C221.951 194.644 221.898 193.866 221.898 192.997V185.207H224.587V192.838C224.587 193.392 224.614 193.893 224.666 194.341C224.719 194.789 224.864 195.316 225.101 195.923C225.365 196.503 225.695 196.99 226.09 197.386C226.512 197.755 227.118 198.084 227.909 198.374C228.7 198.638 229.636 198.77 230.716 198.77C233.616 198.77 236.595 198.387 239.653 197.623V185.207H242.342V213.361H239.653V199.916ZM267.398 185.207V187.5H257.512V213.361H254.823V187.5H244.938V185.207H267.398ZM281.083 184.534C285.011 184.534 288.201 185.905 290.652 188.647C293.13 191.388 294.369 194.96 294.369 199.363C294.369 203.739 293.143 207.284 290.692 210C288.24 212.689 285.024 214.033 281.043 214.033C277.089 214.033 273.899 212.675 271.474 209.96C269.049 207.245 267.836 203.686 267.836 199.284C267.836 194.881 269.049 191.323 271.474 188.607C273.926 185.892 277.129 184.534 281.083 184.534ZM281.043 186.867C277.906 186.867 275.362 188.001 273.412 190.268C271.487 192.535 270.525 195.514 270.525 199.205C270.525 202.974 271.487 206.006 273.412 208.299C275.336 210.567 277.893 211.7 281.083 211.7C284.273 211.7 286.83 210.567 288.754 208.299C290.705 206.032 291.68 203.04 291.68 199.323C291.68 195.606 290.705 192.601 288.754 190.308C286.803 188.014 284.233 186.867 281.043 186.867ZM309.614 185.207H321.674C324.205 185.207 326.301 185.787 327.962 186.947C329.649 188.106 330.492 189.873 330.492 192.245C330.492 193.748 330.018 195.079 329.069 196.239C328.146 197.399 327 198.137 325.629 198.453C327.369 198.796 328.792 199.521 329.899 200.628C331.033 201.735 331.6 203.291 331.6 205.294C331.6 207.904 330.69 209.907 328.871 211.305C327.079 212.675 324.812 213.361 322.07 213.361H309.614V185.207ZM312.224 187.5V197.663H321.16C323.032 197.663 324.614 197.267 325.906 196.476C327.197 195.685 327.843 194.394 327.843 192.601C327.843 191.547 327.632 190.664 327.21 189.952C326.815 189.24 326.235 188.713 325.471 188.37C324.706 188.027 323.928 187.803 323.138 187.698C322.373 187.566 321.477 187.5 320.449 187.5H312.224ZM312.224 199.837V211.067H320.646C321.78 211.067 322.768 211.001 323.612 210.87C324.482 210.738 325.339 210.487 326.182 210.118C327.052 209.723 327.724 209.13 328.199 208.339C328.673 207.522 328.911 206.52 328.911 205.334C328.911 204.2 328.66 203.251 328.159 202.487C327.685 201.696 327 201.129 326.103 200.786C325.207 200.417 324.324 200.167 323.454 200.035C322.584 199.903 321.595 199.837 320.488 199.837H312.224ZM354.653 199.284C356.155 200.734 356.906 202.711 356.906 205.215C356.906 207.719 356.155 209.71 354.653 211.186C353.15 212.636 351.107 213.361 348.523 213.361H335.989V185.207H338.677V197.069H348.523C351.107 197.069 353.15 197.807 354.653 199.284ZM352.557 209.525C353.664 208.471 354.218 207.034 354.218 205.215C354.218 203.396 353.664 201.973 352.557 200.945C351.45 199.89 349.907 199.363 347.93 199.363H338.677V211.067H347.93C349.907 211.067 351.45 210.553 352.557 209.525ZM360.861 185.207H363.55V213.361H360.861V185.207ZM403.058 185.207V213.361H398.115V200.707H385.224V213.361H380.282V185.207H385.224V196.397H398.115V185.207H403.058ZM429.143 185.207V189.359H413.761V196.832H428.036V200.826H413.761V209.13H429.381V213.361H408.858V185.207H429.143ZM243.765 250.215C243.765 251.164 243.568 252.126 243.172 253.102C242.777 254.051 242.171 254.987 241.353 255.909C240.563 256.806 239.442 257.544 237.992 258.124C236.542 258.704 234.882 258.994 233.01 258.994C229.477 258.994 226.617 258.15 224.429 256.463C222.241 254.776 221.147 252.298 221.147 249.029H226.011C226.011 251.085 226.683 252.614 228.028 253.616C229.372 254.591 231.125 255.079 233.287 255.079C235.079 255.079 236.45 254.657 237.399 253.813C238.348 252.97 238.823 251.744 238.823 250.136C238.823 248.66 238.348 247.539 237.399 246.775C236.476 246.01 235.198 245.628 233.564 245.628H230.123V241.793H233.564C234.855 241.793 235.923 241.384 236.766 240.567C237.636 239.75 238.071 238.695 238.071 237.403C238.071 236.164 237.636 235.202 236.766 234.517C235.897 233.805 234.671 233.449 233.089 233.449C229.293 233.449 227.25 235.097 226.96 238.392H222.254C222.36 235.387 223.375 233.159 225.299 231.709C227.224 230.259 229.715 229.534 232.773 229.534C235.752 229.534 238.19 230.18 240.088 231.472C241.986 232.737 242.935 234.635 242.935 237.166C242.935 238.59 242.474 239.881 241.551 241.041C240.628 242.201 239.587 242.926 238.427 243.216V243.335C240.009 243.651 241.287 244.442 242.263 245.707C243.265 246.946 243.765 248.449 243.765 250.215ZM271.186 230.207V258.361H266.243V245.707H253.352V258.361H248.409V230.207H253.352V241.397H266.243V230.207H271.186ZM289.877 230.167L300.751 258.361H295.452L292.763 250.887H281.612L278.844 258.361H273.743L284.617 230.167H289.877ZM291.458 247.17L287.267 235.308L282.878 247.17H291.458ZM323.645 230.207V234.359H308.263V241.832H322.538V245.826H308.263V254.13H323.883V258.361H303.36V230.207H323.645ZM348.513 230.207V234.477H339.537V258.361H334.594V234.477H325.618V230.207H348.513ZM371.992 230.207V234.359H356.61V241.832H370.885V245.826H356.61V254.13H372.229V258.361H351.707V230.207H371.992ZM399.324 229.534C403.252 229.534 406.442 230.905 408.893 233.647C411.371 236.388 412.61 239.96 412.61 244.363C412.61 248.739 411.384 252.284 408.933 255C406.481 257.689 403.265 259.033 399.284 259.033C395.33 259.033 392.14 257.675 389.715 254.96C387.29 252.245 386.077 248.686 386.077 244.284C386.077 239.881 387.29 236.323 389.715 233.607C392.167 230.892 395.37 229.534 399.324 229.534ZM399.284 231.867C396.147 231.867 393.604 233.001 391.653 235.268C389.728 237.535 388.766 240.514 388.766 244.205C388.766 247.974 389.728 251.006 391.653 253.299C393.577 255.567 396.134 256.7 399.324 256.7C402.514 256.7 405.071 255.567 406.995 253.299C408.946 251.032 409.921 248.04 409.921 244.323C409.921 240.606 408.946 237.601 406.995 235.308C405.044 233.014 402.474 231.867 399.284 231.867ZM242.184 289.284C243.686 290.734 244.438 292.711 244.438 295.215C244.438 297.719 243.686 299.71 242.184 301.186C240.681 302.636 238.638 303.361 236.055 303.361H222.729V275.207H242.223V277.5H225.418V287.069H236.055C238.638 287.069 240.681 287.807 242.184 289.284ZM240.088 299.525C241.195 298.471 241.749 297.034 241.749 295.215C241.749 293.396 241.195 291.973 240.088 290.945C238.981 289.89 237.439 289.363 235.462 289.363H225.418V301.067H235.462C237.439 301.067 238.981 300.553 240.088 299.525ZM268.628 303.361H265.939V277.5H254.591L254.077 294.068C253.892 300.659 251.915 303.954 248.145 303.954C247.091 303.954 246.142 303.769 245.298 303.4V301.186C245.799 301.502 246.722 301.661 248.066 301.661C249.147 301.661 249.964 300.988 250.518 299.644C251.072 298.299 251.401 295.914 251.506 292.487L252.06 275.207H268.628V303.361ZM285.354 275.128L296.585 303.361H293.619L290.218 294.503H277.327L273.887 303.361H271.001L282.389 275.128H285.354ZM289.388 292.329L283.852 277.658L278.158 292.329H289.388ZM301.72 303.361H299.071V275.207H316.509V277.5H301.72V303.361ZM331.399 274.534C335.327 274.534 338.517 275.905 340.968 278.647C343.446 281.388 344.685 284.96 344.685 289.363C344.685 293.739 343.46 297.284 341.008 300C338.556 302.689 335.34 304.033 331.36 304.033C327.405 304.033 324.216 302.675 321.79 299.96C319.365 297.245 318.152 293.686 318.152 289.284C318.152 284.881 319.365 281.323 321.79 278.607C324.242 275.892 327.445 274.534 331.399 274.534ZM331.36 276.867C328.223 276.867 325.679 278.001 323.728 280.268C321.804 282.535 320.841 285.514 320.841 289.205C320.841 292.974 321.804 296.006 323.728 298.299C325.652 300.567 328.209 301.7 331.399 301.7C334.589 301.7 337.146 300.567 339.07 298.299C341.021 296.032 341.996 293.04 341.996 289.323C341.996 285.606 341.021 282.601 339.07 280.308C337.12 278.014 334.549 276.867 331.36 276.867ZM349.043 275.207H361.104C363.819 275.207 365.968 275.892 367.549 277.263C369.157 278.607 369.961 280.558 369.961 283.115C369.961 285.804 369.157 287.847 367.549 289.244C365.941 290.641 363.766 291.34 361.025 291.34H351.732V303.361H349.043V275.207ZM351.732 277.5V289.086H360.273C362.356 289.086 364.043 288.625 365.335 287.702C366.627 286.753 367.272 285.29 367.272 283.313C367.272 281.362 366.679 279.912 365.493 278.963C364.307 277.988 362.659 277.5 360.55 277.5H351.732ZM385.615 274.534C389.543 274.534 392.733 275.905 395.185 278.647C397.663 281.388 398.902 284.96 398.902 289.363C398.902 293.739 397.676 297.284 395.224 300C392.773 302.689 389.557 304.033 385.576 304.033C381.622 304.033 378.432 302.675 376.007 299.96C373.581 297.245 372.369 293.686 372.369 289.284C372.369 284.881 373.581 281.323 376.007 278.607C378.458 275.892 381.661 274.534 385.615 274.534ZM385.576 276.867C382.439 276.867 379.895 278.001 377.944 280.268C376.02 282.535 375.058 285.514 375.058 289.205C375.058 292.974 376.02 296.006 377.944 298.299C379.869 300.567 382.426 301.7 385.615 301.7C388.805 301.7 391.362 300.567 393.287 298.299C395.237 296.032 396.213 293.04 396.213 289.323C396.213 285.606 395.237 282.601 393.287 280.308C391.336 278.014 388.766 276.867 385.576 276.867ZM427.041 310.953H424.352V303.361H402.525V310.953H399.836V301.067H402.406C403.118 299.749 403.725 298.405 404.225 297.034C404.753 295.637 405.161 294.121 405.451 292.487C405.741 290.852 405.965 289.521 406.123 288.493C406.308 287.465 406.427 286.002 406.479 284.104C406.558 282.206 406.598 281.006 406.598 280.505C406.598 279.978 406.598 278.752 406.598 276.828V275.207H424.076V301.067H427.041V310.953ZM421.387 301.067V277.5H409.287V278.014C409.287 280.281 409.26 282.074 409.208 283.392C409.155 284.71 409.023 286.529 408.812 288.849C408.601 291.142 408.193 293.304 407.587 295.334C406.98 297.337 406.203 299.248 405.254 301.067H421.387ZM452.432 275.207V303.361H449.743V289.758H432.937V303.361H430.248V275.207H432.937V287.465H449.743V275.207H452.432ZM476.794 289.284C478.296 290.734 479.048 292.711 479.048 295.215C479.048 297.719 478.296 299.71 476.794 301.186C475.291 302.636 473.248 303.361 470.665 303.361H458.13V275.207H460.819V287.069H470.665C473.248 287.069 475.291 287.807 476.794 289.284ZM474.698 299.525C475.805 298.471 476.359 297.034 476.359 295.215C476.359 293.396 475.805 291.973 474.698 290.945C473.591 289.89 472.049 289.363 470.072 289.363H460.819V301.067H470.072C472.049 301.067 473.591 300.553 474.698 299.525ZM483.002 275.207H485.691V303.361H483.002V275.207ZM511.03 275.207L501.422 288.888L511.584 303.361H508.341L501.303 293.278C500.749 292.487 500.393 291.946 500.235 291.656C500.077 291.34 499.932 291.076 499.8 290.865C499.669 290.997 499.497 291.208 499.286 291.498C499.102 291.788 498.891 292.118 498.654 292.487C498.416 292.856 498.258 293.106 498.179 293.238L491.061 303.361H487.977L498.219 288.888L488.61 275.207H491.773L498.06 284.222C498.298 284.565 498.601 285.066 498.97 285.725C499.365 286.358 499.642 286.793 499.8 287.03C500.459 286.081 501.066 285.132 501.619 284.183L508.065 275.207H511.03ZM250.053 320.207V348.361H247.482V331.358C247.482 328.616 247.588 325.664 247.799 322.5C247.245 324.24 246.626 325.94 245.94 327.601L237.636 348.361H235.224L226.802 327.838C226.222 326.441 225.602 324.714 224.943 322.658C225.154 325.743 225.26 328.616 225.26 331.279V348.361H222.689V320.207H226.327L234.513 340.294C234.776 340.953 235.422 342.719 236.45 345.593C236.582 345.25 236.859 344.459 237.28 343.22C237.702 341.981 238.045 341.032 238.309 340.373L246.375 320.207H250.053ZM275.202 320.207V322.5H258.357V332.663H274.134V334.916H258.357V346.067H275.36V348.361H255.668V320.207H275.202ZM298.483 320.207V322.5H288.598V348.361H285.909V322.5H276.023V320.207H298.483ZM309.528 320.128L320.758 348.361H317.792L314.392 339.503H301.501L298.061 348.361H295.174L306.562 320.128H309.528ZM313.561 337.329L308.025 322.658L302.331 337.329H313.561ZM344.083 348.361H341.394V322.5H330.046L329.532 339.068C329.347 345.659 327.37 348.954 323.6 348.954C322.546 348.954 321.597 348.769 320.753 348.4V346.186C321.254 346.502 322.177 346.661 323.521 346.661C324.602 346.661 325.419 345.988 325.973 344.644C326.526 343.299 326.856 340.914 326.961 337.487L327.515 320.207H344.083V348.361ZM370.458 348.361H367.769V322.5H356.42L355.906 339.068C355.722 345.659 353.744 348.954 349.975 348.954C348.92 348.954 347.971 348.769 347.128 348.4V346.186C347.629 346.502 348.551 346.661 349.896 346.661C350.977 346.661 351.794 345.988 352.347 344.644C352.901 343.299 353.23 340.914 353.336 337.487L353.889 320.207H370.458V348.361ZM387.184 320.128L398.414 348.361H395.448L392.048 339.503H379.157L375.717 348.361H372.83L384.218 320.128H387.184ZM391.217 337.329L385.681 322.658L379.987 337.329H391.217ZM420.593 320.207L410.984 333.888L421.146 348.361H417.904L410.865 338.278C410.312 337.487 409.956 336.946 409.797 336.656C409.639 336.34 409.494 336.076 409.363 335.865C409.231 335.997 409.059 336.208 408.848 336.498C408.664 336.788 408.453 337.118 408.216 337.487C407.979 337.856 407.82 338.106 407.741 338.238L400.624 348.361H397.539L407.781 333.888L398.172 320.207H401.335L407.623 329.222C407.86 329.565 408.163 330.066 408.532 330.725C408.928 331.358 409.204 331.793 409.363 332.03C410.022 331.081 410.628 330.132 411.181 329.183L417.627 320.207H420.593Z" fill="white"/>
<path d="M229.895 392L231.811 382.913H231.791L223.849 392H222.842L224.976 381.885H225.766L223.83 391.012H223.849L231.791 381.885H232.818L230.685 392H229.895ZM241.409 382.577L239.414 392H238.624L240.777 381.885H247.494L247.336 382.577H241.409ZM253.273 395.181L253.945 392H245.292L244.62 395.181H243.83L244.66 391.309H245.845C246.53 390.321 247.162 389.03 247.741 387.437C248.321 385.843 248.769 384.282 249.085 382.755L249.263 381.885H255.505L253.51 391.309H254.893L254.063 395.181H253.273ZM254.577 382.577H249.915L249.737 383.347C249.394 384.783 248.947 386.258 248.393 387.772C247.84 389.274 247.267 390.453 246.675 391.309H252.72L254.577 382.577ZM265.108 388.681C264.779 389.84 264.219 390.736 263.429 391.368C262.652 391.987 261.697 392.296 260.565 392.296C259.314 392.296 258.339 391.921 257.641 391.17C256.943 390.406 256.594 389.34 256.594 387.97C256.594 386.153 257.094 384.638 258.095 383.426C259.109 382.201 260.367 381.589 261.869 381.589C263.054 381.589 263.982 381.951 264.654 382.676C265.326 383.387 265.661 384.381 265.661 385.659C265.661 386.027 265.622 386.475 265.543 387.002H257.463C257.41 387.279 257.384 387.601 257.384 387.97C257.384 389.116 257.667 390.018 258.234 390.676C258.813 391.322 259.61 391.644 260.624 391.644C261.48 391.644 262.231 391.388 262.876 390.874C263.521 390.347 263.995 389.616 264.298 388.681H265.108ZM257.562 386.33H264.832C264.871 386.014 264.891 385.784 264.891 385.639C264.891 384.572 264.621 383.742 264.081 383.15C263.541 382.557 262.784 382.261 261.809 382.261C260.769 382.261 259.867 382.63 259.103 383.367C258.339 384.091 257.825 385.079 257.562 386.33ZM281.74 385.619C281.74 386.422 281.621 387.213 281.384 387.99C281.16 388.767 280.831 389.485 280.396 390.143C279.975 390.788 279.415 391.309 278.717 391.704C278.019 392.099 277.242 392.296 276.386 392.296C275.109 392.296 274.114 391.928 273.403 391.19C272.705 390.453 272.356 389.419 272.356 388.089C272.356 386.35 272.843 384.836 273.818 383.545C274.792 382.241 276.123 381.589 277.808 381.589C279.046 381.589 280.008 381.951 280.693 382.676C281.391 383.387 281.74 384.368 281.74 385.619ZM277.749 382.281C276.788 382.281 275.945 382.583 275.22 383.189C274.496 383.782 273.969 384.513 273.64 385.382C273.311 386.238 273.146 387.14 273.146 388.089C273.146 389.208 273.429 390.077 273.996 390.696C274.575 391.315 275.378 391.625 276.406 391.625C277.156 391.625 277.828 391.44 278.421 391.072C279.027 390.69 279.507 390.202 279.863 389.61C280.218 389.004 280.488 388.358 280.673 387.674C280.857 386.976 280.949 386.278 280.949 385.58C280.949 384.566 280.666 383.762 280.1 383.169C279.534 382.577 278.75 382.281 277.749 382.281ZM295.063 392L296.13 386.962H289.828L288.761 392H287.971L290.104 381.885H290.895L289.966 386.291H296.268L297.197 381.885H297.987L295.853 392H295.063ZM305.307 392L307.223 382.913H307.204L299.262 392H298.255L300.388 381.885H301.178L299.242 391.012H299.262L307.204 381.885H308.231L306.097 392H305.307ZM317.566 381.885L313.062 386.765L315.887 392H314.959L312.489 387.279L308.163 392H307.175L312.134 386.686L309.585 381.885H310.494L312.706 386.192L316.598 381.885H317.566ZM325.174 382.597L323.179 392H322.388L324.542 381.885H325.767L327.584 391.072L333.293 381.885H334.597L332.444 392H331.654L333.649 382.597H333.609L327.841 392H327.011L325.213 382.597H325.174ZM344.69 385.619C344.69 386.422 344.571 387.213 344.334 387.99C344.11 388.767 343.781 389.485 343.346 390.143C342.925 390.788 342.365 391.309 341.667 391.704C340.969 392.099 340.192 392.296 339.336 392.296C338.058 392.296 337.064 391.928 336.353 391.19C335.655 390.453 335.306 389.419 335.306 388.089C335.306 386.35 335.793 384.836 336.768 383.545C337.742 382.241 339.073 381.589 340.758 381.589C341.996 381.589 342.958 381.951 343.643 382.676C344.341 383.387 344.69 384.368 344.69 385.619ZM340.699 382.281C339.738 382.281 338.895 382.583 338.17 383.189C337.446 383.782 336.919 384.513 336.59 385.382C336.261 386.238 336.096 387.14 336.096 388.089C336.096 389.208 336.379 390.077 336.946 390.696C337.525 391.315 338.328 391.625 339.356 391.625C340.106 391.625 340.778 391.44 341.371 391.072C341.977 390.69 342.457 390.202 342.813 389.61C343.168 389.004 343.438 388.358 343.623 387.674C343.807 386.976 343.899 386.278 343.899 385.58C343.899 384.566 343.616 383.762 343.05 383.169C342.484 382.577 341.7 382.281 340.699 382.281ZM358.718 392H357.809L354.47 386.666L355.043 386.093L358.718 392ZM360.397 381.885L352.613 388.484L351.863 392H351.073L351.823 388.484L346.944 381.885H347.932L352.041 387.456L353.226 381.885H354.016L352.831 387.456L359.251 381.885H360.397ZM350.519 386.666L345.363 392H344.277L350.105 386.034L350.519 386.666ZM366.772 392L367.838 386.962H361.536L360.47 392H359.679L361.813 381.885H362.603L361.675 386.291H367.977L368.905 381.885H369.695L367.562 392H366.772ZM379.801 385.619C379.801 386.422 379.683 387.213 379.445 387.99C379.222 388.767 378.892 389.485 378.458 390.143C378.036 390.788 377.477 391.309 376.779 391.704C376.081 392.099 375.303 392.296 374.447 392.296C373.17 392.296 372.176 391.928 371.464 391.19C370.766 390.453 370.417 389.419 370.417 388.089C370.417 386.35 370.905 384.836 371.879 383.545C372.854 382.241 374.184 381.589 375.87 381.589C377.108 381.589 378.069 381.951 378.754 382.676C379.452 383.387 379.801 384.368 379.801 385.619ZM375.811 382.281C374.849 382.281 374.006 382.583 373.282 383.189C372.558 383.782 372.031 384.513 371.701 385.382C371.372 386.238 371.208 387.14 371.208 388.089C371.208 389.208 371.491 390.077 372.057 390.696C372.637 391.315 373.44 391.625 374.467 391.625C375.218 391.625 375.89 391.44 376.482 391.072C377.088 390.69 377.569 390.202 377.924 389.61C378.28 389.004 378.55 388.358 378.734 387.674C378.919 386.976 379.011 386.278 379.011 385.58C379.011 384.566 378.728 383.762 378.161 383.169C377.595 382.577 376.811 382.281 375.811 382.281ZM395.298 381.885L389.588 391.901C388.943 393.06 388.423 393.903 388.028 394.43C387.712 394.878 387.369 395.194 387 395.378C386.645 395.562 386.197 395.655 385.657 395.655C385.525 395.655 385.269 395.635 384.887 395.595L385.045 394.904C385.295 394.917 385.512 394.924 385.697 394.924C386.25 394.924 386.684 394.785 387 394.509C387.316 394.232 387.646 393.798 387.988 393.205L388.699 392L386.744 381.885H387.573L388.818 388.266C388.976 389.03 389.134 389.972 389.292 391.091C389.661 390.327 390.128 389.452 390.695 388.464L394.409 381.885H395.298ZM400.509 386.607C401.154 386.673 401.674 386.916 402.069 387.338C402.464 387.759 402.662 388.266 402.662 388.859C402.662 389.899 402.221 390.736 401.338 391.368C400.456 391.987 399.461 392.296 398.355 392.296C397.196 392.296 396.281 392.026 395.609 391.486C394.938 390.946 394.602 390.196 394.602 389.234C394.602 389.116 394.615 388.898 394.641 388.582H395.431C395.405 388.872 395.392 389.076 395.392 389.195C395.392 390.815 396.38 391.625 398.355 391.625C399.211 391.625 400.008 391.368 400.746 390.854C401.483 390.327 401.852 389.656 401.852 388.839C401.852 387.588 400.858 386.962 398.869 386.962H397.901L398.059 386.291H398.77C399.165 386.291 399.554 386.258 399.936 386.192C400.318 386.113 400.693 385.994 401.062 385.836C401.43 385.678 401.727 385.441 401.951 385.125C402.188 384.809 402.306 384.434 402.306 383.999C402.306 383.446 402.063 383.018 401.575 382.715C401.101 382.412 400.502 382.261 399.778 382.261C397.802 382.261 396.623 383.117 396.241 384.829H395.431C395.708 383.67 396.208 382.84 396.933 382.34C397.67 381.839 398.638 381.589 399.837 381.589C400.838 381.589 401.628 381.8 402.207 382.221C402.8 382.63 403.096 383.222 403.096 383.999C403.096 384.697 402.846 385.283 402.346 385.757C401.858 386.232 401.246 386.515 400.509 386.607ZM410.873 392L411.94 386.962H405.638L404.571 392H403.781L405.915 381.885H406.705L405.776 386.291H412.078L413.007 381.885H413.797L411.663 392H410.873ZM415.368 384.789C415.671 383.683 416.145 382.88 416.791 382.379C417.449 381.866 418.365 381.609 419.537 381.609C420.59 381.609 421.407 381.82 421.986 382.241C422.566 382.662 422.856 383.255 422.856 384.019C422.856 384.388 422.763 384.967 422.579 385.757L421.868 388.859C421.644 389.781 421.532 390.42 421.532 390.775C421.532 391.197 421.716 391.407 422.085 391.407C422.217 391.407 422.434 391.374 422.737 391.309L422.619 391.96C422.276 392.04 422.019 392.079 421.848 392.079C421.163 392.079 420.821 391.717 420.821 390.992C420.821 390.755 420.867 390.453 420.959 390.084C420.064 391.559 418.747 392.296 417.008 392.296C416.047 392.296 415.289 392.053 414.736 391.565C414.196 391.078 413.926 390.413 413.926 389.57C413.926 389.03 414.058 388.536 414.321 388.089C414.585 387.641 414.947 387.285 415.408 387.022C415.803 386.798 416.257 386.64 416.771 386.548C417.285 386.442 418.101 386.357 419.221 386.291C420.59 386.199 421.414 385.994 421.69 385.678C421.94 385.389 422.065 384.895 422.065 384.197C422.065 382.946 421.223 382.32 419.537 382.32C418.589 382.32 417.844 382.518 417.304 382.913C416.778 383.308 416.396 383.933 416.159 384.789H415.368ZM421.71 386.311C421.486 386.521 421.176 386.666 420.781 386.745C420.518 386.798 419.8 386.864 418.628 386.943C417.456 387.009 416.587 387.173 416.02 387.437C415.625 387.608 415.309 387.884 415.072 388.266C414.835 388.648 414.717 389.07 414.717 389.531C414.717 390.189 414.934 390.709 415.368 391.091C415.803 391.46 416.402 391.644 417.166 391.644C417.943 391.644 418.654 391.447 419.3 391.052C419.945 390.643 420.446 390.09 420.801 389.392C421.025 388.931 421.249 388.24 421.473 387.318L421.71 386.311ZM429.256 382.577L427.261 392H426.471L428.466 382.577H424.634L424.772 381.885H433.227L433.089 382.577H429.256ZM441.452 388.681C441.452 389.326 441.294 389.913 440.978 390.439C440.662 390.966 440.234 391.361 439.694 391.625C439.154 391.875 438.278 392 437.066 392H432.7L434.854 381.885H435.624L434.755 386.014H438.093C439.134 386.014 439.95 386.205 440.543 386.587C441.149 386.956 441.452 387.654 441.452 388.681ZM440.662 388.721C440.662 387.93 440.418 387.404 439.931 387.14C439.457 386.864 438.778 386.725 437.896 386.725H434.597L433.609 391.309H437.066C438.265 391.309 439.108 391.157 439.595 390.854C439.911 390.643 440.168 390.347 440.365 389.965C440.563 389.57 440.662 389.155 440.662 388.721Z" fill="white"/>
<path d="M0.5 1.14795H528.871" stroke="white" stroke-width="2.20042"/>
<path d="M5.58808 32.8185H26.0065C31.0725 32.8185 35.0593 34.0299 37.9668 36.4528C40.9183 38.8317 42.3941 42.3999 42.3941 47.1576C42.3941 51.651 41.0284 55.2192 38.2972 57.8624C35.5659 60.4615 31.8435 61.7611 27.1298 61.7611H13.848V79.8667H5.58808V32.8185ZM13.848 39.6907V55.0871H25.3457C31.3369 55.0871 34.3324 52.51 34.3324 47.3558C34.3324 42.2457 31.0946 39.6907 24.6188 39.6907H13.848ZM83.3625 32.8185V39.7568H57.6578V52.2457H81.5123V58.9197H57.6578V72.7962H83.759V79.8667H49.464V32.8185H83.3625ZM133.178 91.5627H125.183V79.8667H94.5221V91.5627H86.5266V72.7302H91.086C92.8922 69.5584 94.3679 64.9329 95.5133 58.8536C96.6587 52.7743 97.2314 46.5188 97.2314 40.0872V32.8185H127.892V72.7302H133.178V91.5627ZM119.632 72.7302V39.955H105.293V42.7964C105.293 48.4792 104.764 54.14 103.707 59.7787C102.694 65.3734 101.438 69.6905 99.9406 72.7302H119.632ZM178.223 32.8185L159.391 51.5849L179.412 79.8667H169.17L153.708 57.3338L146.968 64.0738V79.8667H138.774V32.8185H146.968V54.162L167.783 32.8185H178.223ZM183.943 79.8667V32.8185H192.203V68.8976L212.424 32.8185H222.005V79.8667H213.745V43.7876L193.525 79.8667H183.943ZM265.596 32.8185V39.7568H239.891V52.2457H263.746V58.9197H239.891V72.7962H265.992V79.8667H231.697V32.8185H265.596ZM291.644 79.8667V32.8185H299.904V68.8976L320.125 32.8185H329.706V79.8667H321.446V43.7876L301.226 79.8667H291.644ZM43.9139 139.263C43.9139 143.933 42.5042 147.545 39.6848 150.1C36.9095 152.611 32.9668 153.867 27.8567 153.867H5.522V106.818H40.1474V113.955H13.7819V124.792H27.8567C33.0109 124.792 36.9756 126.047 39.7509 128.558C42.5262 131.069 43.9139 134.638 43.9139 139.263ZM35.654 139.461C35.654 136.995 34.9271 135.056 33.4734 133.647C32.0197 132.237 29.9932 131.532 27.3941 131.532H13.7819V147.127H27.5263C32.9448 147.127 35.654 144.572 35.654 139.461ZM87.175 153.867H78.9151V113.955H64.3777L63.5187 136.356C63.2544 142.611 61.9768 147.237 59.6861 150.232C57.4394 153.228 54.5099 154.726 50.8976 154.726C49.3117 154.726 47.6597 154.439 45.9417 153.867V147.523C46.8227 147.876 47.902 148.052 49.1796 148.052C50.4571 148.052 51.4923 147.743 52.2853 147.127C53.0782 146.51 53.7831 145.144 54.3998 143.03C55.0165 140.871 55.391 137.898 55.5231 134.109L56.4482 106.818H87.175V153.867ZM118.371 106.752L136.543 153.867H127.688L123.195 141.378H104.56L99.9349 153.867H91.4107L109.582 106.752H118.371ZM121.014 135.166L114.01 115.343L106.675 135.166H121.014ZM149.295 153.867H141.036V106.818H172.952V113.955H149.295V153.867ZM198.49 105.695C205.142 105.695 210.538 107.986 214.679 112.567C218.864 117.105 220.956 123.03 220.956 130.343C220.956 137.655 218.864 143.602 214.679 148.184C210.494 152.721 205.053 154.99 198.357 154.99C191.617 154.99 186.155 152.721 181.97 148.184C177.829 143.646 175.758 137.699 175.758 130.343C175.758 123.206 177.785 117.325 181.838 112.699C185.935 108.03 191.485 105.695 198.49 105.695ZM198.357 112.633C194.04 112.633 190.582 114.241 187.983 117.457C185.384 120.629 184.084 124.88 184.084 130.21C184.084 135.673 185.362 140.012 187.917 143.228C190.516 146.444 194.04 148.052 198.49 148.052C202.763 148.052 206.177 146.444 208.732 143.228C211.331 139.968 212.631 135.651 212.631 130.277C212.631 124.902 211.331 120.629 208.732 117.457C206.177 114.241 202.719 112.633 198.357 112.633ZM228.54 106.818H248.958C254.025 106.818 258.011 108.03 260.919 110.453C263.87 112.832 265.346 116.4 265.346 121.158C265.346 125.651 263.98 129.219 261.249 131.862C258.518 134.462 254.795 135.761 250.082 135.761H236.8V153.867H228.54V106.818ZM236.8 113.691V129.087H248.298C254.289 129.087 257.284 126.51 257.284 121.356C257.284 116.246 254.047 113.691 247.571 113.691H236.8ZM292.768 105.695C299.42 105.695 304.817 107.986 308.958 112.567C313.143 117.105 315.235 123.03 315.235 130.343C315.235 137.655 313.143 143.602 308.958 148.184C304.773 152.721 299.332 154.99 292.636 154.99C285.896 154.99 280.434 152.721 276.249 148.184C272.108 143.646 270.037 137.699 270.037 130.343C270.037 123.206 272.064 117.325 276.116 112.699C280.213 108.03 285.764 105.695 292.768 105.695ZM292.636 112.633C288.319 112.633 284.861 114.241 282.262 117.457C279.663 120.629 278.363 124.88 278.363 130.21C278.363 135.673 279.641 140.012 282.196 143.228C284.795 146.444 288.319 148.052 292.768 148.052C297.041 148.052 300.456 146.444 303.011 143.228C305.61 139.968 306.909 135.651 306.909 130.277C306.909 124.902 305.61 120.629 303.011 117.457C300.456 114.241 296.997 112.633 292.636 112.633ZM364.713 165.563H356.717V153.867H326.057V165.563H318.061V146.73H322.621C324.427 143.558 325.902 138.933 327.048 132.854C328.193 126.774 328.766 120.519 328.766 114.087V106.818H359.427V146.73H364.713V165.563ZM351.167 146.73V113.955H336.828V116.796C336.828 122.479 336.299 128.14 335.242 133.779C334.228 139.373 332.973 143.691 331.475 146.73H351.167ZM408.304 106.818V153.867H400.044V132.721H378.502V153.867H370.242V106.818H378.502V125.519H400.044V106.818H408.304ZM453.679 139.263C453.679 143.933 452.269 147.545 449.45 150.1C446.675 152.611 442.732 153.867 437.622 153.867H418.128V106.818H426.388V124.792H437.622C442.776 124.792 446.741 126.047 449.516 128.558C452.291 131.069 453.679 134.638 453.679 139.263ZM445.419 139.461C445.419 136.995 444.692 135.056 443.238 133.647C441.785 132.237 439.758 131.532 437.159 131.532H426.388V147.127H437.291C442.71 147.127 445.419 144.572 445.419 139.461ZM459.23 106.818H467.489V153.867H459.23V106.818ZM511.134 106.818V113.757H485.429V126.246H509.283V132.92H485.429V146.796H511.53V153.867H477.235V106.818H511.134ZM527.646 144.946V153.867H518.659V144.946H527.646ZM527.646 120.1V129.021H518.659V120.1H527.646Z" fill="white"/>
<path d="M2.0459 184.996H196.709" stroke="white" stroke-width="2.20042"/>
</svg>
