<svg width="61.902466" height="40.161133" viewBox="0 0 61.9025 40.1611" fill="none" xmlns="http://www.w3.org/2000/svg" xmlns:xlink="http://www.w3.org/1999/xlink">
	<desc>
			Created with Pixso.
	</desc>
	<defs/>
	<path id="path" d="M41.86 0C37.96 0 34.33 1.12 31.25 3.04C30.64 3.42 30.06 3.83 29.51 4.26C29.93 4.84 30.31 5.43 30.66 6.06C31.21 5.61 31.8 5.2 32.4 4.82C35.15 3.11 38.39 2.12 41.86 2.12C51.73 2.12 59.77 10.14 59.77 20C59.77 29.85 51.73 37.87 41.86 37.87C35.96 37.87 30.72 35.01 27.46 30.61C27.41 30.63 26.81 29.68 26.76 29.6C26.52 29.24 26.3 28.86 26.1 28.49C25.69 27.73 25.33 26.94 25.03 26.13C24.43 24.5 24.08 22.78 23.98 21.05C23.92 20.17 23.94 19.28 24.02 18.39C24.06 17.96 24.11 17.54 24.18 17.11C24.25 16.71 24.34 16.31 24.39 15.9C24.58 14.21 24.3 12.48 23.6 10.93C23.24 10.13 22.77 9.38 22.2 8.7C21.9 8.35 21.58 8.02 21.24 7.72C21.15 7.65 20.18 6.88 20.17 6.9C18.65 5.89 16.84 5.3 14.88 5.3C9.6 5.3 5.31 9.58 5.31 14.85C5.31 20.11 9.6 24.4 14.88 24.4C15.06 24.4 15.25 24.39 15.43 24.38L3.71 38.81L6.48 38.81L18.85 23.54C18.86 23.53 18.88 23.52 18.9 23.51C18.78 22.77 18.7 22.01 18.66 21.24C18.03 21.62 17.33 21.9 16.59 22.08C16.04 22.21 15.47 22.27 14.88 22.27C10.77 22.27 7.44 18.95 7.44 14.85C7.44 10.75 10.77 7.42 14.88 7.42C16.47 7.42 17.93 7.92 19.14 8.76C19.14 8.77 19.52 9.04 19.56 9.08C19.72 9.21 19.88 9.34 20.03 9.49C20.3 9.75 20.56 10.04 20.79 10.34C21.23 10.91 21.58 11.54 21.84 12.22C22.1 12.91 22.26 13.64 22.31 14.38C22.33 14.81 22.32 15.24 22.28 15.66C22.23 16.05 22.13 16.43 22.07 16.82C21.53 20.2 21.87 23.71 23.06 26.92C23.39 27.81 23.78 28.66 24.23 29.49C24.45 29.91 24.69 30.32 24.95 30.72C25.07 30.91 25.2 31.1 25.33 31.29C25.39 31.38 25.46 31.48 25.53 31.57C25.56 31.63 25.73 31.79 25.73 31.85C29.38 36.79 35.25 39.99 41.86 39.99C52.91 39.99 61.9 31.02 61.9 20C61.9 8.97 52.91 0 41.86 0Z" fill="#FFFFFF" fill-opacity="1.000000" fill-rule="nonzero">
	<path id="path" d="M41.86 5.31C38.88 5.31 36.1 6.2 33.78 7.72C33.15 8.13 32.56 8.59 32.01 9.09C32.27 9.85 32.48 10.64 32.63 11.44C33.18 10.85 33.79 10.31 34.45 9.83C36.53 8.32 39.09 7.43 41.86 7.43C48.81 7.43 54.45 13.06 54.45 20C54.45 26.94 48.81 32.56 41.86 32.56C37.38 32.56 33.44 30.23 31.21 26.71C31.22 26.69 30.69 25.82 30.64 25.72C30.45 25.34 30.27 24.95 30.11 24.55C29.79 23.71 29.56 22.85 29.42 21.96C29.28 21.07 29.23 20.17 29.28 19.27C29.33 18.46 29.52 17.68 29.63 16.87C30.11 13.38 29.31 9.77 27.39 6.81C26.34 5.19 24.98 3.78 23.39 2.67C20.98 0.99 18.04 0 14.88 0C6.67 0 0 6.66 0 14.85C0 21.04 3.82 26.37 9.23 28.59L10.64 26.86C5.68 25.11 2.12 20.39 2.12 14.85C2.12 7.83 7.85 2.12 14.88 2.12C17.51 2.12 19.96 2.92 22 4.29C24.62 6.05 26.53 8.77 27.28 11.84C27.67 13.44 27.74 15.11 27.5 16.73C27.27 18.24 27.06 19.67 27.19 21.2C27.34 23.04 27.84 24.85 28.66 26.51C28.99 27.17 29.38 27.82 29.81 28.42C32.47 32.21 36.88 34.69 41.86 34.69C49.98 34.69 56.58 28.1 56.58 20C56.58 11.9 49.98 5.31 41.86 5.31Z" fill="#FFFFFF" fill-opacity="1.000000" fill-rule="nonzero">
	<path id="path" d="M19.83 27.37L10.63 38.81L13.4 38.81L20.74 29.64L19.83 27.37Z" fill="#FFFFFF" fill-opacity="1.000000" fill-rule="nonzero">
</svg>
