<svg width="22" height="22" viewBox="0 0 22 22" fill="none" xmlns="http://www.w3.org/2000/svg">
<path fill-rule="evenodd" clip-rule="evenodd" d="M21 11C21 5.47714 16.5228 1 11 1C5.47714 1 1 5.47714 1 11C1 16.5228 5.47714 21 11 21C16.5228 21 21 16.5228 21 11Z" fill="black" fill-opacity="0.01"/>
<path fill-rule="evenodd" clip-rule="evenodd" d="M0.5 11C0.5 5.201 5.201 0.5 11 0.5C16.799 0.5 21.5 5.201 21.5 11C21.5 16.799 16.799 21.5 11 21.5C5.201 21.5 0.5 16.799 0.5 11ZM11 1.5C5.75328 1.5 1.5 5.75328 1.5 11C1.5 16.2467 5.75328 20.5 11 20.5C16.2467 20.5 20.5 16.2467 20.5 11C20.5 5.75328 16.2467 1.5 11 1.5Z" fill="white"/>
<path fill-rule="evenodd" clip-rule="evenodd" d="M1 11H21Z" fill="black" fill-opacity="0.01"/>
<path fill-rule="evenodd" clip-rule="evenodd" d="M0.5 11C0.5 10.7239 0.723858 10.5 1 10.5H21C21.2761 10.5 21.5 10.7239 21.5 11C21.5 11.2761 21.2761 11.5 21 11.5H1C0.723858 11.5 0.5 11.2761 0.5 11Z" fill="white"/>
<path fill-rule="evenodd" clip-rule="evenodd" d="M15 11C15 5.47714 13.2092 1 11 1C8.79085 1 7 5.47714 7 11C7 16.5228 8.79085 21 11 21C13.2092 21 15 16.5228 15 11Z" fill="black" fill-opacity="0.01"/>
<path fill-rule="evenodd" clip-rule="evenodd" d="M9.07974 1.44229C9.61719 0.873981 10.2659 0.5 11 0.5C11.7341 0.5 12.3828 0.873981 12.9203 1.44229C13.4567 2.00955 13.9168 2.80355 14.2927 3.74323C15.0455 5.62537 15.5 8.19124 15.5 11C15.5 13.8087 15.0455 16.3746 14.2927 18.2568C13.9168 19.1964 13.4567 19.9904 12.9203 20.5577C12.3828 21.126 11.7341 21.5 11 21.5C10.2659 21.5 9.61719 21.126 9.07974 20.5577C8.54328 19.9904 8.0832 19.1964 7.70733 18.2568C6.95447 16.3746 6.5 13.8087 6.5 11C6.5 8.19124 6.95447 5.62537 7.70733 3.74323C8.0832 2.80355 8.54328 2.00955 9.07974 1.44229ZM8.63581 4.11462C7.94095 5.85177 7.5 8.2859 7.5 11C7.5 13.7141 7.94095 16.1482 8.63581 17.8854C8.98379 18.7553 9.38564 19.4258 9.80629 19.8706C10.2259 20.3143 10.6295 20.5 11 20.5C11.3705 20.5 11.7741 20.3143 12.1937 19.8706C12.6144 19.4258 13.0162 18.7553 13.3642 17.8854C14.0591 16.1482 14.5 13.7141 14.5 11C14.5 8.2859 14.0591 5.85177 13.3642 4.11462C13.0162 3.24466 12.6144 2.5742 12.1937 2.1294C11.7741 1.68566 11.3705 1.5 11 1.5C10.6295 1.5 10.2259 1.68566 9.80629 2.1294C9.38564 2.5742 8.98379 3.24466 8.63581 4.11462Z" fill="white"/>
<path fill-rule="evenodd" clip-rule="evenodd" d="M3.92896 4.07129C5.7386 5.88094 8.2386 7.00024 11 7.00024C13.7615 7.00024 16.2614 5.88094 18.0711 4.07129" fill="black" fill-opacity="0.01"/>
<path fill-rule="evenodd" clip-rule="evenodd" d="M3.5754 3.71774C3.77066 3.52247 4.08725 3.52247 4.28251 3.71774C6.00222 5.43745 8.37654 6.50024 11 6.50024C13.6235 6.50024 15.9978 5.43745 17.7175 3.71773C17.9128 3.52247 18.2294 3.52247 18.4247 3.71774C18.6199 3.913 18.6199 4.22958 18.4247 4.42484C16.5251 6.32442 13.8994 7.50024 11 7.50024C8.10067 7.50024 5.47498 6.32442 3.5754 4.42484C3.38014 4.22958 3.38014 3.913 3.5754 3.71774Z" fill="white"/>
<path fill-rule="evenodd" clip-rule="evenodd" d="M18.0711 17.9289C16.2614 16.1193 13.7615 15 11 15C8.2386 15 5.7386 16.1193 3.92896 17.9289" fill="black" fill-opacity="0.01"/>
<path fill-rule="evenodd" clip-rule="evenodd" d="M3.5754 17.5754C5.47498 15.6758 8.10067 14.5 11 14.5C13.8994 14.5 16.5251 15.6758 18.4247 17.5754C18.6199 17.7707 18.6199 18.0872 18.4247 18.2825C18.2294 18.4778 17.9128 18.4778 17.7175 18.2825C15.9978 16.5628 13.6235 15.5 11 15.5C8.37654 15.5 6.00222 16.5628 4.28251 18.2825C4.08725 18.4778 3.77066 18.4778 3.5754 18.2825C3.38014 18.0872 3.38014 17.7707 3.5754 17.5754Z" fill="white"/>
</svg>
