<svg width="785" height="116" viewBox="0 0 785 116" fill="none" xmlns="http://www.w3.org/2000/svg">
<path d="M412.247 114.155H380.125V0H412.247V114.155Z" fill="white"/>
<path d="M333.786 49.6299C339.316 49.6299 353.019 49.79 367.069 53.2737L373.039 38.5062C372.88 38.4835 372.246 38.334 371.238 38.0961C365.5 36.7426 347.634 32.5279 335.953 32.5279H328.941C309.349 32.5279 303.507 36.8565 298.814 41.5214C294.129 46.0061 291.454 52.0444 291.454 60.1529C291.454 66.1992 293.292 71.1965 296.303 74.9964C303.002 83.6215 313.033 85.5195 323.247 86.8929C326.262 87.3183 328.691 87.6275 330.677 87.8803C335.963 88.5533 338.111 88.8267 339.817 89.828C341.49 90.8571 341.991 92.2345 341.991 93.4478C341.991 97.2438 338.143 97.9285 334.459 97.9285L334.289 97.9288L334.165 97.9292H334.159C330.528 97.9408 309.057 98.0098 291.342 90.8851L283.113 107.226C285.019 108.219 306.554 115.034 325.734 115.034H337.939C355.013 115.034 362.717 110.357 365.391 108.46C370.585 104.84 376.279 97.5841 376.279 85.6917C376.279 79.305 374.269 73.9594 370.585 69.9912C366.228 65.1581 360.254 62.9999 354.512 62.0509C351.766 61.5971 348.366 61.146 344.884 60.684C336.996 59.6373 328.684 58.5345 326.595 57.2178C325.594 56.7053 324.585 55.6682 324.585 53.7702C324.585 51.8682 326.094 51.0113 327.26 50.4908C328.597 49.9742 330.271 49.6299 333.786 49.6299Z" fill="white"/>
<path fill-rule="evenodd" clip-rule="evenodd" d="M582.208 41.53C577.043 35.0192 571.285 32.5366 564.662 32.5326H556.97C545.598 32.5326 539.027 38.4187 536.516 41.0094V0.00248782H504.391V114.158H533.173V100.7C536.352 106.05 544.513 114.967 555.48 114.967C555.816 114.967 563.016 114.971 563.388 114.979C568.029 115.067 574.152 114.571 580.198 108.981C589.4 100.528 590.068 83.4499 590.068 74.8249C590.068 61.3668 588.23 49.1139 582.208 41.53ZM556.946 85.0035C556.946 87.4181 556.946 90.5173 554.431 93.108C553.098 94.6617 550.751 95.8709 547.232 95.8709C543.884 95.8709 540.869 94.3133 539.199 92.2431C537.189 89.8326 536.516 86.385 536.516 79.8301V65.8555C536.516 62.9164 536.853 59.8132 538.863 57.0583C540.701 54.4635 543.548 52.7377 547.404 52.7377C551.088 52.7377 553.098 54.1192 554.267 55.1563C555.436 56.3695 556.946 58.6119 556.946 63.0886V85.0035Z" fill="white"/>
<path d="M0 33.4109V114.155H32.1257V69.4727C32.1257 66.882 32.2898 60.1549 35.9737 56.5311C37.6474 54.8053 40.4944 53.6 43.3414 53.6C46.8611 53.6 48.8672 55.1537 49.8722 56.7073C51.2097 58.9496 51.2097 61.8807 51.2097 64.2992V114.155H83.3353V58.0887C83.3353 51.1775 82.8308 43.5895 76.1358 38.0678C74.2978 36.5181 68.9242 32.55 63.2062 32.55C62.9271 32.55 60.2485 32.5481 57.5256 32.5461L57.3767 32.546C54.6013 32.544 51.8244 32.542 51.538 32.542C49.1075 32.542 44.6948 33.3668 39.8217 36.338C36.31 38.4161 33.7994 41.0028 31.9535 44.1101H31.453V33.4109H0Z" fill="white"/>
<path d="M205.896 33.4109L216.94 74.8223L227.655 33.4109H252.561L264.622 75.6872L276.01 33.4109H294.069L270.128 114.155H245.045L233.165 74.7142L224.143 114.155H196.707L172.766 33.4109H205.896Z" fill="white"/>
<path d="M615.547 33.4114V114.136H647.044V60.9562C648.353 58.9221 650.335 56.896 652.137 55.7148C653.947 54.5255 656.085 53.8528 658.544 53.8528C661.839 53.8528 663.645 55.3704 664.466 56.896C665.287 58.2454 665.944 60.7841 665.944 68.9046V75.011H696.46V66.7023C696.46 66.2235 696.461 65.7446 696.462 65.266C696.479 57.1266 696.496 49.049 691.53 42.3287C685.768 34.3644 677.616 32.4664 670.549 32.4664C668.899 32.4664 662.496 33.6877 657.066 36.5667C652.962 38.769 649.346 42.3287 647.044 46.2208V33.4114H615.547Z" fill="white"/>
<path d="M734.72 33.4089V83.3051C734.72 85.6796 734.72 88.5546 736.033 90.757C737.018 92.2825 738.988 93.8082 742.448 93.8082C745.235 93.8082 748.03 92.6189 749.671 90.9291C753.295 87.3774 753.459 80.7705 753.459 78.2238V33.4089H784.96V114.153H754.112V103.122H753.624C751.818 106.173 749.347 108.72 745.895 110.754C740.634 113.969 735.208 115.034 729.13 115.034C716.24 115.034 712.427 111.769 710.535 110.149L710.427 110.057C710.379 110.016 710.332 109.976 710.286 109.937C703.719 104.523 703.219 96.1826 703.219 89.4035V33.4089H734.72Z" fill="white"/>
<path fill-rule="evenodd" clip-rule="evenodd" d="M470.356 32.5286C475.137 32.5286 482.16 34.6468 486.929 37.7221C497.1 44.2809 497.473 53.2543 497.473 59.8092V114.154H467.025V102.93H466.356C463.553 109.798 457.379 114.995 450.848 114.995C450.031 114.995 446.459 114.998 442.885 115.001C439.307 115.004 435.726 115.007 434.907 115.007C431.888 115.007 427.307 112.969 425.025 111.219C418.266 106.01 416.992 98.6219 416.992 92.2352C416.992 86.8936 417.493 80.6791 423.014 76.0222C425.197 74.3004 428.708 72.058 436.24 70.5044C437.065 70.3159 437.651 70.1662 438.265 70.009C439.896 69.5919 441.729 69.123 448.781 67.7415L467.025 64.2979V59.1165C467.025 53.5547 465.075 49.8508 460.562 49.8027H452.465C447.961 49.8508 446.003 53.5547 446.003 59.1165V60.3898H418.734V59.8092C418.734 53.2543 419.118 44.2809 429.285 37.7221C434.05 34.6468 441.077 32.5286 445.862 32.5286H470.356ZM463.181 94.1372C466.856 90.8537 467.025 85.8605 467.025 82.5851V76.8911L461.999 78.0964C461.044 78.3438 460.28 78.5242 459.564 78.6936L459.562 78.694C458.272 78.9988 457.134 79.2678 455.304 79.8262C453.13 80.3387 450.619 81.1996 448.781 83.2738C447.772 84.4831 446.599 86.5532 446.599 89.9968C446.599 92.063 447.1 93.965 448.609 95.3424C450.451 97.0642 452.63 97.2444 454.467 97.2444C459.439 97.2444 462.098 95.0355 463.06 94.2371C463.104 94.2008 463.144 94.1673 463.181 94.1372Z" fill="white"/>
<path fill-rule="evenodd" clip-rule="evenodd" d="M147.036 87.1572C146.552 95.586 140.654 96.555 135.196 96.555C125.818 96.555 122.47 94.657 122.47 83.7977V79.7775H174.861V69.4707C174.861 69.1345 174.862 68.7897 174.863 68.437V68.4313C174.881 61.182 174.907 50.576 167.822 42.9068C160.847 35.3429 150.312 32.532 141.09 32.532L123.972 32.536C116.304 32.536 107.299 35.9315 102.902 38.4141C95.7465 42.4584 89.3438 49.1133 89.3438 72.5779C89.3438 105.653 98.5174 115.034 120.02 115.034H149.178C162.28 115.034 173.748 105.609 174.761 87.1572H147.036ZM125.317 51.0113C127.163 49.1133 130.171 48.2524 132.857 48.2524C135.536 48.2524 139.388 49.1133 141.226 51.3517C143.729 54.1146 143.729 59.6404 143.729 62.0549V66.6557H122.47V61.7065C122.47 61.5513 122.47 61.3933 122.47 61.2329C122.462 58.0091 122.453 53.8035 125.317 51.0113Z" fill="white"/>
<path d="M592.488 113.359H608.998V96.353H592.488V113.359Z" fill="white"/>
</svg>
