<svg width="156" height="140" viewBox="0 0 156 140" fill="none" xmlns="http://www.w3.org/2000/svg">
<path fill-rule="evenodd" clip-rule="evenodd" d="M33.0106 87.6282C16.1493 90.2026 1.94471 76.1569 6.53737 59.3309C6.97912 57.7122 7.57652 56.5364 8.12607 55.4549C9.02589 53.6838 9.7974 52.1654 9.54716 49.3689C9.44125 48.1879 9.30896 47.1638 9.18735 46.2224L9.18733 46.2223L9.18732 46.2222C8.77179 43.0055 8.48105 40.7549 9.7943 36.5147C13.2041 25.4947 20.5694 23.5866 26.3203 22.0968C29.2781 21.3306 31.8088 20.675 33.1548 18.9473C33.9728 17.8978 34.5426 17.0364 35.0529 16.2651L35.053 16.2649L35.053 16.2649C36.1833 14.5563 37.0211 13.2899 39.6157 11.4008C45.091 7.41123 55.1442 5.62536 62.4436 9.40305C63.6787 10.0422 64.5753 10.7033 65.3308 11.2605C67.246 12.6727 68.2551 13.4167 71.576 11.4419C82.1558 5.15462 89.77 3.07749 103.145 13.0366C100.668 13.6838 90.4114 19.0179 93.9714 22.8633C95.4384 24.4473 97.698 23.2546 100.78 21.628C105.905 18.9223 113.306 15.016 123.116 20.692C133.392 26.6354 133.556 32.1765 133.924 44.6291C133.955 45.6887 133.988 46.7984 134.028 47.9625L134.073 47.9871C140.82 51.7467 145.908 54.5812 148.345 63.5381C153.017 80.7319 135.791 96.0545 119.2 89.6465C115.362 88.164 112.693 85.262 110.428 82.7996C108.804 81.0344 107.388 79.4951 105.898 78.8664C104.299 78.1915 102.614 79.6526 102.659 81.3881C102.768 85.6106 107.71 89.7424 110.25 91.553C113.403 93.802 116.595 94.7879 119.39 95.6513C121.433 96.2823 123.264 96.8479 124.714 97.7933C120.517 107.428 112.997 108.945 108.177 109.918C107.15 110.125 106.246 110.308 105.522 110.539C101.333 111.877 101.623 115.694 101.96 120.121C102.166 122.821 102.388 125.747 101.624 128.477C100.321 133.125 93.9685 134.643 90.4497 130.318C88.4323 127.839 86.6771 123.964 84.8627 119.958L84.8627 119.958C82.7236 115.235 80.5023 110.33 77.672 107.317C75.2462 107.344 73.4159 108.139 71.4591 108.989C68.3418 110.344 64.9033 111.838 58.2246 110.589C41.4074 107.443 34.7229 86.9663 44.7261 74.4593C47.4682 71.0288 50.0779 65.3917 43.5287 67.2275C41.3751 67.8307 38.7036 72.2262 37.565 74.3181C36.54 76.204 35.9047 78.6696 35.2841 81.0785C34.647 83.5509 34.0254 85.9636 33.0135 87.6282H33.0106ZM108.809 11.9362L108.807 11.9333C130.398 11.6954 140.31 23.1226 140.43 44.4496C163.812 58.6042 156.686 88.199 137.397 95.2013C131.175 97.4609 130.135 99.8967 128.962 102.645C127.302 106.535 125.375 111.051 108.111 116.582C108.089 117.752 108.101 118.958 108.114 120.173C108.165 125.121 108.218 130.227 105.911 133.696C103.068 137.965 97.4549 140.236 91.4824 138.353C86.2001 136.687 83.5959 131.079 80.8574 125.181C79.1772 121.563 77.4464 117.836 75.0153 114.843C73.9596 115.056 72.9499 115.269 71.9781 115.474C62.8881 117.392 57.1041 118.612 47.8624 112.948C40.7029 108.561 39.544 105.938 37.3558 100.984C36.5209 99.094 35.5361 96.8646 34.0109 94.0685C13.3131 94.0803 -0.685546 85.0627 0.0264483 63.7588C0.16014 59.7689 1.01517 57.444 1.79579 55.3214C2.33795 53.8472 2.84422 52.4706 3.04801 50.7016C3.14166 49.8856 3.1102 48.7184 3.07189 47.2966C2.87068 39.8297 2.48028 25.3426 19.0296 17.844C21.3331 16.7999 22.9317 16.4639 24.2387 16.1892C26.3239 15.7508 27.6673 15.4684 29.9478 12.7159C38.6095 2.25663 50.7722 -2.53903 64.2501 3.63355C68.8061 5.71905 69.1012 5.53725 71.1975 4.24586C71.9847 3.76096 73.0257 3.11963 74.6416 2.38315C86.9886 -3.2446 102.857 1.56432 108.807 11.9333L108.806 11.9333L108.809 11.9362ZM69.1311 53.7379C69.7864 53.6246 70.1482 52.3191 70.6032 50.6769C71.3411 48.0138 72.3245 44.465 75.2036 43.6788C80.9554 42.1077 85.0009 45.9295 83.8829 51.5254C83.1849 55.0217 81.3687 55.67 79.3227 56.4003C77.7807 56.9507 76.1083 57.5477 74.6858 59.4456C72.408 62.4861 72.4721 68.2045 73.5129 72.1242C73.7992 73.2025 74.6464 74.0444 75.7231 74.3365C81.595 75.9292 81.8234 71.7143 82.167 65.3734L82.1882 64.9827C96.481 59.5192 96.8782 41.3692 84.1947 35.5526C65.6358 27.0411 52.3256 56.4447 69.1311 53.7409V53.7379ZM99.1222 68.6474C99.1217 68.647 99.1214 68.6464 99.1213 68.6459C99.1212 68.6451 99.1214 68.6444 99.122 68.6438L99.1226 68.6428C99.1227 68.6424 99.1227 68.642 99.1226 68.6415L99.1225 68.6412C94.865 56.9999 120.41 47.2157 128.671 58.26C130.954 61.3139 129.189 64.5796 125.049 62.9115C125.003 62.893 124.884 62.8188 124.7 62.704C122.715 61.465 113.159 55.5021 106.252 64.003C105.374 65.0835 104.699 66.1063 104.122 66.9797L104.122 66.9799C102.469 69.4851 101.627 70.7615 99.1222 68.6474ZM24.1931 49.7866C26.7564 50.9595 28.3495 49.9101 30.274 48.6424C32.5883 47.118 35.382 45.2778 40.919 46.6062C42.8643 47.0739 44.1876 48.0338 45.3443 48.873C46.378 49.6229 47.2787 50.2763 48.3714 50.3957C51.9755 50.7928 52.4845 47.8213 50.5839 45.3382C43.6081 36.2323 20.0476 40.4925 24.1931 49.7837V49.7866ZM75.4598 89.7021C74.7798 89.5261 74.1935 89.063 73.8883 88.4304C71.1139 82.6796 76.4501 79.5563 80.3435 82.403C83.2483 84.5246 83.0233 91.659 75.4598 89.7021Z" fill="#2B2B2B"/>
</svg>
