<svg width="48" height="40" viewBox="0 0 48 40" fill="none" xmlns="http://www.w3.org/2000/svg">
<path d="M16.5832 37.5729C10.4738 43.5489 -1.58347 36.8978 0.172958 23.3093C1.30121 14.5807 6.94344 6.92954 17.0997 0.355915C17.8676 -0.14113 18.4365 -0.170246 19.0303 0.607579L20.3975 2.39839C20.7507 2.86118 20.6111 3.47123 20.2443 3.78562C14.715 7.36326 8.42131 15.0454 7.94943 17.8161C7.63883 19.6398 8.70457 19.9503 10.7307 20.5407C11.783 20.8474 13.0944 21.2295 14.6066 21.9382C19.0303 24.0117 22.6925 31.5969 16.5832 37.5729Z" fill="#333333"/>
<path d="M43.3213 37.5729C37.212 43.5489 25.1546 36.8978 26.911 23.3093C28.0393 14.5807 33.6816 6.92954 43.8377 0.355915C44.6058 -0.14113 45.1746 -0.170246 45.7684 0.607579L47.1354 2.39839C47.4888 2.86118 47.3492 3.47123 46.9824 3.78562C41.4531 7.36326 35.1594 15.0454 34.6875 17.8161C34.3768 19.6398 35.4426 19.9503 37.4688 20.5407C38.5211 20.8473 39.8325 21.2295 41.3447 21.9382C45.7684 24.0117 49.4306 31.5969 43.3213 37.5729Z" fill="#333333"/>
</svg>
