<svg width="281.000000" height="211.000000" viewBox="0 0 281 211" fill="none" xmlns="http://www.w3.org/2000/svg" xmlns:xlink="http://www.w3.org/1999/xlink">
	<desc>
			Created with Pixso.
	</desc>
	<defs>
		<clipPath id="clip41_334">
			<rect id="01" width="281.000000" height="211.000000" fill="white" fill-opacity="0"/>
		</clipPath>
	</defs>
	<rect id="01" width="281.000000" height="211.000000" fill="#FFFFFF" fill-opacity="0"/>
	<g clip-path="url(#clip41_334)">
		<g opacity="0.500000">
			<path id="01" d="M139.9 173.59Q120.65 189.1 93.24 189.1Q65.9 189.1 46.51 173.59Q27.11 158.09 18.66 135.24Q10.21 112.39 10.21 85.27Q10.21 58.16 18.66 35.31Q27.11 12.46 46.51 -2.9Q65.9 -18.26 93.24 -18.26Q120.65 -18.26 139.9 -2.9Q159.22 12.46 167.74 35.31Q176.34 58.16 176.34 85.27Q176.34 112.39 167.74 135.24Q159.22 158.09 139.9 173.59ZM63.19 133.18Q72.81 151.18 93.24 151.18Q113.74 151.18 123.22 133.18Q132.7 115.1 132.7 85.35Q132.7 55.51 123.22 37.59Q113.74 19.66 93.24 19.66Q72.81 19.66 63.19 37.59Q53.56 55.51 53.56 85.35Q53.56 115.1 63.19 133.18ZM290.42 185.5L247.65 185.5L247.65 39.86L214.29 73.81L189.9 48.24L253.09 -15.24L290.42 -15.24L290.42 185.5Z" stroke="#FFFFFF" stroke-opacity="1.000000" stroke-width="1.000000"/>
		</g>
	</g>
</svg>
