<svg width="297.000000" height="211.000000" viewBox="0 0 297 211" fill="none" xmlns="http://www.w3.org/2000/svg" xmlns:xlink="http://www.w3.org/1999/xlink">
	<desc>
			Created with Pixso.
	</desc>
	<defs>
		<clipPath id="clip41_336">
			<rect id="02" width="297.000000" height="211.000000" fill="white" fill-opacity="0"/>
		</clipPath>
	</defs>
	<rect id="02" width="297.000000" height="211.000000" fill="#FFFFFF" fill-opacity="0"/>
	<g clip-path="url(#clip41_336)">
		<g opacity="0.500000">
			<path id="02" d="M139.9 173.59Q120.65 189.1 93.24 189.1Q65.9 189.1 46.51 173.59Q27.11 158.09 18.66 135.24Q10.21 112.39 10.21 85.27Q10.21 58.16 18.66 35.31Q27.11 12.46 46.51 -2.9Q65.9 -18.26 93.24 -18.26Q120.65 -18.26 139.9 -2.9Q159.22 12.46 167.74 35.31Q176.34 58.16 176.34 85.27Q176.34 112.39 167.74 135.24Q159.22 158.09 139.9 173.59ZM63.19 133.18Q72.81 151.18 93.24 151.18Q113.74 151.18 123.22 133.18Q132.7 115.1 132.7 85.35Q132.7 55.51 123.22 37.59Q113.74 19.66 93.24 19.66Q72.81 19.66 63.19 37.59Q53.56 55.51 53.56 85.35Q53.56 115.1 63.19 133.18ZM351.84 185.5L200.77 185.5L200.77 152.06Q265.14 104.23 286.01 83.95Q306.95 63.6 306.95 45.81Q306.95 33.54 297.32 26.64Q287.7 19.66 274.47 19.66Q242.88 19.66 220.61 42.8L196.22 14.51Q210.4 -1.73 230.97 -9.95Q251.62 -18.26 273.59 -18.26Q306.65 -18.26 328.48 -0.77Q350.3 16.64 350.3 45.81Q350.3 70.5 330.9 94.16Q311.5 117.75 269.99 147.88L351.84 147.88L351.84 185.5Z" stroke="#FFFFFF" stroke-opacity="1.000000" stroke-width="1.000000"/>
		</g>
	</g>
</svg>
