<svg width="297.000000" height="211.000000" viewBox="0 0 297 211" fill="none" xmlns="http://www.w3.org/2000/svg" xmlns:xlink="http://www.w3.org/1999/xlink">
	<desc>
			Created with Pixso.
	</desc>
	<defs>
		<clipPath id="clip41_338">
			<rect id="03" width="297.000000" height="211.000000" fill="white" fill-opacity="0"/>
		</clipPath>
	</defs>
	<rect id="03" width="297.000000" height="211.000000" fill="#FFFFFF" fill-opacity="0"/>
	<g clip-path="url(#clip41_338)">
		<g opacity="0.500000">
			<path id="03" d="M139.9 173.59Q120.65 189.1 93.24 189.1Q65.9 189.1 46.51 173.59Q27.11 158.09 18.66 135.24Q10.21 112.39 10.21 85.27Q10.21 58.16 18.66 35.31Q27.11 12.46 46.51 -2.9Q65.9 -18.26 93.24 -18.26Q120.65 -18.26 139.9 -2.9Q159.22 12.46 167.74 35.31Q176.34 58.16 176.34 85.27Q176.34 112.39 167.74 135.24Q159.22 158.09 139.9 173.59ZM63.19 133.18Q72.81 151.18 93.24 151.18Q113.74 151.18 123.22 133.18Q132.7 115.1 132.7 85.35Q132.7 55.51 123.22 37.59Q113.74 19.66 93.24 19.66Q72.81 19.66 63.19 37.59Q53.56 55.51 53.56 85.35Q53.56 115.1 63.19 133.18ZM271.75 189.1Q245.3 189.1 224.8 180.21Q204.37 171.31 192.62 156.91L214.88 128.33Q225.09 138.84 240.16 145.01Q255.22 151.18 270.28 151.18Q288.29 151.18 298.2 144.13Q308.2 137.07 308.2 125.61Q308.2 113.56 298.57 108.05Q288.95 102.47 267.86 102.47Q248.9 102.47 242.88 103.05L242.88 64.48Q246.48 64.85 267.86 64.85Q304.89 64.85 304.89 43.46Q304.89 32 294.46 25.83Q284.1 19.66 267.56 19.66Q238.39 19.66 216.72 40.45L195.34 13.63Q223.63 -18.26 272.05 -18.26Q307.24 -18.26 327.52 -3.49Q347.88 11.21 347.88 36.19Q347.88 54.26 334.94 66.46Q322.01 78.66 303.94 81.97Q321.72 83.8 336.27 96.59Q350.89 109.37 350.89 130.09Q350.89 156.33 329.21 172.71Q307.61 189.1 271.75 189.1Z" stroke="#FFFFFF" stroke-opacity="1.000000" stroke-width="1.000000"/>
		</g>
	</g>
</svg>
