<svg width="1180.000000" height="510.000000" viewBox="0 0 1180 510" fill="none" xmlns="http://www.w3.org/2000/svg" xmlns:xlink="http://www.w3.org/1999/xlink">
	<desc>
			Created with Pixso.
	</desc>
	<defs>
		<clipPath id="clip46_44">
			<rect id="2024" width="1180.000000" height="510.000000" fill="white" fill-opacity="0"/>
		</clipPath>
	</defs>
	<rect id="2024" width="1180.000000" height="510.000000" fill="#FFFFFF" fill-opacity="0"/>
	<g clip-path="url(#clip46_44)">
		<path id="Rectangle 532" d="M921 0L1159 0C1170.6 0 1180 9.4 1180 21L1180 110L921 110C909.4 110 900 100.59 900 89L900 21C900 9.4 909.4 0 921 0Z" fill="#D0D1D4" fill-opacity="1.000000" fill-rule="evenodd"/>
		<path id="2024" d="M951.71 79.5L988.36 79.5L988.36 70.37L968.5 70.37Q978.57 63.06 983.28 57.34Q987.67 51.99 987.96 46.42Q987.98 46.02 987.98 45.62Q987.98 41.67 986.33 38.61Q985.03 36.18 982.69 34.32Q981.95 33.72 981.15 33.21Q976.27 30.07 969.38 30.07Q967.19 30.07 965.05 30.42Q961.99 30.9 959.04 32.09Q955.92 33.34 953.41 35.34Q951.9 36.55 950.61 38.02L956.53 44.89Q959.37 41.93 962.84 40.53Q965.96 39.27 969.59 39.27Q972.07 39.27 974.02 40.28Q974.6 40.58 975.13 40.96Q976.2 41.73 976.78 42.77Q977.47 44 977.47 45.62Q977.47 49.93 972.39 54.87Q967.33 59.78 951.71 71.39L951.71 79.5ZM1023.33 78.37Q1024.74 77.63 1026.01 76.61Q1028.62 74.52 1030.41 71.88Q1031.85 69.77 1032.77 67.31Q1034.85 61.76 1034.85 55.19Q1034.85 48.61 1032.77 43.07Q1031.81 40.53 1030.31 38.37Q1028.55 35.82 1026.01 33.8Q1024.8 32.83 1023.44 32.11Q1019.61 30.07 1014.7 30.07Q1009.88 30.07 1006.08 32.04Q1004.65 32.78 1003.36 33.8Q1000.76 35.86 998.97 38.47Q997.52 40.59 996.6 43.07Q994.55 48.61 994.55 55.19Q994.55 61.76 996.6 67.31Q997.49 69.71 998.88 71.78Q1000.7 74.48 1003.36 76.61Q1004.7 77.68 1006.2 78.45Q1009.96 80.37 1014.7 80.37Q1019.54 80.37 1023.33 78.37ZM1040.78 79.5L1077.42 79.5L1077.42 70.37L1057.56 70.37Q1067.64 63.06 1072.34 57.34Q1076.73 51.99 1077.03 46.42Q1077.05 46.02 1077.05 45.62Q1077.05 41.67 1075.4 38.61Q1074.09 36.18 1071.75 34.32Q1071.01 33.72 1070.22 33.21Q1065.34 30.07 1058.43 30.07Q1056.25 30.07 1054.11 30.42Q1051.05 30.9 1048.1 32.09Q1044.99 33.34 1042.47 35.34Q1040.96 36.55 1039.67 38.02L1045.59 44.89Q1048.43 41.93 1051.91 40.53Q1055.03 39.27 1058.65 39.27Q1061.13 39.27 1063.09 40.28Q1063.67 40.58 1064.19 40.96Q1065.27 41.73 1065.85 42.77Q1066.53 44 1066.53 45.62Q1066.53 49.93 1061.44 54.87Q1056.39 59.78 1040.78 71.39L1040.78 79.5ZM1106.25 79.5L1116.62 79.5L1116.62 69.43L1122.9 69.43L1122.9 60.3L1116.62 60.3L1116.62 30.81L1102.31 30.81L1082.96 61.25L1082.96 69.43L1106.25 69.43L1106.25 79.5ZM1010.39 70.08Q1008.57 68.99 1007.41 66.81Q1005.07 62.42 1005.07 55.2Q1005.07 47.97 1007.41 43.62Q1008.57 41.46 1010.37 40.37Q1012.2 39.27 1014.7 39.27Q1017.23 39.27 1019.07 40.4Q1020.84 41.49 1021.97 43.62Q1024.27 47.97 1024.27 55.2Q1024.27 62.42 1021.97 66.81Q1020.83 68.96 1019.05 70.05Q1017.22 71.17 1014.7 71.17Q1012.22 71.17 1010.39 70.08ZM1106.25 40L1106.25 60.3L1093.12 60.3L1106.25 40Z" fill="#F3F4F8" fill-opacity="1.000000" fill-rule="evenodd"/>
		<path id="Rectangle 533" d="M21 130L559 130C570.59 130 580 139.4 580 151L580 310L21 310C9.4 310 0 300.59 0 289L0 151C0 139.4 9.4 130 21 130Z" fill="#0081C9" fill-opacity="1.000000" fill-rule="evenodd"/>
		<path id="Rectangle 534" d="M621 130L1159 130C1170.6 130 1180 139.4 1180 151L1180 310L621 310C609.4 310 600 300.59 600 289L600 151C600 139.4 609.4 130 621 130Z" fill="#0081C9" fill-opacity="1.000000" fill-rule="evenodd"/>
		<path id="Rectangle 536" d="M21 330L559 330C570.59 330 580 339.4 580 351L580 510L21 510C9.4 510 0 500.6 0 489L0 351C0 339.4 9.4 330 21 330Z" fill="#0081C9" fill-opacity="1.000000" fill-rule="evenodd"/>
		<path id="Rectangle 537" d="M621 330L1159 330C1170.6 330 1180 339.4 1180 351L1180 510L621 510C609.4 510 600 500.6 600 489L600 351C600 339.4 609.4 330 621 330Z" fill="#0081C9" fill-opacity="1.000000" fill-rule="evenodd"/>
		<path id="205" d="M40.8 279.5L92 279.5L92 266.75L64.26 266.75Q78.33 256.54 84.9 248.54Q91.03 241.06 91.45 233.28Q91.48 232.72 91.48 232.16Q91.48 226.64 89.17 222.36Q87.35 218.98 84.08 216.37Q83.05 215.54 81.94 214.83Q75.12 210.44 65.48 210.44Q62.42 210.44 59.43 210.92Q55.16 211.6 51.04 213.26Q46.68 215 43.17 217.8Q41.06 219.48 39.26 221.55L47.52 231.14Q51.5 227.01 56.35 225.05Q60.71 223.29 65.78 223.29Q69.24 223.29 71.97 224.7Q72.78 225.12 73.52 225.66Q75.02 226.73 75.83 228.18Q76.79 229.9 76.79 232.16Q76.79 238.18 69.69 245.08Q62.62 251.96 40.8 268.17L40.8 279.5ZM140.86 277.93Q142.84 276.89 144.61 275.46Q148.25 272.54 150.76 268.86Q152.76 265.91 154.05 262.46Q156.96 254.72 156.96 245.53Q156.96 236.34 154.05 228.6Q152.72 225.05 150.63 222.03Q148.16 218.47 144.61 215.65Q142.91 214.29 141.02 213.29Q135.66 210.44 128.8 210.44Q122.07 210.44 116.76 213.19Q114.76 214.22 112.96 215.65Q109.33 218.52 106.83 222.18Q104.8 225.13 103.52 228.6Q100.66 236.34 100.66 245.53Q100.66 254.72 103.52 262.46Q104.76 265.82 106.7 268.71Q109.24 272.49 112.96 275.46Q114.83 276.96 116.92 278.03Q122.17 280.72 128.8 280.72Q135.56 280.72 140.86 277.93ZM169.81 274.43Q178.43 280.72 191.64 280.72Q203.2 280.72 210.47 275.13Q210.96 274.75 211.44 274.34Q214.13 272.03 215.85 269.15Q218.88 264.06 218.88 257.16Q218.88 250.15 215.74 245.09Q214.41 242.94 212.51 241.15Q209.73 238.52 206.44 237.04Q202.18 235.12 197.04 235.12Q190.34 235.12 185.5 238.12Q183.64 239.26 182.05 240.85L182.05 224.21L214.3 224.21L214.3 211.46L167.58 211.46L167.58 250.54L177.67 253.18Q180 250.97 182.75 249.65Q186.88 247.67 191.96 247.67Q197.66 247.67 200.93 250.44Q202.2 251.51 202.98 252.86Q204.19 254.98 204.19 257.78Q204.19 259.64 203.55 261.24Q202.71 263.33 200.78 264.98Q200.75 265 200.73 265.02Q197.32 267.87 191.54 267.87Q185.11 267.87 179.99 265.28Q176.42 263.48 173.48 260.42L165.44 270.53Q167.45 272.72 169.81 274.43ZM122.78 266.34Q120.24 264.81 118.61 261.77Q115.35 255.64 115.35 245.56Q115.35 235.45 118.61 229.37Q120.23 226.35 122.75 224.83Q125.31 223.29 128.8 223.29Q132.34 223.29 134.91 224.87Q137.38 226.39 138.96 229.37Q142.17 235.45 142.17 245.56Q142.17 255.64 138.96 261.77Q137.37 264.77 134.88 266.3Q132.32 267.87 128.8 267.87Q125.33 267.87 122.78 266.34Z" fill="#FFFFFF" fill-opacity="1.000000" fill-rule="evenodd"/>
		<path id="667" d="M52.48 475.63Q59.25 480.72 69.84 480.72Q79.01 480.72 85.46 476.53Q87.12 475.45 88.59 474.09Q91.89 471.08 93.69 467.35Q95.84 462.87 95.84 457.36Q95.84 449.88 92.36 444.75Q91 442.74 89.12 441.1Q86.85 439.12 84.24 437.8Q79.12 435.22 72.71 435.22Q70.65 435.22 68.67 435.61Q65.54 436.21 62.59 437.79Q57.81 440.33 55.25 444.01Q55.15 443.49 55.15 442.57Q55.15 436.76 57.58 432.27Q58.56 430.46 59.93 428.87Q62.26 426.17 65.2 424.78Q68.34 423.29 72.18 423.29Q76.64 423.29 80.35 424.95Q83.28 426.26 85.75 428.6L92.28 417.49Q89.6 415.2 86.54 413.66Q80.17 410.44 72.18 410.44Q61.84 410.44 54.59 415.18Q51.47 417.21 48.92 420.13Q47.97 421.23 47.12 422.4Q40.46 431.6 40.46 445.63Q40.46 461.14 47.8 470.93Q49.85 473.66 52.48 475.63ZM114.49 475.63Q121.27 480.72 131.86 480.72Q141.03 480.72 147.48 476.53Q149.13 475.45 150.61 474.09Q153.91 471.08 155.7 467.35Q157.86 462.87 157.86 457.36Q157.86 449.88 154.38 444.75Q153.02 442.74 151.13 441.1Q148.86 439.12 146.26 437.8Q141.14 435.22 134.72 435.22Q132.67 435.22 130.69 435.61Q127.56 436.21 124.61 437.79Q119.83 440.33 117.26 444.01Q117.17 443.49 117.17 442.57Q117.17 436.76 119.6 432.27Q120.58 430.46 121.95 428.87Q124.27 426.17 127.22 424.78Q130.36 423.29 134.2 423.29Q138.65 423.29 142.37 424.95Q145.3 426.26 147.77 428.6L154.29 417.49Q151.61 415.2 148.56 413.66Q142.19 410.44 134.2 410.44Q123.86 410.44 116.61 415.18Q113.49 417.21 110.94 420.13Q109.98 421.23 109.13 422.4Q102.47 431.6 102.47 445.63Q102.47 461.14 109.82 470.93Q111.87 473.66 114.49 475.63ZM173.38 479.5L189.29 479.5L214.57 421.55L214.57 411.46L163.47 411.46L163.47 424.21L197.76 424.21L173.38 479.5ZM76.79 465.65Q73.7 467.87 69.02 467.87Q63.9 467.87 60.72 465.38Q59.86 464.7 59.13 463.83Q58.26 462.79 57.58 461.63Q55.64 458.32 55.25 454.1Q57.83 450.85 61.2 449.24Q64.49 447.67 68.52 447.67Q73.37 447.67 76.84 449.86Q77.17 450.06 77.49 450.29Q78.88 451.26 79.74 452.59Q81.17 454.77 81.17 457.88Q81.17 458.89 80.94 459.85Q80.3 462.54 77.83 464.81Q77.34 465.26 76.79 465.65ZM138.81 465.65Q135.72 467.87 131.03 467.87Q125.91 467.87 122.74 465.38Q121.87 464.7 121.15 463.83Q120.28 462.79 119.6 461.63Q117.65 458.32 117.26 454.1Q119.85 450.85 123.22 449.24Q126.5 447.67 130.54 447.67Q135.39 447.67 138.86 449.86Q139.19 450.06 139.5 450.29Q140.89 451.26 141.76 452.59Q143.19 454.77 143.19 457.88Q143.19 458.89 142.96 459.85Q142.32 462.54 139.85 464.81Q139.36 465.26 138.81 465.65Z" fill="#FFFFFF" fill-opacity="1.000000" fill-rule="evenodd"/>
		<path id="2692" d="M770.03 476.53Q776.79 480.62 786.03 480.62Q796.4 480.62 803.64 475.85Q806.73 473.83 809.24 470.93Q810.22 469.8 811.08 468.6Q817.66 459.42 817.66 445.53Q817.66 435.54 814.74 427.85Q813.43 424.34 811.31 421.41Q808.76 417.91 805.06 415.25Q804.49 414.84 803.91 414.47Q797.46 410.34 788.37 410.34Q779.33 410.34 772.88 414.44Q771.13 415.55 769.57 416.97Q766.21 420.02 764.39 423.82Q762.27 428.25 762.27 433.7Q762.27 441.1 765.69 446.2Q767.09 448.29 769.05 449.99Q771.38 452 774.05 453.31Q779.17 455.84 785.53 455.84Q787.72 455.84 789.82 455.41Q792.81 454.79 795.62 453.3Q800.42 450.74 803.06 447.05L803.06 448.59Q803.06 453.88 801.01 458.18Q800.01 460.26 798.53 462.12Q796.84 464.23 794.66 465.56Q791.02 467.77 786.03 467.77Q781.67 467.77 778 466.17Q775 464.86 772.46 462.46L766.03 473.57Q767.91 475.25 770.03 476.53ZM640.8 479.5L692 479.5L692 466.75L664.26 466.75Q678.33 456.54 684.9 448.54Q691.04 441.06 691.45 433.28Q691.48 432.72 691.48 432.16Q691.48 426.64 689.17 422.36Q687.35 418.98 684.08 416.37Q683.05 415.54 681.94 414.83Q675.12 410.44 665.48 410.44Q662.42 410.44 659.43 410.92Q655.16 411.6 651.04 413.26Q646.68 415 643.17 417.8Q641.06 419.48 639.26 421.55L647.53 431.14Q651.5 427.01 656.35 425.05Q660.71 423.29 665.78 423.29Q669.24 423.29 671.97 424.7Q672.78 425.12 673.52 425.66Q675.02 426.73 675.83 428.18Q676.79 429.9 676.79 432.16Q676.79 438.18 669.69 445.08Q662.62 451.96 640.8 468.17L640.8 479.5ZM712.68 475.63Q719.45 480.72 730.04 480.72Q739.21 480.72 745.66 476.53Q747.32 475.45 748.79 474.09Q752.09 471.08 753.89 467.35Q756.04 462.87 756.04 457.36Q756.04 449.88 752.56 444.75Q751.21 442.74 749.32 441.1Q747.05 439.12 744.44 437.8Q739.32 435.22 732.91 435.22Q730.85 435.22 728.88 435.61Q725.74 436.21 722.8 437.79Q718.01 440.33 715.45 444.01Q715.35 443.49 715.35 442.57Q715.35 436.76 717.78 432.27Q718.76 430.46 720.13 428.87Q722.46 426.17 725.4 424.78Q728.54 423.29 732.38 423.29Q736.84 423.29 740.55 424.95Q743.48 426.26 745.95 428.6L752.48 417.49Q749.8 415.2 746.74 413.66Q740.37 410.44 732.38 410.44Q722.04 410.44 714.79 415.18Q711.67 417.21 709.12 420.13Q708.17 421.23 707.32 422.4Q700.66 431.6 700.66 445.63Q700.66 461.14 708 470.93Q710.05 473.66 712.68 475.63ZM826.03 479.5L877.23 479.5L877.23 466.75L849.49 466.75Q863.56 456.54 870.14 448.54Q876.27 441.06 876.68 433.28Q876.71 432.72 876.71 432.16Q876.71 426.64 874.41 422.36Q872.58 418.98 869.31 416.37Q868.28 415.54 867.17 414.83Q860.35 410.44 850.71 410.44Q847.65 410.44 844.67 410.92Q840.39 411.6 836.27 413.26Q831.91 415 828.4 417.8Q826.29 419.48 824.49 421.55L832.76 431.14Q836.73 427.01 841.58 425.05Q845.94 423.29 851.01 423.29Q854.47 423.29 857.2 424.7Q858.01 425.12 858.76 425.66Q860.25 426.73 861.06 428.18Q862.02 429.9 862.02 432.16Q862.02 438.18 854.92 445.08Q847.85 451.96 826.03 468.17L826.03 479.5ZM796.92 441.86Q793.62 443.39 789.62 443.39Q785.05 443.39 781.66 441.4Q781.18 441.12 780.73 440.8Q779.36 439.82 778.5 438.51Q777.07 436.31 777.07 433.18Q777.07 432.13 777.31 431.13Q777.96 428.48 780.33 426.26Q780.8 425.82 781.31 425.44Q784.38 423.19 789.09 423.19Q794.33 423.19 797.53 425.75Q798.38 426.42 799.08 427.28Q800.06 428.46 800.8 429.78Q802.61 433.01 802.96 437.06Q800.32 440.28 796.92 441.86ZM736.99 465.65Q733.9 467.87 729.22 467.87Q724.1 467.87 720.92 465.38Q720.06 464.7 719.33 463.83Q718.46 462.79 717.78 461.63Q715.84 458.32 715.45 454.1Q718.03 450.85 721.4 449.24Q724.69 447.67 728.72 447.67Q733.57 447.67 737.04 449.86Q737.37 450.06 737.69 450.29Q739.08 451.26 739.94 452.59Q741.37 454.77 741.37 457.88Q741.37 458.89 741.14 459.85Q740.5 462.54 738.04 464.81Q737.54 465.26 736.99 465.65Z" fill="#FFFFFF" fill-opacity="1.000000" fill-rule="evenodd"/>
		<path id="433" d="M710.84 276.7Q717.79 279.72 726.75 279.72Q738.9 279.72 746.22 274.16Q750.22 271.14 752.05 267.13Q753.57 263.77 753.57 259.72Q753.57 255.55 751.82 252.33Q750.63 250.12 748.62 248.37Q745.1 245.28 741.03 244.07Q739.39 243.59 737.66 243.41Q741.35 242.73 744.41 240.97Q746.43 239.8 748.17 238.16Q750.24 236.2 751.34 233.79Q752.55 231.12 752.55 227.9Q752.55 223.71 750.87 220.38Q749.14 216.97 745.65 214.45Q738.78 209.44 726.85 209.44Q715.6 209.44 707.56 214.52Q703.87 216.85 700.85 220.25L708.1 229.34Q712.16 225.45 716.99 223.7Q720.91 222.29 725.33 222.29Q730.93 222.29 734.45 224.38Q736.42 225.55 737.29 227.27Q737.98 228.64 737.98 230.36Q737.98 232.17 737.2 233.53Q734.84 237.61 725.43 237.61Q718.18 237.61 716.96 237.48L716.96 250.56Q719.01 250.36 725.43 250.36Q732.58 250.36 735.84 252.25Q737.2 253.03 738 254.2Q739.1 255.83 739.1 258.2Q739.1 259.85 738.5 261.23Q737.67 263.1 735.72 264.48Q732.35 266.87 726.25 266.87Q721.15 266.87 716.04 264.78Q710.94 262.68 707.48 259.12L699.93 268.81Q703.92 273.69 710.84 276.7ZM770.71 276.7Q777.66 279.72 786.63 279.72Q798.78 279.72 806.1 274.16Q810.1 271.14 811.92 267.13Q813.45 263.77 813.45 259.72Q813.45 255.55 811.7 252.33Q810.5 250.12 808.49 248.37Q804.97 245.28 800.9 244.07Q799.26 243.59 797.53 243.41Q801.22 242.73 804.28 240.97Q806.3 239.8 808.04 238.16Q810.12 236.2 811.21 233.79Q812.42 231.12 812.42 227.9Q812.42 223.71 810.74 220.38Q809.02 216.97 805.53 214.45Q798.65 209.44 786.72 209.44Q775.48 209.44 767.43 214.52Q763.74 216.85 760.73 220.25L767.97 229.34Q772.03 225.45 776.87 223.7Q780.78 222.29 785.21 222.29Q790.81 222.29 794.32 224.38Q796.29 225.55 797.16 227.27Q797.86 228.64 797.86 230.36Q797.86 232.17 797.07 233.53Q794.72 237.61 785.31 237.61Q778.06 237.61 776.84 237.48L776.84 250.56Q778.88 250.36 785.31 250.36Q792.45 250.36 795.71 252.25Q797.08 253.03 797.87 254.2Q798.98 255.83 798.98 258.2Q798.98 259.85 798.37 261.23Q797.54 263.1 795.59 264.48Q792.23 266.87 786.13 266.87Q781.02 266.87 775.92 264.78Q770.81 262.68 767.35 259.12L759.81 268.81Q763.79 273.69 770.71 276.7ZM672.08 278.5L686.58 278.5L686.58 264.43L695.34 264.43L695.34 251.68L686.58 251.68L686.58 210.46L666.58 210.46L639.53 253L639.53 264.43L672.08 264.43L672.08 278.5ZM672.08 223.31L672.08 251.68L653.73 251.68L672.08 223.31Z" fill="#FFFFFF" fill-opacity="1.000000" fill-rule="evenodd"/>
		<path id="тыс. тонн" d="M316.66 236.82Q319.94 238.68 324.27 238.68Q329.35 238.68 332.63 236.25Q334.06 235.19 335.15 233.67L330.42 229.27Q329.41 230.7 328.02 231.44Q326.53 232.24 324.61 232.24Q322.54 232.24 320.94 231.36Q320 230.85 319.22 230.02Q318.79 229.57 318.46 229.05Q317.15 227.06 317.15 224.21Q317.15 221.33 318.48 219.35Q318.81 218.85 319.22 218.42Q319.99 217.61 320.91 217.1Q322.52 216.22 324.61 216.22Q326.82 216.22 328.42 217.21Q329.58 217.93 330.42 219.18L335.15 214.74Q334.09 213.27 332.7 212.23Q329.4 209.77 324.27 209.77Q319.96 209.77 316.69 211.62Q315.12 212.51 313.78 213.82Q312.36 215.22 311.44 216.89Q309.67 220.06 309.67 224.21Q309.67 228.48 311.51 231.71Q312.42 233.3 313.78 234.64Q315.1 235.94 316.66 236.82ZM247.67 238L254.96 238L254.96 216.79L262.65 216.79L262.65 210.47L239.97 210.47L239.97 216.79L247.67 216.79L247.67 238ZM274.45 210.47L267.21 210.47L267.21 238L283.85 238Q287.45 238 289.82 236.29Q290.38 235.88 290.87 235.38Q291.98 234.24 292.6 232.88Q293.43 231.1 293.43 228.94Q293.43 226.45 292.4 224.51Q291.82 223.42 290.92 222.49Q290.6 222.16 290.24 221.87Q287.83 219.93 283.85 219.93L274.45 219.93L274.45 210.47ZM297.02 238L304.32 238L304.32 210.47L297.02 210.47L297.02 238ZM274.45 225.97L282.77 225.97Q284.03 225.97 284.86 226.58Q285 226.68 285.13 226.81Q285.47 227.12 285.68 227.51Q286.02 228.13 286.02 228.94Q286.02 229.73 285.69 230.35Q285.48 230.75 285.13 231.08Q285.02 231.19 284.89 231.28Q284.06 231.9 282.77 231.9L274.45 231.9L274.45 225.97ZM345.19 238.34Q346.09 238 346.83 237.26Q347.6 236.48 347.94 235.55Q348.21 234.83 348.21 234Q348.21 233.16 347.93 232.43Q347.59 231.51 346.83 230.76Q346.09 230.02 345.19 229.68Q344.44 229.4 343.59 229.4Q342.73 229.4 341.98 229.68Q341.09 230.02 340.34 230.76Q339.6 231.5 339.26 232.4Q338.98 233.15 338.98 234Q338.98 234.84 339.25 235.58Q339.59 236.5 340.34 237.26Q341.09 238 341.98 238.34Q342.73 238.62 343.59 238.62Q344.44 238.62 345.19 238.34ZM288.08 278.54Q289.44 277.69 290.57 276.49Q292.2 274.79 293.16 272.77Q294.57 269.82 294.57 266.21Q294.57 262.52 293.12 259.55Q292.16 257.59 290.57 255.94Q289.46 254.77 288.14 253.94Q284.74 251.77 279.97 251.77Q275.22 251.77 271.83 253.93Q270.51 254.77 269.39 255.94Q267.87 257.54 266.93 259.45Q265.44 262.46 265.44 266.21Q265.44 269.88 266.88 272.87Q267.83 274.83 269.39 276.49Q270.54 277.69 271.9 278.55Q275.26 280.68 279.97 280.68Q284.7 280.68 288.08 278.54ZM247.67 280L254.96 280L254.96 258.79L262.65 258.79L262.65 252.47L239.97 252.47L239.97 258.79L247.67 258.79L247.67 280ZM299.93 280L307.16 280L307.16 268.99L318.56 268.99L318.56 280L325.81 280L325.81 252.47L318.56 252.47L318.56 262.67L307.16 262.67L307.16 252.47L299.93 252.47L299.93 280ZM332.99 280L340.22 280L340.22 268.99L351.62 268.99L351.62 280L358.87 280L358.87 252.47L351.62 252.47L351.62 262.67L340.22 262.67L340.22 252.47L332.99 252.47L332.99 280ZM276.47 273.35Q275.56 272.81 274.85 271.94Q274.47 271.48 274.17 270.97Q272.97 268.94 272.97 266.21Q272.97 263.63 274.07 261.67Q274.41 261.07 274.85 260.53Q275.57 259.64 276.5 259.09Q277.98 258.22 279.97 258.22Q281.97 258.22 283.46 259.09Q284.4 259.64 285.13 260.53Q285.61 261.11 285.97 261.75Q287.04 263.68 287.04 266.21Q287.04 268.88 285.87 270.88Q285.55 271.44 285.13 271.94Q284.41 272.81 283.49 273.35Q281.99 274.24 279.97 274.24Q277.96 274.24 276.47 273.35Z" fill="#FFFFFF" fill-opacity="1.000000" fill-rule="evenodd"/>
		<path id="тыс. унций" d="M316.66 436.82Q319.94 438.68 324.27 438.68Q329.35 438.68 332.63 436.25Q334.06 435.19 335.15 433.67L330.42 429.27Q329.41 430.7 328.02 431.44Q326.53 432.24 324.61 432.24Q322.54 432.24 320.94 431.36Q320 430.85 319.22 430.02Q318.79 429.57 318.46 429.05Q317.15 427.06 317.15 424.21Q317.15 421.33 318.48 419.35Q318.81 418.85 319.22 418.42Q319.99 417.61 320.91 417.1Q322.52 416.22 324.61 416.22Q326.82 416.22 328.42 417.21Q329.58 417.93 330.42 419.18L335.15 414.74Q334.09 413.27 332.7 412.23Q329.4 409.78 324.27 409.78Q319.96 409.78 316.69 411.62Q315.12 412.51 313.78 413.83Q312.36 415.22 311.44 416.89Q309.67 420.06 309.67 424.21Q309.67 428.48 311.51 431.71Q312.42 433.3 313.78 434.64Q315.1 435.94 316.66 436.82ZM247.67 438L254.96 438L254.96 416.79L262.65 416.79L262.65 410.47L239.97 410.47L239.97 416.79L247.67 416.79L247.67 438ZM274.45 410.47L267.21 410.47L267.21 438L283.85 438Q287.45 438 289.82 436.29Q290.38 435.88 290.87 435.38Q291.98 434.24 292.6 432.88Q293.43 431.1 293.43 428.94Q293.43 426.45 292.4 424.51Q291.82 423.42 290.92 422.5Q290.6 422.16 290.24 421.88Q287.83 419.93 283.85 419.93L274.45 419.93L274.45 410.47ZM297.02 438L304.32 438L304.32 410.47L297.02 410.47L297.02 438ZM274.45 425.97L282.77 425.97Q284.03 425.97 284.86 426.58Q285 426.68 285.13 426.81Q285.47 427.12 285.68 427.51Q286.02 428.13 286.02 428.94Q286.02 429.73 285.69 430.35Q285.48 430.75 285.13 431.08Q285.02 431.19 284.89 431.28Q284.06 431.9 282.77 431.9L274.45 431.9L274.45 425.97ZM345.19 438.34Q346.09 438 346.83 437.26Q347.6 436.49 347.94 435.55Q348.21 434.83 348.21 434Q348.21 433.16 347.93 432.43Q347.59 431.52 346.83 430.76Q346.09 430.02 345.19 429.68Q344.44 429.4 343.59 429.4Q342.73 429.4 341.98 429.68Q341.09 430.02 340.34 430.76Q339.6 431.5 339.26 432.4Q338.98 433.15 338.98 434Q338.98 434.84 339.25 435.58Q339.59 436.5 340.34 437.26Q341.09 438 341.98 438.34Q342.73 438.62 343.59 438.62Q344.44 438.62 345.19 438.34ZM390.02 448.45Q392.49 447.2 394.33 444.72L391.12 442.03Q389.74 443.95 387.86 444.83Q386.28 445.57 384.35 445.57Q382.2 445.57 380.5 444.7Q378.77 443.81 377.5 442.03L374.31 444.72Q376.28 447.3 378.88 448.55Q381.33 449.73 384.35 449.73Q387.51 449.73 390.02 448.45ZM242.7 484.27L241.61 490.77Q243.21 491.17 245.2 491.17Q249.08 491.06 251.65 489.6Q254.22 488.15 255.64 484.51L268.58 452.47L260.77 452.47L253.59 471.62L246.4 452.47L238.65 452.47L249.82 480.4L248.81 482.74Q248.56 483.27 248.17 483.67Q247.1 484.73 244.98 484.73Q243.73 484.73 242.7 484.27ZM271.83 480L279.06 480L279.06 468.99L290.46 468.99L290.46 480L297.71 480L297.71 452.47L290.46 452.47L290.46 462.67L279.06 462.67L279.06 452.47L271.83 452.47L271.83 480ZM326.55 480L326.55 487.01L333.79 487.01L333.79 473.67L330.77 473.67L330.77 452.47L323.52 452.47L323.52 473.67L312.12 473.67L312.12 452.47L304.89 452.47L304.89 480L326.55 480ZM338.35 480L345.3 480L356.98 462.73L356.98 480L364.23 480L364.23 452.47L356.92 452.47L345.58 469.12L345.58 452.47L338.35 452.47L338.35 480ZM371.41 480L378.36 480L390.04 462.73L390.04 480L397.29 480L397.29 452.47L389.98 452.47L378.64 469.12L378.64 452.47L371.41 452.47L371.41 480Z" fill="#FFFFFF" fill-opacity="1.000000" fill-rule="evenodd"/>
		<path id="тыс. унций" d="M977.66 436.82Q980.94 438.68 985.27 438.68Q990.35 438.68 993.63 436.25Q995.06 435.19 996.15 433.67L991.42 429.27Q990.41 430.7 989.02 431.44Q987.53 432.24 985.61 432.24Q983.54 432.24 981.94 431.36Q981 430.85 980.22 430.02Q979.8 429.57 979.46 429.05Q978.15 427.06 978.15 424.21Q978.15 421.33 979.48 419.35Q979.81 418.85 980.22 418.42Q980.99 417.61 981.91 417.1Q983.52 416.22 985.61 416.22Q987.82 416.22 989.42 417.21Q990.58 417.93 991.42 419.18L996.15 414.74Q995.09 413.27 993.7 412.23Q990.4 409.78 985.27 409.78Q980.96 409.78 977.69 411.62Q976.12 412.51 974.78 413.83Q973.36 415.22 972.44 416.89Q970.67 420.06 970.67 424.21Q970.67 428.48 972.51 431.71Q973.42 433.3 974.78 434.64Q976.1 435.94 977.66 436.82ZM908.67 438L915.96 438L915.96 416.79L923.65 416.79L923.65 410.47L900.97 410.47L900.97 416.79L908.67 416.79L908.67 438ZM935.45 410.47L928.21 410.47L928.21 438L944.85 438Q948.45 438 950.82 436.29Q951.38 435.88 951.87 435.38Q952.98 434.24 953.6 432.88Q954.43 431.1 954.43 428.94Q954.43 426.45 953.4 424.51Q952.82 423.42 951.92 422.5Q951.6 422.16 951.24 421.88Q948.83 419.93 944.85 419.93L935.45 419.93L935.45 410.47ZM958.02 438L965.32 438L965.32 410.47L958.02 410.47L958.02 438ZM935.45 425.97L943.77 425.97Q945.03 425.97 945.86 426.58Q946 426.68 946.13 426.81Q946.47 427.12 946.68 427.51Q947.02 428.13 947.02 428.94Q947.02 429.73 946.69 430.35Q946.48 430.75 946.13 431.08Q946.02 431.19 945.89 431.28Q945.06 431.9 943.77 431.9L935.45 431.9L935.45 425.97ZM1006.19 438.34Q1007.09 438 1007.83 437.26Q1008.61 436.49 1008.95 435.55Q1009.21 434.83 1009.21 434Q1009.21 433.16 1008.94 432.43Q1008.6 431.52 1007.83 430.76Q1007.09 430.02 1006.19 429.68Q1005.45 429.4 1004.59 429.4Q1003.74 429.4 1002.99 429.68Q1002.09 430.02 1001.35 430.76Q1000.61 431.5 1000.27 432.4Q999.98 433.15 999.98 434Q999.98 434.84 1000.26 435.58Q1000.59 436.5 1001.35 437.26Q1002.09 438 1002.99 438.34Q1003.74 438.62 1004.59 438.62Q1005.45 438.62 1006.19 438.34ZM1051.03 448.45Q1053.49 447.2 1055.32 444.72L1052.13 442.03Q1050.74 443.95 1048.87 444.83Q1047.28 445.57 1045.35 445.57Q1043.19 445.57 1041.5 444.7Q1039.77 443.81 1038.51 442.03L1035.31 444.72Q1037.28 447.3 1039.89 448.55Q1042.34 449.73 1045.35 449.73Q1048.51 449.73 1051.03 448.45ZM903.7 484.27L902.61 490.77Q904.21 491.17 906.2 491.17Q910.08 491.06 912.65 489.6Q915.22 488.15 916.64 484.51L929.58 452.47L921.77 452.47L914.59 471.62L907.4 452.47L899.65 452.47L910.82 480.4L909.81 482.74Q909.56 483.27 909.17 483.67Q908.1 484.73 905.98 484.73Q904.73 484.73 903.7 484.27ZM932.83 480L940.06 480L940.06 468.99L951.46 468.99L951.46 480L958.71 480L958.71 452.47L951.46 452.47L951.46 462.67L940.06 462.67L940.06 452.47L932.83 452.47L932.83 480ZM987.55 480L987.55 487.01L994.79 487.01L994.79 473.67L991.77 473.67L991.77 452.47L984.52 452.47L984.52 473.67L973.12 473.67L973.12 452.47L965.89 452.47L965.89 480L987.55 480ZM999.35 480L1006.31 480L1017.98 462.73L1017.98 480L1025.23 480L1025.23 452.47L1017.93 452.47L1006.59 469.12L1006.59 452.47L999.35 452.47L999.35 480ZM1032.41 480L1039.37 480L1051.04 462.73L1051.04 480L1058.29 480L1058.29 452.47L1050.99 452.47L1039.65 469.12L1039.65 452.47L1032.41 452.47L1032.41 480Z" fill="#FFFFFF" fill-opacity="1.000000" fill-rule="evenodd"/>
		<path id="тыс. тонн" d="M908.66 235.82Q911.94 237.68 916.27 237.68Q921.35 237.68 924.63 235.25Q926.06 234.19 927.15 232.67L922.42 228.27Q921.41 229.7 920.02 230.44Q918.53 231.24 916.61 231.24Q914.54 231.24 912.94 230.36Q912 229.85 911.22 229.02Q910.8 228.57 910.46 228.05Q909.15 226.06 909.15 223.21Q909.15 220.33 910.48 218.35Q910.81 217.85 911.22 217.42Q911.99 216.61 912.91 216.1Q914.52 215.22 916.61 215.22Q918.82 215.22 920.42 216.21Q921.58 216.93 922.42 218.18L927.15 213.74Q926.09 212.27 924.7 211.23Q921.4 208.77 916.27 208.77Q911.96 208.77 908.69 210.62Q907.12 211.51 905.78 212.82Q904.36 214.22 903.44 215.89Q901.67 219.06 901.67 223.21Q901.67 227.48 903.51 230.71Q904.42 232.3 905.78 233.64Q907.1 234.94 908.66 235.82ZM839.67 237L846.96 237L846.96 215.79L854.65 215.79L854.65 209.47L831.97 209.47L831.97 215.79L839.67 215.79L839.67 237ZM866.45 209.47L859.21 209.47L859.21 237L875.85 237Q879.45 237 881.82 235.29Q882.38 234.88 882.87 234.38Q883.98 233.24 884.6 231.88Q885.43 230.1 885.43 227.94Q885.43 225.45 884.4 223.51Q883.82 222.42 882.92 221.49Q882.6 221.16 882.24 220.87Q879.83 218.93 875.85 218.93L866.45 218.93L866.45 209.47ZM889.02 237L896.32 237L896.32 209.47L889.02 209.47L889.02 237ZM866.45 224.97L874.77 224.97Q876.03 224.97 876.86 225.58Q877 225.68 877.13 225.81Q877.47 226.12 877.68 226.51Q878.02 227.13 878.02 227.94Q878.02 228.73 877.69 229.35Q877.48 229.75 877.13 230.08Q877.02 230.19 876.89 230.28Q876.06 230.9 874.77 230.9L866.45 230.9L866.45 224.97ZM937.19 237.34Q938.09 237 938.83 236.26Q939.6 235.48 939.94 234.55Q940.21 233.83 940.21 233Q940.21 232.16 939.93 231.43Q939.59 230.51 938.83 229.76Q938.09 229.02 937.19 228.68Q936.44 228.4 935.59 228.4Q934.73 228.4 933.98 228.68Q933.09 229.02 932.34 229.76Q931.6 230.5 931.26 231.4Q930.98 232.15 930.98 233Q930.98 233.84 931.25 234.58Q931.59 235.5 932.34 236.26Q933.09 237 933.98 237.34Q934.73 237.62 935.59 237.62Q936.44 237.62 937.19 237.34ZM880.08 277.54Q881.44 276.69 882.57 275.49Q884.2 273.79 885.16 271.77Q886.57 268.82 886.57 265.21Q886.57 261.52 885.12 258.55Q884.16 256.59 882.57 254.94Q881.46 253.77 880.14 252.94Q876.74 250.77 871.97 250.77Q867.22 250.77 863.83 252.93Q862.51 253.77 861.39 254.94Q859.87 256.54 858.93 258.45Q857.44 261.46 857.44 265.21Q857.44 268.88 858.88 271.87Q859.83 273.83 861.39 275.49Q862.54 276.69 863.9 277.55Q867.26 279.68 871.97 279.68Q876.7 279.68 880.08 277.54ZM839.67 279L846.96 279L846.96 257.79L854.65 257.79L854.65 251.47L831.97 251.47L831.97 257.79L839.67 257.79L839.67 279ZM891.93 279L899.16 279L899.16 267.99L910.56 267.99L910.56 279L917.81 279L917.81 251.47L910.56 251.47L910.56 261.67L899.16 261.67L899.16 251.47L891.93 251.47L891.93 279ZM924.99 279L932.22 279L932.22 267.99L943.62 267.99L943.62 279L950.87 279L950.87 251.47L943.62 251.47L943.62 261.67L932.22 261.67L932.22 251.47L924.99 251.47L924.99 279ZM868.47 272.35Q867.56 271.81 866.85 270.94Q866.47 270.48 866.17 269.97Q864.97 267.94 864.97 265.21Q864.97 262.63 866.07 260.67Q866.41 260.07 866.85 259.53Q867.57 258.64 868.5 258.09Q869.98 257.22 871.97 257.22Q873.97 257.22 875.46 258.09Q876.4 258.64 877.13 259.53Q877.61 260.11 877.97 260.75Q879.04 262.68 879.04 265.21Q879.04 267.88 877.87 269.88Q877.55 270.44 877.13 270.94Q876.41 271.81 875.49 272.35Q873.99 273.24 871.97 273.24Q869.96 273.24 868.47 272.35Z" fill="#FFFFFF" fill-opacity="1.000000" fill-rule="evenodd"/>
		<path id="Никель" d="M68.91 170L70.41 170L70.41 157.99L68.91 157.99L68.91 163.16L61.89 163.16L61.89 157.99L60.4 157.99L60.4 170L61.89 170L61.89 164.49L68.91 164.49L68.91 170ZM93.99 169.68Q94.96 170.21 96.22 170.21Q97.7 170.21 98.8 169.56Q99.27 169.28 99.68 168.88L99.03 168Q98.59 168.45 98.07 168.71Q97.3 169.1 96.35 169.1Q95.43 169.1 94.74 168.7Q94.42 168.51 94.15 168.23Q93.83 167.91 93.62 167.53Q93.27 166.89 93.21 166.09L100.25 166.09L100.25 165.75Q100.25 164.14 99.54 162.98Q99.36 162.68 99.13 162.41Q98.73 161.94 98.23 161.64Q97.32 161.08 96.07 161.08Q95.12 161.08 94.33 161.45Q93.6 161.78 93.01 162.41Q92.54 162.93 92.24 163.54Q91.79 164.48 91.79 165.64Q91.79 167.13 92.46 168.22Q92.7 168.61 93.03 168.95Q93.47 169.39 93.99 169.68ZM73.16 170L74.46 170L79.05 163.23L79.05 170L80.4 170L80.4 161.3L79.07 161.3L74.51 167.94L74.51 161.3L73.16 161.3L73.16 170ZM89.02 170L90.75 170L86.88 165.25L90.73 161.3L89.02 161.3L84.45 165.93L84.45 161.3L83.1 161.3L83.1 170L84.45 170L84.45 167.51L85.89 166.09L89.02 170ZM101.4 169.1L101.4 170.21Q102.07 170.21 102.58 169.93Q103.06 169.67 103.4 169.18Q104.12 168.14 104.41 165.75L104.81 162.49L108.32 162.49L108.32 170L109.67 170L109.67 161.3L103.62 161.3L103.06 165.58Q102.81 167.48 102.41 168.29Q102.09 168.94 101.63 169.07Q101.52 169.1 101.4 169.1ZM113.71 161.3L112.36 161.3L112.36 170L116.97 170Q117.99 170 118.66 169.51Q118.83 169.39 118.98 169.23Q119.25 168.95 119.42 168.61Q119.71 168.04 119.71 167.33Q119.71 166.61 119.41 166.04Q119.25 165.71 118.99 165.43Q118.86 165.29 118.7 165.18Q118.03 164.67 116.97 164.67L113.71 164.67L113.71 161.3ZM98.78 164.21Q98.91 164.64 98.92 165.1L93.21 165.1Q93.24 164.59 93.4 164.12Q93.6 163.57 94.01 163.08Q94.27 162.78 94.59 162.58Q95.2 162.2 96.06 162.2Q97.05 162.2 97.71 162.67Q97.96 162.85 98.16 163.09Q98.59 163.61 98.78 164.21ZM113.71 165.86L116.83 165.86Q117.46 165.86 117.84 166.17Q117.89 166.21 117.94 166.26Q118.01 166.34 118.07 166.43Q118.32 166.8 118.32 167.33Q118.32 167.86 118.08 168.22Q118.02 168.32 117.94 168.41Q117.89 168.46 117.84 168.5Q117.46 168.81 116.83 168.81L113.71 168.81L113.71 165.86Z" fill="#FFFFFF" fill-opacity="1.000000" fill-rule="evenodd"/>
		<path id="Платина" d="M70.91 370L72.41 370L72.41 357.99L62.4 357.99L62.4 370L63.89 370L63.89 359.32L70.91 359.32L70.91 370ZM90.53 370L91.88 370L91.88 364.02Q91.88 362.85 91.31 362.15Q91.15 361.96 90.95 361.81Q90.01 361.09 88.52 361.09Q87.32 361.09 86.36 361.55Q85.64 361.91 85.04 362.53L85.67 363.46Q86.38 362.71 87.24 362.43Q87.76 362.26 88.33 362.26Q89.27 362.26 89.87 362.71Q89.9 362.73 89.92 362.75Q90.14 362.92 90.28 363.15Q90.53 363.54 90.53 364.1L90.53 365.66Q90.26 365.34 89.93 365.11Q89.02 364.47 87.65 364.47Q86.93 364.47 86.32 364.73Q85.89 364.91 85.52 365.22Q85.26 365.44 85.07 365.71Q84.61 366.36 84.61 367.33Q84.61 368.2 85 368.83Q85.2 369.17 85.53 369.44Q85.97 369.82 86.49 370.01Q87.03 370.21 87.65 370.21Q88.78 370.21 89.64 369.73Q90.13 369.45 90.53 369.01L90.53 370ZM127.13 370L128.48 370L128.48 364.02Q128.48 362.85 127.9 362.15Q127.74 361.96 127.54 361.81Q126.6 361.09 125.11 361.09Q123.92 361.09 122.96 361.55Q122.23 361.91 121.64 362.53L122.27 363.46Q122.97 362.71 123.83 362.43Q124.35 362.26 124.93 362.26Q125.87 362.26 126.47 362.71Q126.49 362.73 126.52 362.75Q126.74 362.92 126.88 363.15Q127.13 363.54 127.13 364.1L127.13 365.66Q126.85 365.34 126.52 365.11Q125.61 364.47 124.25 364.47Q123.53 364.47 122.91 364.73Q122.49 364.91 122.11 365.22Q121.85 365.44 121.66 365.71Q121.21 366.36 121.21 367.33Q121.21 368.2 121.59 368.83Q121.8 369.17 122.12 369.44Q122.57 369.82 123.08 370.01Q123.63 370.21 124.25 370.21Q125.38 370.21 126.23 369.73Q126.72 369.45 127.13 369.01L127.13 370ZM74.14 369.1L74.14 370.21Q74.8 370.21 75.31 369.93Q75.79 369.68 76.13 369.18Q76.85 368.14 77.14 365.75L77.54 362.49L81.05 362.49L81.05 370L82.4 370L82.4 361.31L76.35 361.31L75.79 365.59Q75.54 367.48 75.14 368.29Q74.82 368.94 74.36 369.07Q74.25 369.1 74.14 369.1ZM96.17 370L97.52 370L97.52 362.49L100.05 362.49L100.05 361.31L93.65 361.31L93.65 362.49L96.17 362.49L96.17 370ZM101.82 370L103.12 370L107.71 363.23L107.71 370L109.06 370L109.06 361.31L107.72 361.31L103.17 367.95L103.17 361.31L101.82 361.31L101.82 370ZM111.75 370L113.1 370L113.1 366.11L117.64 366.11L117.64 370L118.99 370L118.99 361.31L117.64 361.31L117.64 364.92L113.1 364.92L113.1 361.31L111.75 361.31L111.75 370ZM90.05 368.67Q89.32 369.24 88.14 369.24Q87.4 369.24 86.86 368.91Q86.72 368.82 86.6 368.71Q86.32 368.47 86.17 368.16Q86 367.8 86 367.35Q86 366.86 86.2 366.47Q86.35 366.2 86.6 365.98Q86.72 365.87 86.86 365.78Q87.4 365.44 88.14 365.44Q89.32 365.44 90.06 366.02Q90.33 366.23 90.53 366.52L90.53 368.16Q90.32 368.45 90.05 368.67ZM126.64 368.67Q125.91 369.24 124.73 369.24Q123.99 369.24 123.46 368.91Q123.32 368.82 123.19 368.71Q122.92 368.47 122.77 368.16Q122.59 367.8 122.59 367.35Q122.59 366.86 122.8 366.47Q122.94 366.2 123.19 365.98Q123.32 365.87 123.46 365.78Q123.99 365.44 124.73 365.44Q125.92 365.44 126.65 366.02Q126.92 366.23 127.13 366.52L127.13 368.16Q126.92 368.45 126.64 368.67Z" fill="#FFFFFF" fill-opacity="1.000000" fill-rule="evenodd"/>
		<path id="Палладий" d="M667.91 371L669.41 371L669.41 358.99L659.4 358.99L659.4 371L660.89 371L660.89 360.32L667.91 360.32L667.91 371ZM736.46 360.9Q737.23 360.51 737.81 359.73L737.14 359.15Q736.7 359.79 736.08 360.12Q735.46 360.45 734.66 360.45Q733.91 360.45 733.31 360.16Q732.65 359.84 732.15 359.15L731.49 359.73Q732.12 360.55 732.94 360.94Q733.71 361.31 734.66 361.31Q735.66 361.31 736.46 360.9ZM677.6 371L678.95 371L678.95 365.02Q678.95 363.85 678.37 363.15Q678.21 362.96 678.01 362.81Q677.07 362.09 675.58 362.09Q674.39 362.09 673.43 362.55Q672.7 362.91 672.11 363.53L672.74 364.46Q673.44 363.71 674.3 363.43Q674.82 363.26 675.4 363.26Q676.34 363.26 676.94 363.71Q676.96 363.73 676.99 363.75Q677.21 363.92 677.35 364.15Q677.6 364.54 677.6 365.1L677.6 366.66Q677.32 366.34 676.99 366.11Q676.08 365.47 674.72 365.47Q674 365.47 673.38 365.73Q672.96 365.91 672.58 366.22Q672.32 366.44 672.13 366.71Q671.68 367.36 671.68 368.33Q671.68 369.2 672.06 369.83Q672.27 370.17 672.59 370.44Q673.04 370.82 673.55 371.01Q674.1 371.21 674.72 371.21Q675.85 371.21 676.7 370.73Q677.19 370.45 677.6 370.01L677.6 371ZM706.95 371L708.3 371L708.3 365.02Q708.3 363.85 707.73 363.15Q707.57 362.96 707.37 362.81Q706.43 362.09 704.94 362.09Q703.75 362.09 702.78 362.55Q702.06 362.91 701.47 363.53L702.09 364.46Q702.8 363.71 703.66 363.43Q704.18 363.26 704.76 363.26Q705.69 363.26 706.29 363.71Q706.32 363.73 706.34 363.75Q706.57 363.92 706.71 364.15Q706.95 364.54 706.95 365.1L706.95 366.66Q706.68 366.34 706.35 366.11Q705.44 365.47 704.08 365.47Q703.35 365.47 702.74 365.73Q702.31 365.91 701.94 366.22Q701.68 366.44 701.49 366.71Q701.04 367.36 701.04 368.33Q701.04 369.2 701.42 369.83Q701.63 370.17 701.95 370.44Q702.4 370.82 702.91 371.01Q703.46 371.21 704.08 371.21Q705.2 371.21 706.06 370.73Q706.55 370.45 706.95 370.01L706.95 371ZM680.62 370.1L680.62 371.21Q681.29 371.21 681.8 370.93Q682.27 370.68 682.62 370.18Q683.34 369.14 683.63 366.75L684.02 363.49L687.54 363.49L687.54 371L688.88 371L688.88 362.31L682.84 362.31L682.28 366.59Q682.02 368.48 681.63 369.29Q681.31 369.94 680.84 370.07Q680.74 370.1 680.62 370.1ZM690.56 370.1L690.56 371.21Q691.22 371.21 691.74 370.93Q692.21 370.68 692.55 370.18Q693.27 369.14 693.56 366.75L693.96 363.49L697.47 363.49L697.47 371L698.82 371L698.82 362.31L692.77 362.31L692.22 366.59Q691.96 368.48 691.57 369.29Q691.24 369.94 690.78 370.07Q690.67 370.1 690.56 370.1ZM709.98 369.88L709.98 373.21L711.33 373.21L711.33 371L717.9 371L717.9 373.21L719.25 373.21L719.25 369.81L718.24 369.81L718.24 362.31L712.2 362.31L711.64 366.59Q711.4 368.4 711.02 369.08Q710.76 369.54 710.37 369.75Q710.19 369.84 709.98 369.88ZM721.1 371L722.4 371L726.99 364.23L726.99 371L728.34 371L728.34 362.31L727.01 362.31L722.45 368.95L722.45 362.31L721.1 362.31L721.1 371ZM731.04 371L732.33 371L736.93 364.23L736.93 371L738.28 371L738.28 362.31L736.94 362.31L732.39 368.95L732.39 362.31L731.04 362.31L731.04 371ZM712.99 366.75L713.38 363.49L716.89 363.49L716.89 369.81L711.73 369.81Q712.68 369.04 712.99 366.75ZM677.11 369.67Q676.38 370.24 675.2 370.24Q674.46 370.24 673.93 369.91Q673.79 369.82 673.66 369.71Q673.39 369.47 673.24 369.16Q673.06 368.8 673.06 368.35Q673.06 367.86 673.27 367.47Q673.41 367.2 673.66 366.98Q673.79 366.87 673.93 366.78Q674.46 366.44 675.2 366.44Q676.39 366.44 677.12 367.02Q677.39 367.23 677.6 367.52L677.6 369.16Q677.39 369.45 677.11 369.67ZM706.47 369.67Q705.74 370.24 704.56 370.24Q703.82 370.24 703.29 369.91Q703.15 369.82 703.02 369.71Q702.75 369.47 702.6 369.16Q702.42 368.8 702.42 368.35Q702.42 367.86 702.63 367.47Q702.77 367.2 703.02 366.98Q703.15 366.87 703.29 366.78Q703.82 366.44 704.56 366.44Q705.75 366.44 706.48 367.02Q706.75 367.23 706.95 367.52L706.95 369.16Q706.74 369.45 706.47 369.67Z" fill="#FFFFFF" fill-opacity="1.000000" fill-rule="evenodd"/>
		<path id="Медь" d="M670.66 170L672.15 170L672.15 157.99L670.01 157.99L666.27 167.03L662.54 157.99L660.4 157.99L660.4 170L661.89 170L661.89 160.11L665.96 170L666.57 170L670.66 160.11L670.66 170ZM676.6 169.68Q677.57 170.21 678.83 170.21Q680.31 170.21 681.41 169.56Q681.89 169.28 682.29 168.88L681.64 168Q681.2 168.45 680.68 168.71Q679.92 169.1 678.96 169.1Q678.04 169.1 677.35 168.7Q677.03 168.51 676.76 168.23Q676.44 167.91 676.23 167.53Q675.88 166.89 675.83 166.09L682.87 166.09L682.87 165.75Q682.87 164.14 682.15 162.98Q681.97 162.68 681.74 162.41Q681.34 161.94 680.84 161.64Q679.93 161.08 678.69 161.08Q677.73 161.08 676.94 161.45Q676.21 161.78 675.63 162.41Q675.15 162.93 674.86 163.54Q674.41 164.48 674.41 165.64Q674.41 167.13 675.07 168.22Q675.31 168.61 675.64 168.95Q676.08 169.39 676.6 169.68ZM684.02 168.88L684.02 172.21L685.37 172.21L685.37 170L691.94 170L691.94 172.21L693.28 172.21L693.28 168.81L692.28 168.81L692.28 161.3L686.23 161.3L685.67 165.58Q685.44 167.4 685.06 168.08Q684.8 168.54 684.41 168.74Q684.23 168.84 684.02 168.88ZM696.49 161.3L695.14 161.3L695.14 170L699.75 170Q700.76 170 701.43 169.51Q701.6 169.39 701.75 169.23Q702.03 168.95 702.2 168.61Q702.48 168.04 702.48 167.33Q702.48 166.61 702.19 166.04Q702.02 165.71 701.76 165.43Q701.63 165.29 701.48 165.18Q700.81 164.67 699.75 164.67L696.49 164.67L696.49 161.3ZM681.39 164.21Q681.52 164.64 681.53 165.1L675.83 165.1Q675.85 164.59 676.02 164.12Q676.22 163.57 676.62 163.08Q676.88 162.78 677.2 162.58Q677.82 162.2 678.67 162.2Q679.67 162.2 680.33 162.67Q680.57 162.85 680.77 163.09Q681.2 163.61 681.39 164.21ZM687.02 165.75L687.42 162.49L690.93 162.49L690.93 168.81L685.76 168.81Q686.71 168.04 687.02 165.75ZM696.49 165.86L699.6 165.86Q700.23 165.86 700.61 166.17Q700.66 166.21 700.71 166.26Q700.79 166.34 700.85 166.43Q701.1 166.8 701.1 167.33Q701.1 167.86 700.86 168.22Q700.79 168.32 700.71 168.41Q700.66 168.46 700.61 168.5Q700.23 168.81 699.6 168.81L696.49 168.81L696.49 165.86Z" fill="#FFFFFF" fill-opacity="1.000000" fill-rule="evenodd"/>
		<rect id="Rectangle 538" x="40.500000" y="150.500977" rx="14.500000" width="100.000000" height="29.000000" stroke="#FFFFFF" stroke-opacity="1.000000" stroke-width="1.000000"/>
		<rect id="Rectangle 539" x="40.500000" y="350.501953" rx="14.500000" width="110.000000" height="29.000000" stroke="#FFFFFF" stroke-opacity="1.000000" stroke-width="1.000000"/>
		<rect id="Rectangle 540" x="640.500000" y="350.501953" rx="15.000000" width="120.000000" height="30.000000" stroke="#FFFFFF" stroke-opacity="1.000000" stroke-width="1.000000"/>
		<rect id="Rectangle 541" x="640.500000" y="150.500977" rx="14.500000" width="79.000000" height="29.000000" stroke="#FFFFFF" stroke-opacity="1.000000" stroke-width="1.000000"/>
	</g>
</svg>
