<svg width="1180.000000" height="380.000000" viewBox="0 0 1180 380" fill="none" xmlns="http://www.w3.org/2000/svg" xmlns:xlink="http://www.w3.org/1999/xlink">
	<desc>
			Created with Pixso.
	</desc>
	<defs>
		<clipPath id="clip46_44">
			<rect id="2024-2" width="1180.000000" height="380.000000" fill="white" fill-opacity="0"/>
		</clipPath>
	</defs>
	<rect id="2024-2" width="1180.000000" height="380.000000" fill="#FFFFFF" fill-opacity="0"/>
	<g clip-path="url(#clip46_44)">
		<path id="Rectangle 532" d="M921 -130L1159 -130C1170.6 -130 1180 -120.6 1180 -109L1180 -20L921 -20C909.4 -20 900 -29.41 900 -41L900 -109C900 -120.6 909.4 -130 921 -130Z" fill="#D0D1D4" fill-opacity="1.000000" fill-rule="evenodd"/>
		<path id="2024" d="M951.71 -50.5L988.36 -50.5L988.36 -59.63L968.5 -59.63Q978.57 -66.94 983.28 -72.66Q987.67 -78.01 987.96 -83.58Q987.98 -83.98 987.98 -84.38Q987.98 -88.33 986.33 -91.39Q985.03 -93.82 982.69 -95.68Q981.95 -96.28 981.15 -96.79Q976.27 -99.93 969.38 -99.93Q967.19 -99.93 965.05 -99.58Q961.99 -99.1 959.04 -97.91Q955.92 -96.66 953.41 -94.66Q951.9 -93.45 950.61 -91.98L956.53 -85.11Q959.37 -88.07 962.84 -89.47Q965.96 -90.73 969.59 -90.73Q972.07 -90.73 974.02 -89.72Q974.6 -89.42 975.13 -89.04Q976.2 -88.27 976.78 -87.23Q977.47 -86 977.47 -84.38Q977.47 -80.07 972.39 -75.13Q967.33 -70.22 951.71 -58.61L951.71 -50.5ZM1023.33 -51.63Q1024.74 -52.37 1026.01 -53.39Q1028.62 -55.48 1030.41 -58.12Q1031.85 -60.23 1032.77 -62.69Q1034.85 -68.24 1034.85 -74.81Q1034.85 -81.39 1032.77 -86.93Q1031.81 -89.47 1030.31 -91.63Q1028.55 -94.18 1026.01 -96.2Q1024.8 -97.17 1023.44 -97.89Q1019.61 -99.93 1014.7 -99.93Q1009.88 -99.93 1006.08 -97.96Q1004.65 -97.22 1003.36 -96.2Q1000.76 -94.14 998.97 -91.53Q997.52 -89.41 996.6 -86.93Q994.55 -81.39 994.55 -74.81Q994.55 -68.24 996.6 -62.69Q997.49 -60.29 998.88 -58.22Q1000.7 -55.52 1003.36 -53.39Q1004.7 -52.32 1006.2 -51.55Q1009.96 -49.63 1014.7 -49.63Q1019.54 -49.63 1023.33 -51.63ZM1040.78 -50.5L1077.42 -50.5L1077.42 -59.63L1057.56 -59.63Q1067.64 -66.94 1072.34 -72.66Q1076.73 -78.01 1077.03 -83.58Q1077.05 -83.98 1077.05 -84.38Q1077.05 -88.33 1075.4 -91.39Q1074.09 -93.82 1071.75 -95.68Q1071.01 -96.28 1070.22 -96.79Q1065.34 -99.93 1058.43 -99.93Q1056.25 -99.93 1054.11 -99.58Q1051.05 -99.1 1048.1 -97.91Q1044.99 -96.66 1042.47 -94.66Q1040.96 -93.45 1039.67 -91.98L1045.59 -85.11Q1048.43 -88.07 1051.91 -89.47Q1055.03 -90.73 1058.65 -90.73Q1061.13 -90.73 1063.09 -89.72Q1063.67 -89.42 1064.19 -89.04Q1065.27 -88.27 1065.85 -87.23Q1066.53 -86 1066.53 -84.38Q1066.53 -80.07 1061.44 -75.13Q1056.39 -70.22 1040.78 -58.61L1040.78 -50.5ZM1106.25 -50.5L1116.62 -50.5L1116.62 -60.57L1122.9 -60.57L1122.9 -69.7L1116.62 -69.7L1116.62 -99.19L1102.31 -99.19L1082.96 -68.75L1082.96 -60.57L1106.25 -60.57L1106.25 -50.5ZM1010.39 -59.92Q1008.57 -61.01 1007.41 -63.19Q1005.07 -67.58 1005.07 -74.8Q1005.07 -82.03 1007.41 -86.38Q1008.57 -88.54 1010.37 -89.63Q1012.2 -90.73 1014.7 -90.73Q1017.23 -90.73 1019.07 -89.6Q1020.84 -88.51 1021.97 -86.38Q1024.27 -82.03 1024.27 -74.8Q1024.27 -67.58 1021.97 -63.19Q1020.83 -61.04 1019.05 -59.95Q1017.22 -58.83 1014.7 -58.83Q1012.22 -58.83 1010.39 -59.92ZM1106.25 -90L1106.25 -69.7L1093.12 -69.7L1106.25 -90Z" fill="#F3F4F8" fill-opacity="1.000000" fill-rule="evenodd"/>
		<path id="Rectangle 533" d="M21 0L559 0C570.59 0 580 9.4 580 21L580 180L21 180C9.4 180 0 170.59 0 159L0 21C0 9.4 9.4 0 21 0Z" fill="#0081C9" fill-opacity="1.000000" fill-rule="evenodd"/>
		<path id="Rectangle 534" d="M621 0L1159 0C1170.6 0 1180 9.4 1180 21L1180 180L621 180C609.4 180 600 170.59 600 159L600 21C600 9.4 609.4 0 621 0Z" fill="#0081C9" fill-opacity="1.000000" fill-rule="evenodd"/>
		<path id="Rectangle 536" d="M21 200L559 200C570.59 200 580 209.4 580 221L580 380L21 380C9.4 380 0 370.6 0 359L0 221C0 209.4 9.4 200 21 200Z" fill="#0081C9" fill-opacity="1.000000" fill-rule="evenodd"/>
		<path id="Rectangle 537" d="M621 200L1159 200C1170.6 200 1180 209.4 1180 221L1180 380L621 380C609.4 380 600 370.6 600 359L600 221C600 209.4 609.4 200 621 200Z" fill="#0081C9" fill-opacity="1.000000" fill-rule="evenodd"/>
		<path id="205" d="M40.8 149.5L92 149.5L92 136.75L64.26 136.75Q78.33 126.54 84.9 118.54Q91.03 111.06 91.45 103.28Q91.48 102.72 91.48 102.16Q91.48 96.64 89.17 92.36Q87.35 88.98 84.08 86.37Q83.05 85.54 81.94 84.83Q75.12 80.44 65.48 80.44Q62.42 80.44 59.43 80.92Q55.16 81.6 51.04 83.26Q46.68 85 43.17 87.8Q41.06 89.48 39.26 91.55L47.52 101.14Q51.5 97.01 56.35 95.05Q60.71 93.29 65.78 93.29Q69.24 93.29 71.97 94.7Q72.78 95.12 73.52 95.66Q75.02 96.73 75.83 98.18Q76.79 99.9 76.79 102.16Q76.79 108.18 69.69 115.08Q62.62 121.96 40.8 138.17L40.8 149.5ZM140.86 147.93Q142.84 146.89 144.61 145.46Q148.25 142.54 150.76 138.86Q152.76 135.91 154.05 132.46Q156.96 124.72 156.96 115.53Q156.96 106.34 154.05 98.6Q152.72 95.05 150.63 92.03Q148.16 88.47 144.61 85.65Q142.91 84.29 141.02 83.29Q135.66 80.44 128.8 80.44Q122.07 80.44 116.76 83.19Q114.76 84.22 112.96 85.65Q109.33 88.52 106.83 92.18Q104.8 95.13 103.52 98.6Q100.66 106.34 100.66 115.53Q100.66 124.72 103.52 132.46Q104.76 135.82 106.7 138.71Q109.24 142.49 112.96 145.46Q114.83 146.96 116.92 148.03Q122.17 150.72 128.8 150.72Q135.56 150.72 140.86 147.93ZM169.81 144.43Q178.43 150.72 191.64 150.72Q203.2 150.72 210.47 145.13Q210.96 144.75 211.44 144.34Q214.13 142.03 215.85 139.15Q218.88 134.06 218.88 127.16Q218.88 120.15 215.74 115.09Q214.41 112.94 212.51 111.15Q209.73 108.52 206.44 107.04Q202.18 105.12 197.04 105.12Q190.34 105.12 185.5 108.12Q183.64 109.26 182.05 110.85L182.05 94.21L214.3 94.21L214.3 81.46L167.58 81.46L167.58 120.54L177.67 123.18Q180 120.97 182.75 119.65Q186.88 117.67 191.96 117.67Q197.66 117.67 200.93 120.44Q202.2 121.51 202.98 122.86Q204.19 124.98 204.19 127.78Q204.19 129.64 203.55 131.24Q202.71 133.33 200.78 134.98Q200.75 135 200.73 135.02Q197.32 137.87 191.54 137.87Q185.11 137.87 179.99 135.28Q176.42 133.48 173.48 130.42L165.44 140.53Q167.45 142.72 169.81 144.43ZM122.78 136.34Q120.24 134.81 118.61 131.77Q115.35 125.64 115.35 115.56Q115.35 105.45 118.61 99.37Q120.23 96.35 122.75 94.83Q125.31 93.29 128.8 93.29Q132.34 93.29 134.91 94.87Q137.38 96.39 138.96 99.37Q142.17 105.45 142.17 115.56Q142.17 125.64 138.96 131.77Q137.37 134.77 134.88 136.3Q132.32 137.87 128.8 137.87Q125.33 137.87 122.78 136.34Z" fill="#FFFFFF" fill-opacity="1.000000" fill-rule="evenodd"/>
		<path id="667" d="M52.48 345.63Q59.25 350.72 69.84 350.72Q79.01 350.72 85.46 346.53Q87.12 345.45 88.59 344.09Q91.89 341.08 93.69 337.35Q95.84 332.87 95.84 327.36Q95.84 319.88 92.36 314.75Q91 312.74 89.12 311.1Q86.85 309.12 84.24 307.8Q79.12 305.22 72.71 305.22Q70.65 305.22 68.67 305.6Q65.54 306.21 62.59 307.79Q57.81 310.33 55.25 314.01Q55.15 313.49 55.15 312.57Q55.15 306.76 57.58 302.27Q58.56 300.46 59.93 298.87Q62.26 296.17 65.2 294.78Q68.34 293.29 72.18 293.29Q76.64 293.29 80.35 294.95Q83.28 296.26 85.75 298.6L92.28 287.49Q89.6 285.2 86.54 283.66Q80.17 280.44 72.18 280.44Q61.84 280.44 54.59 285.18Q51.47 287.21 48.92 290.13Q47.97 291.23 47.12 292.4Q40.46 301.6 40.46 315.63Q40.46 331.14 47.8 340.93Q49.85 343.66 52.48 345.63ZM114.49 345.63Q121.27 350.72 131.86 350.72Q141.03 350.72 147.48 346.53Q149.13 345.45 150.61 344.09Q153.91 341.08 155.7 337.35Q157.86 332.87 157.86 327.36Q157.86 319.88 154.38 314.75Q153.02 312.74 151.13 311.1Q148.86 309.12 146.26 307.8Q141.14 305.22 134.72 305.22Q132.67 305.22 130.69 305.6Q127.56 306.21 124.61 307.79Q119.83 310.33 117.26 314.01Q117.17 313.49 117.17 312.57Q117.17 306.76 119.6 302.27Q120.58 300.46 121.95 298.87Q124.27 296.17 127.22 294.78Q130.36 293.29 134.2 293.29Q138.65 293.29 142.37 294.95Q145.3 296.26 147.77 298.6L154.29 287.49Q151.61 285.2 148.56 283.66Q142.19 280.44 134.2 280.44Q123.86 280.44 116.61 285.18Q113.49 287.21 110.94 290.13Q109.98 291.23 109.13 292.4Q102.47 301.6 102.47 315.63Q102.47 331.14 109.82 340.93Q111.87 343.66 114.49 345.63ZM173.38 349.5L189.29 349.5L214.57 291.55L214.57 281.46L163.47 281.46L163.47 294.21L197.76 294.21L173.38 349.5ZM76.79 335.65Q73.7 337.87 69.02 337.87Q63.9 337.87 60.72 335.38Q59.86 334.7 59.13 333.83Q58.26 332.79 57.58 331.63Q55.64 328.32 55.25 324.1Q57.83 320.85 61.2 319.24Q64.49 317.67 68.52 317.67Q73.37 317.67 76.84 319.86Q77.17 320.06 77.49 320.29Q78.88 321.26 79.74 322.59Q81.17 324.76 81.17 327.88Q81.17 328.89 80.94 329.85Q80.3 332.54 77.83 334.81Q77.34 335.26 76.79 335.65ZM138.81 335.65Q135.72 337.87 131.03 337.87Q125.91 337.87 122.74 335.38Q121.87 334.7 121.15 333.83Q120.28 332.79 119.6 331.63Q117.65 328.32 117.26 324.1Q119.85 320.85 123.22 319.24Q126.5 317.67 130.54 317.67Q135.39 317.67 138.86 319.86Q139.19 320.06 139.5 320.29Q140.89 321.26 141.76 322.59Q143.19 324.76 143.19 327.88Q143.19 328.89 142.96 329.85Q142.32 332.54 139.85 334.81Q139.36 335.26 138.81 335.65Z" fill="#FFFFFF" fill-opacity="1.000000" fill-rule="evenodd"/>
		<path id="2692" d="M770.03 346.53Q776.79 350.62 786.03 350.62Q796.4 350.62 803.64 345.85Q806.73 343.83 809.24 340.93Q810.22 339.8 811.08 338.6Q817.66 329.42 817.66 315.53Q817.66 305.54 814.74 297.85Q813.43 294.34 811.31 291.41Q808.76 287.91 805.06 285.25Q804.49 284.84 803.91 284.47Q797.46 280.34 788.37 280.34Q779.33 280.34 772.88 284.44Q771.13 285.55 769.57 286.97Q766.21 290.02 764.39 293.82Q762.27 298.25 762.27 303.7Q762.27 311.1 765.69 316.2Q767.09 318.29 769.05 319.99Q771.38 322 774.05 323.31Q779.17 325.84 785.53 325.84Q787.72 325.84 789.82 325.41Q792.81 324.79 795.62 323.3Q800.42 320.74 803.06 317.05L803.06 318.59Q803.06 323.88 801.01 328.18Q800.01 330.26 798.53 332.12Q796.84 334.23 794.66 335.56Q791.02 337.77 786.03 337.77Q781.67 337.77 778 336.17Q775 334.86 772.46 332.46L766.03 343.57Q767.91 345.25 770.03 346.53ZM640.8 349.5L692 349.5L692 336.75L664.26 336.75Q678.33 326.54 684.9 318.54Q691.04 311.06 691.45 303.28Q691.48 302.72 691.48 302.16Q691.48 296.64 689.17 292.36Q687.35 288.98 684.08 286.37Q683.05 285.54 681.94 284.83Q675.12 280.44 665.48 280.44Q662.42 280.44 659.43 280.92Q655.16 281.6 651.04 283.26Q646.68 285 643.17 287.8Q641.06 289.48 639.26 291.55L647.53 301.14Q651.5 297.01 656.35 295.05Q660.71 293.29 665.78 293.29Q669.24 293.29 671.97 294.7Q672.78 295.12 673.52 295.66Q675.02 296.73 675.83 298.18Q676.79 299.9 676.79 302.16Q676.79 308.18 669.69 315.08Q662.62 321.96 640.8 338.17L640.8 349.5ZM712.68 345.63Q719.45 350.72 730.04 350.72Q739.21 350.72 745.66 346.53Q747.32 345.45 748.79 344.09Q752.09 341.08 753.89 337.35Q756.04 332.87 756.04 327.36Q756.04 319.88 752.56 314.75Q751.21 312.74 749.32 311.1Q747.05 309.12 744.44 307.8Q739.32 305.22 732.91 305.22Q730.85 305.22 728.88 305.6Q725.74 306.21 722.8 307.79Q718.01 310.33 715.45 314.01Q715.35 313.49 715.35 312.57Q715.35 306.76 717.78 302.27Q718.76 300.46 720.13 298.87Q722.46 296.17 725.4 294.78Q728.54 293.29 732.38 293.29Q736.84 293.29 740.55 294.95Q743.48 296.26 745.95 298.6L752.48 287.49Q749.8 285.2 746.74 283.66Q740.37 280.44 732.38 280.44Q722.04 280.44 714.79 285.18Q711.67 287.21 709.12 290.13Q708.17 291.23 707.32 292.4Q700.66 301.6 700.66 315.63Q700.66 331.14 708 340.93Q710.05 343.66 712.68 345.63ZM826.03 349.5L877.23 349.5L877.23 336.75L849.49 336.75Q863.56 326.54 870.14 318.54Q876.27 311.06 876.68 303.28Q876.71 302.72 876.71 302.16Q876.71 296.64 874.41 292.36Q872.58 288.98 869.31 286.37Q868.28 285.54 867.17 284.83Q860.35 280.44 850.71 280.44Q847.65 280.44 844.67 280.92Q840.39 281.6 836.27 283.26Q831.91 285 828.4 287.8Q826.29 289.48 824.49 291.55L832.76 301.14Q836.73 297.01 841.58 295.05Q845.94 293.29 851.01 293.29Q854.47 293.29 857.2 294.7Q858.01 295.12 858.76 295.66Q860.25 296.73 861.06 298.18Q862.02 299.9 862.02 302.16Q862.02 308.18 854.92 315.08Q847.85 321.96 826.03 338.17L826.03 349.5ZM796.92 311.86Q793.62 313.39 789.62 313.39Q785.05 313.39 781.66 311.4Q781.18 311.12 780.73 310.8Q779.36 309.82 778.5 308.51Q777.07 306.31 777.07 303.18Q777.07 302.13 777.31 301.13Q777.96 298.48 780.33 296.26Q780.8 295.82 781.31 295.44Q784.38 293.19 789.09 293.19Q794.33 293.19 797.53 295.75Q798.38 296.42 799.08 297.28Q800.06 298.46 800.8 299.78Q802.61 303.01 802.96 307.06Q800.32 310.28 796.92 311.86ZM736.99 335.65Q733.9 337.87 729.22 337.87Q724.1 337.87 720.92 335.38Q720.06 334.7 719.33 333.83Q718.46 332.79 717.78 331.63Q715.84 328.32 715.45 324.1Q718.03 320.85 721.4 319.24Q724.69 317.67 728.72 317.67Q733.57 317.67 737.04 319.86Q737.37 320.06 737.69 320.29Q739.08 321.26 739.94 322.59Q741.37 324.76 741.37 327.88Q741.37 328.89 741.14 329.85Q740.5 332.54 738.04 334.81Q737.54 335.26 736.99 335.65Z" fill="#FFFFFF" fill-opacity="1.000000" fill-rule="evenodd"/>
		<path id="433" d="M710.84 146.7Q717.79 149.72 726.75 149.72Q738.9 149.72 746.22 144.16Q750.22 141.14 752.05 137.13Q753.57 133.77 753.57 129.72Q753.57 125.55 751.82 122.33Q750.63 120.12 748.62 118.37Q745.1 115.28 741.03 114.07Q739.39 113.59 737.66 113.41Q741.35 112.73 744.41 110.97Q746.43 109.8 748.17 108.16Q750.24 106.2 751.34 103.79Q752.55 101.12 752.55 97.9Q752.55 93.71 750.87 90.38Q749.14 86.97 745.65 84.45Q738.78 79.44 726.85 79.44Q715.6 79.44 707.56 84.52Q703.87 86.85 700.85 90.25L708.1 99.34Q712.16 95.45 716.99 93.7Q720.91 92.29 725.33 92.29Q730.93 92.29 734.45 94.38Q736.42 95.55 737.29 97.27Q737.98 98.64 737.98 100.36Q737.98 102.17 737.2 103.53Q734.84 107.61 725.43 107.61Q718.18 107.61 716.96 107.48L716.96 120.56Q719.01 120.36 725.43 120.36Q732.58 120.36 735.84 122.25Q737.2 123.03 738 124.2Q739.1 125.83 739.1 128.2Q739.1 129.85 738.5 131.23Q737.67 133.1 735.72 134.48Q732.35 136.87 726.25 136.87Q721.15 136.87 716.04 134.78Q710.94 132.68 707.48 129.12L699.93 138.81Q703.92 143.69 710.84 146.7ZM770.71 146.7Q777.66 149.72 786.63 149.72Q798.78 149.72 806.1 144.16Q810.1 141.14 811.92 137.13Q813.45 133.77 813.45 129.72Q813.45 125.55 811.7 122.33Q810.5 120.12 808.49 118.37Q804.97 115.28 800.9 114.07Q799.26 113.59 797.53 113.41Q801.22 112.73 804.28 110.97Q806.3 109.8 808.04 108.16Q810.12 106.2 811.21 103.79Q812.42 101.12 812.42 97.9Q812.42 93.71 810.74 90.38Q809.02 86.97 805.53 84.45Q798.65 79.44 786.72 79.44Q775.48 79.44 767.43 84.52Q763.74 86.85 760.73 90.25L767.97 99.34Q772.03 95.45 776.87 93.7Q780.78 92.29 785.21 92.29Q790.81 92.29 794.32 94.38Q796.29 95.55 797.16 97.27Q797.86 98.64 797.86 100.36Q797.86 102.17 797.07 103.53Q794.72 107.61 785.31 107.61Q778.06 107.61 776.84 107.48L776.84 120.56Q778.88 120.36 785.31 120.36Q792.45 120.36 795.71 122.25Q797.08 123.03 797.87 124.2Q798.98 125.83 798.98 128.2Q798.98 129.85 798.37 131.23Q797.54 133.1 795.59 134.48Q792.23 136.87 786.13 136.87Q781.02 136.87 775.92 134.78Q770.81 132.68 767.35 129.12L759.81 138.81Q763.79 143.69 770.71 146.7ZM672.08 148.5L686.58 148.5L686.58 134.43L695.34 134.43L695.34 121.68L686.58 121.68L686.58 80.46L666.58 80.46L639.53 123L639.53 134.43L672.08 134.43L672.08 148.5ZM672.08 93.31L672.08 121.68L653.73 121.68L672.08 93.31Z" fill="#FFFFFF" fill-opacity="1.000000" fill-rule="evenodd"/>
		<path id="тыс. тонн" d="M316.66 106.82Q319.94 108.68 324.27 108.68Q329.35 108.68 332.63 106.25Q334.06 105.19 335.15 103.67L330.42 99.27Q329.41 100.7 328.02 101.44Q326.53 102.24 324.61 102.24Q322.54 102.24 320.94 101.36Q320 100.85 319.22 100.02Q318.79 99.57 318.46 99.05Q317.15 97.06 317.15 94.21Q317.15 91.33 318.48 89.35Q318.81 88.85 319.22 88.42Q319.99 87.61 320.91 87.1Q322.52 86.22 324.61 86.22Q326.82 86.22 328.42 87.21Q329.58 87.93 330.42 89.18L335.15 84.74Q334.09 83.27 332.7 82.23Q329.4 79.77 324.27 79.77Q319.96 79.77 316.69 81.62Q315.12 82.51 313.78 83.82Q312.36 85.22 311.44 86.89Q309.67 90.06 309.67 94.21Q309.67 98.48 311.51 101.71Q312.42 103.3 313.78 104.64Q315.1 105.94 316.66 106.82ZM247.67 108L254.96 108L254.96 86.79L262.65 86.79L262.65 80.47L239.97 80.47L239.97 86.79L247.67 86.79L247.67 108ZM274.45 80.47L267.21 80.47L267.21 108L283.85 108Q287.45 108 289.82 106.29Q290.38 105.88 290.87 105.38Q291.98 104.24 292.6 102.88Q293.43 101.1 293.43 98.94Q293.43 96.45 292.4 94.51Q291.82 93.42 290.92 92.49Q290.6 92.16 290.24 91.87Q287.83 89.93 283.85 89.93L274.45 89.93L274.45 80.47ZM297.02 108L304.32 108L304.32 80.47L297.02 80.47L297.02 108ZM274.45 95.97L282.77 95.97Q284.03 95.97 284.86 96.58Q285 96.68 285.13 96.81Q285.47 97.12 285.68 97.51Q286.02 98.13 286.02 98.94Q286.02 99.73 285.69 100.35Q285.48 100.75 285.13 101.08Q285.02 101.19 284.89 101.28Q284.06 101.9 282.77 101.9L274.45 101.9L274.45 95.97ZM345.19 108.34Q346.09 108 346.83 107.26Q347.6 106.48 347.94 105.55Q348.21 104.83 348.21 104Q348.21 103.16 347.93 102.43Q347.59 101.51 346.83 100.76Q346.09 100.02 345.19 99.68Q344.44 99.4 343.59 99.4Q342.73 99.4 341.98 99.68Q341.09 100.02 340.34 100.76Q339.6 101.5 339.26 102.4Q338.98 103.15 338.98 104Q338.98 104.84 339.25 105.58Q339.59 106.5 340.34 107.26Q341.09 108 341.98 108.34Q342.73 108.62 343.59 108.62Q344.44 108.62 345.19 108.34ZM288.08 148.54Q289.44 147.69 290.57 146.49Q292.2 144.79 293.16 142.77Q294.57 139.82 294.57 136.21Q294.57 132.52 293.12 129.55Q292.16 127.59 290.57 125.94Q289.46 124.77 288.14 123.94Q284.74 121.77 279.97 121.77Q275.22 121.77 271.83 123.93Q270.51 124.77 269.39 125.94Q267.87 127.55 266.93 129.45Q265.44 132.46 265.44 136.21Q265.44 139.88 266.88 142.87Q267.83 144.83 269.39 146.49Q270.54 147.69 271.9 148.55Q275.26 150.68 279.97 150.68Q284.7 150.68 288.08 148.54ZM247.67 150L254.96 150L254.96 128.79L262.65 128.79L262.65 122.47L239.97 122.47L239.97 128.79L247.67 128.79L247.67 150ZM299.93 150L307.16 150L307.16 138.99L318.56 138.99L318.56 150L325.81 150L325.81 122.47L318.56 122.47L318.56 132.67L307.16 132.67L307.16 122.47L299.93 122.47L299.93 150ZM332.99 150L340.22 150L340.22 138.99L351.62 138.99L351.62 150L358.87 150L358.87 122.47L351.62 122.47L351.62 132.67L340.22 132.67L340.22 122.47L332.99 122.47L332.99 150ZM276.47 143.35Q275.56 142.81 274.85 141.94Q274.47 141.48 274.17 140.97Q272.97 138.94 272.97 136.21Q272.97 133.63 274.07 131.67Q274.41 131.07 274.85 130.53Q275.57 129.64 276.5 129.09Q277.98 128.22 279.97 128.22Q281.97 128.22 283.46 129.09Q284.4 129.64 285.13 130.53Q285.61 131.11 285.97 131.75Q287.04 133.68 287.04 136.21Q287.04 138.88 285.87 140.88Q285.55 141.44 285.13 141.94Q284.41 142.81 283.49 143.35Q281.99 144.24 279.97 144.24Q277.96 144.24 276.47 143.35Z" fill="#FFFFFF" fill-opacity="1.000000" fill-rule="evenodd"/>
		<path id="тыс. унций" d="M316.66 306.82Q319.94 308.68 324.27 308.68Q329.35 308.68 332.63 306.25Q334.06 305.19 335.15 303.67L330.42 299.27Q329.41 300.7 328.02 301.44Q326.53 302.24 324.61 302.24Q322.54 302.24 320.94 301.36Q320 300.85 319.22 300.02Q318.79 299.57 318.46 299.05Q317.15 297.06 317.15 294.21Q317.15 291.33 318.48 289.35Q318.81 288.85 319.22 288.42Q319.99 287.61 320.91 287.1Q322.52 286.22 324.61 286.22Q326.82 286.22 328.42 287.21Q329.58 287.93 330.42 289.18L335.15 284.74Q334.09 283.27 332.7 282.23Q329.4 279.78 324.27 279.78Q319.96 279.78 316.69 281.62Q315.12 282.51 313.78 283.82Q312.36 285.22 311.44 286.89Q309.67 290.06 309.67 294.21Q309.67 298.48 311.51 301.71Q312.42 303.3 313.78 304.64Q315.1 305.94 316.66 306.82ZM247.67 308L254.96 308L254.96 286.79L262.65 286.79L262.65 280.47L239.97 280.47L239.97 286.79L247.67 286.79L247.67 308ZM274.45 280.47L267.21 280.47L267.21 308L283.85 308Q287.45 308 289.82 306.29Q290.38 305.88 290.87 305.38Q291.98 304.24 292.6 302.88Q293.43 301.1 293.43 298.94Q293.43 296.45 292.4 294.51Q291.82 293.42 290.92 292.5Q290.6 292.16 290.24 291.88Q287.83 289.93 283.85 289.93L274.45 289.93L274.45 280.47ZM297.02 308L304.32 308L304.32 280.47L297.02 280.47L297.02 308ZM274.45 295.97L282.77 295.97Q284.03 295.97 284.86 296.58Q285 296.68 285.13 296.81Q285.47 297.12 285.68 297.51Q286.02 298.13 286.02 298.94Q286.02 299.73 285.69 300.35Q285.48 300.75 285.13 301.08Q285.02 301.19 284.89 301.28Q284.06 301.9 282.77 301.9L274.45 301.9L274.45 295.97ZM345.19 308.34Q346.09 308 346.83 307.26Q347.6 306.49 347.94 305.55Q348.21 304.83 348.21 304Q348.21 303.16 347.93 302.43Q347.59 301.51 346.83 300.76Q346.09 300.02 345.19 299.68Q344.44 299.4 343.59 299.4Q342.73 299.4 341.98 299.68Q341.09 300.02 340.34 300.76Q339.6 301.5 339.26 302.4Q338.98 303.15 338.98 304Q338.98 304.84 339.25 305.58Q339.59 306.5 340.34 307.26Q341.09 308 341.98 308.34Q342.73 308.62 343.59 308.62Q344.44 308.62 345.19 308.34ZM390.02 318.45Q392.49 317.2 394.33 314.72L391.12 312.03Q389.74 313.95 387.86 314.83Q386.28 315.57 384.35 315.57Q382.2 315.57 380.5 314.7Q378.77 313.81 377.5 312.03L374.31 314.72Q376.28 317.3 378.88 318.55Q381.33 319.73 384.35 319.73Q387.51 319.73 390.02 318.45ZM242.7 354.27L241.61 360.77Q243.21 361.17 245.2 361.17Q249.08 361.06 251.65 359.6Q254.22 358.15 255.64 354.51L268.58 322.47L260.77 322.47L253.59 341.62L246.4 322.47L238.65 322.47L249.82 350.4L248.81 352.74Q248.56 353.27 248.17 353.67Q247.1 354.73 244.98 354.73Q243.73 354.73 242.7 354.27ZM271.83 350L279.06 350L279.06 338.99L290.46 338.99L290.46 350L297.71 350L297.71 322.47L290.46 322.47L290.46 332.67L279.06 332.67L279.06 322.47L271.83 322.47L271.83 350ZM326.55 350L326.55 357.01L333.79 357.01L333.79 343.67L330.77 343.67L330.77 322.47L323.52 322.47L323.52 343.67L312.12 343.67L312.12 322.47L304.89 322.47L304.89 350L326.55 350ZM338.35 350L345.3 350L356.98 332.73L356.98 350L364.23 350L364.23 322.47L356.92 322.47L345.58 339.12L345.58 322.47L338.35 322.47L338.35 350ZM371.41 350L378.36 350L390.04 332.73L390.04 350L397.29 350L397.29 322.47L389.98 322.47L378.64 339.12L378.64 322.47L371.41 322.47L371.41 350Z" fill="#FFFFFF" fill-opacity="1.000000" fill-rule="evenodd"/>
		<path id="тыс. унций" d="M977.66 306.82Q980.94 308.68 985.27 308.68Q990.35 308.68 993.63 306.25Q995.06 305.19 996.15 303.67L991.42 299.27Q990.41 300.7 989.02 301.44Q987.53 302.24 985.61 302.24Q983.54 302.24 981.94 301.36Q981 300.85 980.22 300.02Q979.8 299.57 979.46 299.05Q978.15 297.06 978.15 294.21Q978.15 291.33 979.48 289.35Q979.81 288.85 980.22 288.42Q980.99 287.61 981.91 287.1Q983.52 286.22 985.61 286.22Q987.82 286.22 989.42 287.21Q990.58 287.93 991.42 289.18L996.15 284.74Q995.09 283.27 993.7 282.23Q990.4 279.78 985.27 279.78Q980.96 279.78 977.69 281.62Q976.12 282.51 974.78 283.82Q973.36 285.22 972.44 286.89Q970.67 290.06 970.67 294.21Q970.67 298.48 972.51 301.71Q973.42 303.3 974.78 304.64Q976.1 305.94 977.66 306.82ZM908.67 308L915.96 308L915.96 286.79L923.65 286.79L923.65 280.47L900.97 280.47L900.97 286.79L908.67 286.79L908.67 308ZM935.45 280.47L928.21 280.47L928.21 308L944.85 308Q948.45 308 950.82 306.29Q951.38 305.88 951.87 305.38Q952.98 304.24 953.6 302.88Q954.43 301.1 954.43 298.94Q954.43 296.45 953.4 294.51Q952.82 293.42 951.92 292.5Q951.6 292.16 951.24 291.88Q948.83 289.93 944.85 289.93L935.45 289.93L935.45 280.47ZM958.02 308L965.32 308L965.32 280.47L958.02 280.47L958.02 308ZM935.45 295.97L943.77 295.97Q945.03 295.97 945.86 296.58Q946 296.68 946.13 296.81Q946.47 297.12 946.68 297.51Q947.02 298.13 947.02 298.94Q947.02 299.73 946.69 300.35Q946.48 300.75 946.13 301.08Q946.02 301.19 945.89 301.28Q945.06 301.9 943.77 301.9L935.45 301.9L935.45 295.97ZM1006.19 308.34Q1007.09 308 1007.83 307.26Q1008.61 306.49 1008.95 305.55Q1009.21 304.83 1009.21 304Q1009.21 303.16 1008.94 302.43Q1008.6 301.51 1007.83 300.76Q1007.09 300.02 1006.19 299.68Q1005.45 299.4 1004.59 299.4Q1003.74 299.4 1002.99 299.68Q1002.09 300.02 1001.35 300.76Q1000.61 301.5 1000.27 302.4Q999.98 303.15 999.98 304Q999.98 304.84 1000.26 305.58Q1000.59 306.5 1001.35 307.26Q1002.09 308 1002.99 308.34Q1003.74 308.62 1004.59 308.62Q1005.45 308.62 1006.19 308.34ZM1051.03 318.45Q1053.49 317.2 1055.32 314.72L1052.13 312.03Q1050.74 313.95 1048.87 314.83Q1047.28 315.57 1045.35 315.57Q1043.19 315.57 1041.5 314.7Q1039.77 313.81 1038.51 312.03L1035.31 314.72Q1037.28 317.3 1039.89 318.55Q1042.34 319.73 1045.35 319.73Q1048.51 319.73 1051.03 318.45ZM903.7 354.27L902.61 360.77Q904.21 361.17 906.2 361.17Q910.08 361.06 912.65 359.6Q915.22 358.15 916.64 354.51L929.58 322.47L921.77 322.47L914.59 341.62L907.4 322.47L899.65 322.47L910.82 350.4L909.81 352.74Q909.56 353.27 909.17 353.67Q908.1 354.73 905.98 354.73Q904.73 354.73 903.7 354.27ZM932.83 350L940.06 350L940.06 338.99L951.46 338.99L951.46 350L958.71 350L958.71 322.47L951.46 322.47L951.46 332.67L940.06 332.67L940.06 322.47L932.83 322.47L932.83 350ZM987.55 350L987.55 357.01L994.79 357.01L994.79 343.67L991.77 343.67L991.77 322.47L984.52 322.47L984.52 343.67L973.12 343.67L973.12 322.47L965.89 322.47L965.89 350L987.55 350ZM999.35 350L1006.31 350L1017.98 332.73L1017.98 350L1025.23 350L1025.23 322.47L1017.93 322.47L1006.59 339.12L1006.59 322.47L999.35 322.47L999.35 350ZM1032.41 350L1039.37 350L1051.04 332.73L1051.04 350L1058.29 350L1058.29 322.47L1050.99 322.47L1039.65 339.12L1039.65 322.47L1032.41 322.47L1032.41 350Z" fill="#FFFFFF" fill-opacity="1.000000" fill-rule="evenodd"/>
		<path id="тыс. тонн" d="M908.66 105.82Q911.94 107.68 916.27 107.68Q921.35 107.68 924.63 105.25Q926.06 104.19 927.15 102.67L922.42 98.27Q921.41 99.69 920.02 100.44Q918.53 101.24 916.61 101.24Q914.54 101.24 912.94 100.36Q912 99.85 911.22 99.02Q910.8 98.57 910.46 98.05Q909.15 96.06 909.15 93.21Q909.15 90.33 910.48 88.35Q910.81 87.85 911.22 87.42Q911.99 86.61 912.91 86.1Q914.52 85.22 916.61 85.22Q918.82 85.22 920.42 86.21Q921.58 86.93 922.42 88.18L927.15 83.74Q926.09 82.27 924.7 81.23Q921.4 78.77 916.27 78.77Q911.96 78.77 908.69 80.62Q907.12 81.51 905.78 82.82Q904.36 84.22 903.44 85.89Q901.67 89.06 901.67 93.21Q901.67 97.48 903.51 100.71Q904.42 102.3 905.78 103.64Q907.1 104.94 908.66 105.82ZM839.67 107L846.96 107L846.96 85.79L854.65 85.79L854.65 79.47L831.97 79.47L831.97 85.79L839.67 85.79L839.67 107ZM866.45 79.47L859.21 79.47L859.21 107L875.85 107Q879.45 107 881.82 105.29Q882.38 104.88 882.87 104.38Q883.98 103.24 884.6 101.88Q885.43 100.1 885.43 97.94Q885.43 95.45 884.4 93.51Q883.82 92.42 882.92 91.49Q882.6 91.16 882.24 90.87Q879.83 88.93 875.85 88.93L866.45 88.93L866.45 79.47ZM889.02 107L896.32 107L896.32 79.47L889.02 79.47L889.02 107ZM866.45 94.97L874.77 94.97Q876.03 94.97 876.86 95.58Q877 95.68 877.13 95.81Q877.47 96.12 877.68 96.51Q878.02 97.13 878.02 97.94Q878.02 98.73 877.69 99.35Q877.48 99.75 877.13 100.08Q877.02 100.19 876.89 100.28Q876.06 100.9 874.77 100.9L866.45 100.9L866.45 94.97ZM937.19 107.34Q938.09 107 938.83 106.26Q939.6 105.48 939.94 104.55Q940.21 103.83 940.21 103Q940.21 102.16 939.93 101.43Q939.59 100.51 938.83 99.76Q938.09 99.02 937.19 98.68Q936.44 98.4 935.59 98.4Q934.73 98.4 933.98 98.68Q933.09 99.02 932.34 99.76Q931.6 100.5 931.26 101.4Q930.98 102.15 930.98 103Q930.98 103.84 931.25 104.58Q931.59 105.5 932.34 106.26Q933.09 107 933.98 107.34Q934.73 107.62 935.59 107.62Q936.44 107.62 937.19 107.34ZM880.08 147.54Q881.44 146.69 882.57 145.49Q884.2 143.79 885.16 141.77Q886.57 138.82 886.57 135.21Q886.57 131.52 885.12 128.55Q884.16 126.59 882.57 124.94Q881.46 123.77 880.14 122.94Q876.74 120.77 871.97 120.77Q867.22 120.77 863.83 122.93Q862.51 123.77 861.39 124.94Q859.87 126.55 858.93 128.45Q857.44 131.46 857.44 135.21Q857.44 138.88 858.88 141.87Q859.83 143.83 861.39 145.49Q862.54 146.69 863.9 147.55Q867.26 149.68 871.97 149.68Q876.7 149.68 880.08 147.54ZM839.67 149L846.96 149L846.96 127.79L854.65 127.79L854.65 121.47L831.97 121.47L831.97 127.79L839.67 127.79L839.67 149ZM891.93 149L899.16 149L899.16 137.99L910.56 137.99L910.56 149L917.81 149L917.81 121.47L910.56 121.47L910.56 131.67L899.16 131.67L899.16 121.47L891.93 121.47L891.93 149ZM924.99 149L932.22 149L932.22 137.99L943.62 137.99L943.62 149L950.87 149L950.87 121.47L943.62 121.47L943.62 131.67L932.22 131.67L932.22 121.47L924.99 121.47L924.99 149ZM868.47 142.35Q867.56 141.81 866.85 140.94Q866.47 140.48 866.17 139.97Q864.97 137.94 864.97 135.21Q864.97 132.63 866.07 130.67Q866.41 130.07 866.85 129.53Q867.57 128.64 868.5 128.09Q869.98 127.22 871.97 127.22Q873.97 127.22 875.46 128.09Q876.4 128.64 877.13 129.53Q877.61 130.11 877.97 130.75Q879.04 132.68 879.04 135.21Q879.04 137.88 877.87 139.88Q877.55 140.44 877.13 140.94Q876.41 141.81 875.49 142.35Q873.99 143.24 871.97 143.24Q869.96 143.24 868.47 142.35Z" fill="#FFFFFF" fill-opacity="1.000000" fill-rule="evenodd"/>
		<path id="Никель" d="M68.91 40L70.41 40L70.41 27.99L68.91 27.99L68.91 33.16L61.89 33.16L61.89 27.99L60.4 27.99L60.4 40L61.89 40L61.89 34.49L68.91 34.49L68.91 40ZM93.99 39.68Q94.96 40.21 96.22 40.21Q97.7 40.21 98.8 39.56Q99.27 39.28 99.68 38.88L99.03 38Q98.59 38.45 98.07 38.71Q97.3 39.1 96.35 39.1Q95.43 39.1 94.74 38.7Q94.42 38.51 94.15 38.23Q93.83 37.91 93.62 37.52Q93.27 36.89 93.21 36.09L100.25 36.09L100.25 35.75Q100.25 34.14 99.54 32.98Q99.36 32.68 99.13 32.41Q98.73 31.94 98.23 31.63Q97.32 31.08 96.07 31.08Q95.12 31.08 94.33 31.45Q93.6 31.78 93.01 32.41Q92.54 32.93 92.24 33.54Q91.79 34.48 91.79 35.64Q91.79 37.13 92.46 38.22Q92.7 38.61 93.03 38.95Q93.47 39.39 93.99 39.68ZM73.16 40L74.46 40L79.05 33.23L79.05 40L80.4 40L80.4 31.3L79.07 31.3L74.51 37.94L74.51 31.3L73.16 31.3L73.16 40ZM89.02 40L90.75 40L86.88 35.25L90.73 31.3L89.02 31.3L84.45 35.93L84.45 31.3L83.1 31.3L83.1 40L84.45 40L84.45 37.51L85.89 36.09L89.02 40ZM101.4 39.1L101.4 40.21Q102.07 40.21 102.58 39.93Q103.06 39.67 103.4 39.18Q104.12 38.14 104.41 35.75L104.81 32.49L108.32 32.49L108.32 40L109.67 40L109.67 31.3L103.62 31.3L103.06 35.58Q102.81 37.48 102.41 38.29Q102.09 38.94 101.63 39.07Q101.52 39.1 101.4 39.1ZM113.71 31.3L112.36 31.3L112.36 40L116.97 40Q117.99 40 118.66 39.51Q118.83 39.39 118.98 39.23Q119.25 38.95 119.42 38.61Q119.71 38.04 119.71 37.33Q119.71 36.61 119.41 36.04Q119.25 35.71 118.99 35.43Q118.86 35.29 118.7 35.18Q118.03 34.67 116.97 34.67L113.71 34.67L113.71 31.3ZM98.78 34.21Q98.91 34.64 98.92 35.1L93.21 35.1Q93.24 34.59 93.4 34.12Q93.6 33.57 94.01 33.08Q94.27 32.78 94.59 32.58Q95.2 32.2 96.06 32.2Q97.05 32.2 97.71 32.67Q97.96 32.85 98.16 33.09Q98.59 33.61 98.78 34.21ZM113.71 35.86L116.83 35.86Q117.46 35.86 117.84 36.17Q117.89 36.21 117.94 36.26Q118.01 36.34 118.07 36.43Q118.32 36.8 118.32 37.33Q118.32 37.86 118.08 38.22Q118.02 38.32 117.94 38.41Q117.89 38.46 117.84 38.5Q117.46 38.81 116.83 38.81L113.71 38.81L113.71 35.86Z" fill="#FFFFFF" fill-opacity="1.000000" fill-rule="evenodd"/>
		<path id="Платина" d="M70.91 240L72.41 240L72.41 227.99L62.4 227.99L62.4 240L63.89 240L63.89 229.32L70.91 229.32L70.91 240ZM90.53 240L91.88 240L91.88 234.02Q91.88 232.85 91.31 232.15Q91.15 231.96 90.95 231.81Q90.01 231.09 88.52 231.09Q87.32 231.09 86.36 231.55Q85.64 231.91 85.04 232.53L85.67 233.46Q86.38 232.71 87.24 232.43Q87.76 232.26 88.33 232.26Q89.27 232.26 89.87 232.71Q89.9 232.73 89.92 232.75Q90.14 232.92 90.28 233.15Q90.53 233.54 90.53 234.1L90.53 235.66Q90.26 235.34 89.93 235.11Q89.02 234.47 87.65 234.47Q86.93 234.47 86.32 234.73Q85.89 234.91 85.52 235.22Q85.26 235.44 85.07 235.71Q84.61 236.36 84.61 237.33Q84.61 238.2 85 238.83Q85.2 239.17 85.53 239.44Q85.97 239.82 86.49 240.01Q87.03 240.21 87.65 240.21Q88.78 240.21 89.64 239.73Q90.13 239.45 90.53 239.01L90.53 240ZM127.13 240L128.48 240L128.48 234.02Q128.48 232.85 127.9 232.15Q127.74 231.96 127.54 231.81Q126.6 231.09 125.11 231.09Q123.92 231.09 122.96 231.55Q122.23 231.91 121.64 232.53L122.27 233.46Q122.97 232.71 123.83 232.43Q124.35 232.26 124.93 232.26Q125.87 232.26 126.47 232.71Q126.49 232.73 126.52 232.75Q126.74 232.92 126.88 233.15Q127.13 233.54 127.13 234.1L127.13 235.66Q126.85 235.34 126.52 235.11Q125.61 234.47 124.25 234.47Q123.53 234.47 122.91 234.73Q122.49 234.91 122.11 235.22Q121.85 235.44 121.66 235.71Q121.21 236.36 121.21 237.33Q121.21 238.2 121.59 238.83Q121.8 239.17 122.12 239.44Q122.57 239.82 123.08 240.01Q123.63 240.21 124.25 240.21Q125.38 240.21 126.23 239.73Q126.72 239.45 127.13 239.01L127.13 240ZM74.14 239.1L74.14 240.21Q74.8 240.21 75.31 239.93Q75.79 239.68 76.13 239.18Q76.85 238.14 77.14 235.75L77.54 232.49L81.05 232.49L81.05 240L82.4 240L82.4 231.31L76.35 231.31L75.79 235.59Q75.54 237.48 75.14 238.29Q74.82 238.94 74.36 239.07Q74.25 239.1 74.14 239.1ZM96.17 240L97.52 240L97.52 232.49L100.05 232.49L100.05 231.31L93.65 231.31L93.65 232.49L96.17 232.49L96.17 240ZM101.82 240L103.12 240L107.71 233.23L107.71 240L109.06 240L109.06 231.31L107.72 231.31L103.17 237.95L103.17 231.31L101.82 231.31L101.82 240ZM111.75 240L113.1 240L113.1 236.11L117.64 236.11L117.64 240L118.99 240L118.99 231.31L117.64 231.31L117.64 234.92L113.1 234.92L113.1 231.31L111.75 231.31L111.75 240ZM90.05 238.67Q89.32 239.24 88.14 239.24Q87.4 239.24 86.86 238.91Q86.72 238.82 86.6 238.71Q86.32 238.47 86.17 238.16Q86 237.8 86 237.35Q86 236.86 86.2 236.47Q86.35 236.2 86.6 235.98Q86.72 235.87 86.86 235.78Q87.4 235.44 88.14 235.44Q89.32 235.44 90.06 236.02Q90.33 236.23 90.53 236.52L90.53 238.16Q90.32 238.45 90.05 238.67ZM126.64 238.67Q125.91 239.24 124.73 239.24Q123.99 239.24 123.46 238.91Q123.32 238.82 123.19 238.71Q122.92 238.47 122.77 238.16Q122.59 237.8 122.59 237.35Q122.59 236.86 122.8 236.47Q122.94 236.2 123.19 235.98Q123.32 235.87 123.46 235.78Q123.99 235.44 124.73 235.44Q125.92 235.44 126.65 236.02Q126.92 236.23 127.13 236.52L127.13 238.16Q126.92 238.45 126.64 238.67Z" fill="#FFFFFF" fill-opacity="1.000000" fill-rule="evenodd"/>
		<path id="Палладий" d="M667.91 241L669.41 241L669.41 228.99L659.4 228.99L659.4 241L660.89 241L660.89 230.32L667.91 230.32L667.91 241ZM736.46 230.9Q737.23 230.51 737.81 229.73L737.14 229.15Q736.7 229.79 736.08 230.12Q735.46 230.45 734.66 230.45Q733.91 230.45 733.31 230.16Q732.65 229.84 732.15 229.15L731.49 229.73Q732.12 230.55 732.94 230.94Q733.71 231.31 734.66 231.31Q735.66 231.31 736.46 230.9ZM677.6 241L678.95 241L678.95 235.02Q678.95 233.85 678.37 233.15Q678.21 232.96 678.01 232.81Q677.07 232.09 675.58 232.09Q674.39 232.09 673.43 232.55Q672.7 232.91 672.11 233.53L672.74 234.46Q673.44 233.71 674.3 233.43Q674.82 233.26 675.4 233.26Q676.34 233.26 676.94 233.71Q676.96 233.73 676.99 233.75Q677.21 233.92 677.35 234.15Q677.6 234.54 677.6 235.1L677.6 236.66Q677.32 236.34 676.99 236.11Q676.08 235.47 674.72 235.47Q674 235.47 673.38 235.73Q672.96 235.91 672.58 236.22Q672.32 236.44 672.13 236.71Q671.68 237.36 671.68 238.33Q671.68 239.2 672.06 239.83Q672.27 240.17 672.59 240.44Q673.04 240.82 673.55 241.01Q674.1 241.21 674.72 241.21Q675.85 241.21 676.7 240.73Q677.19 240.45 677.6 240.01L677.6 241ZM706.95 241L708.3 241L708.3 235.02Q708.3 233.85 707.73 233.15Q707.57 232.96 707.37 232.81Q706.43 232.09 704.94 232.09Q703.75 232.09 702.78 232.55Q702.06 232.91 701.47 233.53L702.09 234.46Q702.8 233.71 703.66 233.43Q704.18 233.26 704.76 233.26Q705.69 233.26 706.29 233.71Q706.32 233.73 706.34 233.75Q706.57 233.92 706.71 234.15Q706.95 234.54 706.95 235.1L706.95 236.66Q706.68 236.34 706.35 236.11Q705.44 235.47 704.08 235.47Q703.35 235.47 702.74 235.73Q702.31 235.91 701.94 236.22Q701.68 236.44 701.49 236.71Q701.04 237.36 701.04 238.33Q701.04 239.2 701.42 239.83Q701.63 240.17 701.95 240.44Q702.4 240.82 702.91 241.01Q703.46 241.21 704.08 241.21Q705.2 241.21 706.06 240.73Q706.55 240.45 706.95 240.01L706.95 241ZM680.62 240.1L680.62 241.21Q681.29 241.21 681.8 240.93Q682.27 240.68 682.62 240.18Q683.34 239.14 683.63 236.75L684.02 233.49L687.54 233.49L687.54 241L688.88 241L688.88 232.31L682.84 232.31L682.28 236.59Q682.02 238.48 681.63 239.29Q681.31 239.94 680.84 240.07Q680.74 240.1 680.62 240.1ZM690.56 240.1L690.56 241.21Q691.22 241.21 691.74 240.93Q692.21 240.68 692.55 240.18Q693.27 239.14 693.56 236.75L693.96 233.49L697.47 233.49L697.47 241L698.82 241L698.82 232.31L692.77 232.31L692.22 236.59Q691.96 238.48 691.57 239.29Q691.24 239.94 690.78 240.07Q690.67 240.1 690.56 240.1ZM709.98 239.88L709.98 243.21L711.33 243.21L711.33 241L717.9 241L717.9 243.21L719.25 243.21L719.25 239.81L718.24 239.81L718.24 232.31L712.2 232.31L711.64 236.59Q711.4 238.4 711.02 239.08Q710.76 239.54 710.37 239.75Q710.19 239.84 709.98 239.88ZM721.1 241L722.4 241L726.99 234.23L726.99 241L728.34 241L728.34 232.31L727.01 232.31L722.45 238.95L722.45 232.31L721.1 232.31L721.1 241ZM731.04 241L732.33 241L736.93 234.23L736.93 241L738.28 241L738.28 232.31L736.94 232.31L732.39 238.95L732.39 232.31L731.04 232.31L731.04 241ZM712.99 236.75L713.38 233.49L716.89 233.49L716.89 239.81L711.73 239.81Q712.68 239.04 712.99 236.75ZM677.11 239.67Q676.38 240.24 675.2 240.24Q674.46 240.24 673.93 239.91Q673.79 239.82 673.66 239.71Q673.39 239.47 673.24 239.16Q673.06 238.8 673.06 238.35Q673.06 237.86 673.27 237.47Q673.41 237.2 673.66 236.98Q673.79 236.87 673.93 236.78Q674.46 236.44 675.2 236.44Q676.39 236.44 677.12 237.02Q677.39 237.23 677.6 237.52L677.6 239.16Q677.39 239.45 677.11 239.67ZM706.47 239.67Q705.74 240.24 704.56 240.24Q703.82 240.24 703.29 239.91Q703.15 239.82 703.02 239.71Q702.75 239.47 702.6 239.16Q702.42 238.8 702.42 238.35Q702.42 237.86 702.63 237.47Q702.77 237.2 703.02 236.98Q703.15 236.87 703.29 236.78Q703.82 236.44 704.56 236.44Q705.75 236.44 706.48 237.02Q706.75 237.23 706.95 237.52L706.95 239.16Q706.74 239.45 706.47 239.67Z" fill="#FFFFFF" fill-opacity="1.000000" fill-rule="evenodd"/>
		<path id="Медь" d="M670.66 40L672.15 40L672.15 27.99L670.01 27.99L666.27 37.03L662.54 27.99L660.4 27.99L660.4 40L661.89 40L661.89 30.11L665.96 40L666.57 40L670.66 30.11L670.66 40ZM676.6 39.68Q677.57 40.21 678.83 40.21Q680.31 40.21 681.41 39.56Q681.89 39.28 682.29 38.88L681.64 38Q681.2 38.45 680.68 38.71Q679.92 39.1 678.96 39.1Q678.04 39.1 677.35 38.7Q677.03 38.51 676.76 38.23Q676.44 37.91 676.23 37.52Q675.88 36.89 675.83 36.09L682.87 36.09L682.87 35.75Q682.87 34.14 682.15 32.98Q681.97 32.68 681.74 32.41Q681.34 31.94 680.84 31.63Q679.93 31.08 678.69 31.08Q677.73 31.08 676.94 31.45Q676.21 31.78 675.63 32.41Q675.15 32.93 674.86 33.54Q674.41 34.48 674.41 35.64Q674.41 37.13 675.07 38.22Q675.31 38.61 675.64 38.95Q676.08 39.39 676.6 39.68ZM684.02 38.88L684.02 42.21L685.37 42.21L685.37 40L691.94 40L691.94 42.21L693.28 42.21L693.28 38.81L692.28 38.81L692.28 31.3L686.23 31.3L685.67 35.58Q685.44 37.4 685.06 38.08Q684.8 38.54 684.41 38.74Q684.23 38.84 684.02 38.88ZM696.49 31.3L695.14 31.3L695.14 40L699.75 40Q700.76 40 701.43 39.51Q701.6 39.39 701.75 39.23Q702.03 38.95 702.2 38.61Q702.48 38.04 702.48 37.33Q702.48 36.61 702.19 36.04Q702.02 35.71 701.76 35.43Q701.63 35.29 701.48 35.18Q700.81 34.67 699.75 34.67L696.49 34.67L696.49 31.3ZM681.39 34.21Q681.52 34.64 681.53 35.1L675.83 35.1Q675.85 34.59 676.02 34.12Q676.22 33.57 676.62 33.08Q676.88 32.78 677.2 32.58Q677.82 32.2 678.67 32.2Q679.67 32.2 680.33 32.67Q680.57 32.85 680.77 33.09Q681.2 33.61 681.39 34.21ZM687.02 35.75L687.42 32.49L690.93 32.49L690.93 38.81L685.76 38.81Q686.71 38.04 687.02 35.75ZM696.49 35.86L699.6 35.86Q700.23 35.86 700.61 36.17Q700.66 36.21 700.71 36.26Q700.79 36.34 700.85 36.43Q701.1 36.8 701.1 37.33Q701.1 37.86 700.86 38.22Q700.79 38.32 700.71 38.41Q700.66 38.46 700.61 38.5Q700.23 38.81 699.6 38.81L696.49 38.81L696.49 35.86Z" fill="#FFFFFF" fill-opacity="1.000000" fill-rule="evenodd"/>
		<rect id="Rectangle 538" x="40.500000" y="20.500977" rx="14.500000" width="100.000000" height="29.000000" stroke="#FFFFFF" stroke-opacity="1.000000" stroke-width="1.000000"/>
		<rect id="Rectangle 539" x="40.500000" y="220.501953" rx="14.500000" width="110.000000" height="29.000000" stroke="#FFFFFF" stroke-opacity="1.000000" stroke-width="1.000000"/>
		<rect id="Rectangle 540" x="640.500000" y="220.501953" rx="15.000000" width="120.000000" height="30.000000" stroke="#FFFFFF" stroke-opacity="1.000000" stroke-width="1.000000"/>
		<rect id="Rectangle 541" x="640.500000" y="20.500977" rx="14.500000" width="79.000000" height="29.000000" stroke="#FFFFFF" stroke-opacity="1.000000" stroke-width="1.000000"/>
	</g>
</svg>
