<svg width="280.000000" height="180.000000" viewBox="0 0 280 180" fill="none" xmlns="http://www.w3.org/2000/svg" xmlns:xlink="http://www.w3.org/1999/xlink">
	<desc>
			Created with Pixso.
	</desc>
	<defs>
		<clipPath id="clip41_411">
			<rect id="2024-0" width="280.000000" height="180.000000" fill="white" fill-opacity="0"/>
		</clipPath>
	</defs>
	<rect id="2024-0" width="280.000000" height="180.000000" fill="#FFFFFF" fill-opacity="0"/>
	<g clip-path="url(#clip41_411)">
		<path id="Rectangle 532" d="M21 70L259 70C270.59 70 280 79.4 280 91L280 180L21 180C9.4 180 0 170.59 0 159L0 91C0 79.4 9.4 70 21 70Z" fill="#D0D1D4" fill-opacity="1.000000" fill-rule="evenodd"/>
		<path id="2024" d="M51.71 149.5L88.36 149.5L88.36 140.37L68.5 140.37Q78.57 133.06 83.28 127.34Q87.67 121.99 87.96 116.42Q87.98 116.02 87.98 115.62Q87.98 111.67 86.33 108.61Q85.03 106.18 82.69 104.32Q81.95 103.72 81.15 103.21Q76.27 100.08 69.38 100.08Q67.19 100.08 65.05 100.42Q61.99 100.9 59.04 102.09Q55.92 103.34 53.41 105.34Q51.9 106.55 50.61 108.02L56.53 114.89Q59.37 111.93 62.84 110.53Q65.96 109.27 69.59 109.27Q72.07 109.27 74.02 110.28Q74.6 110.58 75.13 110.96Q76.2 111.73 76.78 112.77Q77.47 114 77.47 115.62Q77.47 119.93 72.39 124.87Q67.33 129.78 51.71 141.39L51.71 149.5ZM123.33 148.37Q124.74 147.63 126.01 146.61Q128.61 144.52 130.41 141.88Q131.84 139.77 132.76 137.31Q134.85 131.76 134.85 125.19Q134.85 118.61 132.76 113.07Q131.82 110.53 130.32 108.37Q128.55 105.82 126.01 103.8Q124.79 102.83 123.44 102.11Q119.61 100.08 114.69 100.08Q109.88 100.08 106.08 102.04Q104.65 102.78 103.36 103.8Q100.76 105.86 98.97 108.47Q97.52 110.59 96.6 113.07Q94.55 118.61 94.55 125.19Q94.55 131.76 96.6 137.31Q97.49 139.71 98.88 141.78Q100.69 144.48 103.36 146.61Q104.7 147.68 106.19 148.45Q109.95 150.37 114.69 150.37Q119.53 150.37 123.33 148.37ZM140.77 149.5L177.42 149.5L177.42 140.37L157.56 140.37Q167.63 133.06 172.34 127.34Q176.73 121.99 177.02 116.42Q177.04 116.02 177.04 115.62Q177.04 111.67 175.39 108.61Q174.09 106.18 171.75 104.32Q171.01 103.72 170.21 103.21Q165.33 100.08 158.44 100.08Q156.25 100.08 154.11 100.42Q151.05 100.9 148.1 102.09Q144.98 103.34 142.47 105.34Q140.96 106.55 139.67 108.02L145.59 114.89Q148.43 111.93 151.9 110.53Q155.02 109.27 158.65 109.27Q161.13 109.27 163.08 110.28Q163.66 110.58 164.19 110.96Q165.26 111.73 165.84 112.77Q166.53 114 166.53 115.62Q166.53 119.93 161.45 124.87Q156.39 129.78 140.77 141.39L140.77 149.5ZM206.25 149.5L216.62 149.5L216.62 139.43L222.89 139.43L222.89 130.3L216.62 130.3L216.62 100.81L202.31 100.81L182.95 131.25L182.95 139.43L206.25 139.43L206.25 149.5ZM110.39 140.08Q108.57 138.99 107.4 136.81Q105.07 132.42 105.07 125.2Q105.07 117.97 107.4 113.62Q108.56 111.46 110.37 110.37Q112.2 109.27 114.69 109.27Q117.23 109.27 119.07 110.4Q120.84 111.49 121.96 113.62Q124.26 117.97 124.26 125.2Q124.26 132.42 121.96 136.81Q120.83 138.96 119.05 140.05Q117.21 141.17 114.69 141.17Q112.21 141.17 110.39 140.08ZM206.25 110L206.25 130.3L193.11 130.3L206.25 110Z" fill="#F3F4F8" fill-opacity="1.000000" fill-rule="evenodd"/>
		<path id="Rectangle 533" d="M-879 200L-341 200C-329.41 200 -320 209.4 -320 221L-320 380L-879 380C-890.6 380 -900 370.59 -900 359L-900 221C-900 209.4 -890.6 200 -879 200Z" fill="#0081C9" fill-opacity="1.000000" fill-rule="evenodd"/>
		<path id="Rectangle 534" d="M-279 200L259 200C270.59 200 280 209.4 280 221L280 380L-279 380C-290.6 380 -300 370.59 -300 359L-300 221C-300 209.4 -290.6 200 -279 200Z" fill="#0081C9" fill-opacity="1.000000" fill-rule="evenodd"/>
		<path id="Rectangle 536" d="M-879 400L-341 400C-329.41 400 -320 409.4 -320 421L-320 580L-879 580C-890.6 580 -900 570.59 -900 559L-900 421C-900 409.4 -890.6 400 -879 400Z" fill="#0081C9" fill-opacity="1.000000" fill-rule="evenodd"/>
		<path id="Rectangle 537" d="M-279 400L259 400C270.59 400 280 409.4 280 421L280 580L-279 580C-290.6 580 -300 570.59 -300 559L-300 421C-300 409.4 -290.6 400 -279 400Z" fill="#0081C9" fill-opacity="1.000000" fill-rule="evenodd"/>
		<path id="205" d="M-859.2 349.5L-808 349.5L-808 336.75L-835.74 336.75Q-821.67 326.54 -815.1 318.54Q-808.96 311.06 -808.55 303.28Q-808.52 302.72 -808.52 302.16Q-808.52 296.64 -810.83 292.36Q-812.65 288.98 -815.92 286.37Q-816.95 285.54 -818.06 284.83Q-824.88 280.44 -834.52 280.44Q-837.58 280.44 -840.57 280.92Q-844.84 281.6 -848.96 283.26Q-853.32 285 -856.83 287.8Q-858.94 289.48 -860.74 291.55L-852.47 301.14Q-848.5 297.01 -843.65 295.05Q-839.29 293.29 -834.22 293.29Q-830.76 293.29 -828.03 294.7Q-827.22 295.12 -826.48 295.66Q-824.98 296.73 -824.17 298.18Q-823.21 299.9 -823.21 302.16Q-823.21 308.18 -830.31 315.08Q-837.38 321.96 -859.2 338.17L-859.2 349.5ZM-759.14 347.93Q-757.16 346.89 -755.39 345.46Q-751.75 342.54 -749.24 338.86Q-747.24 335.91 -745.95 332.46Q-743.04 324.72 -743.04 315.53Q-743.04 306.34 -745.95 298.6Q-747.28 295.05 -749.37 292.03Q-751.84 288.47 -755.39 285.65Q-757.09 284.29 -758.98 283.29Q-764.34 280.44 -771.2 280.44Q-777.93 280.44 -783.24 283.19Q-785.24 284.22 -787.04 285.65Q-790.67 288.52 -793.17 292.18Q-795.2 295.13 -796.48 298.6Q-799.34 306.34 -799.34 315.53Q-799.34 324.72 -796.48 332.46Q-795.24 335.82 -793.3 338.71Q-790.76 342.49 -787.04 345.46Q-785.17 346.96 -783.08 348.03Q-777.83 350.72 -771.2 350.72Q-764.44 350.72 -759.14 347.93ZM-730.19 344.43Q-721.57 350.72 -708.36 350.72Q-696.8 350.72 -689.53 345.13Q-689.04 344.75 -688.56 344.34Q-685.87 342.03 -684.15 339.15Q-681.12 334.06 -681.12 327.16Q-681.12 320.15 -684.26 315.09Q-685.59 312.94 -687.49 311.15Q-690.27 308.52 -693.56 307.04Q-697.82 305.12 -702.96 305.12Q-709.66 305.12 -714.5 308.12Q-716.36 309.26 -717.95 310.85L-717.95 294.21L-685.7 294.21L-685.7 281.46L-732.42 281.46L-732.42 320.54L-722.33 323.18Q-720 320.97 -717.25 319.65Q-713.12 317.67 -708.04 317.67Q-702.34 317.67 -699.07 320.44Q-697.8 321.51 -697.02 322.86Q-695.81 324.98 -695.81 327.78Q-695.81 329.64 -696.45 331.24Q-697.29 333.33 -699.22 334.98Q-699.25 335 -699.27 335.02Q-702.68 337.87 -708.46 337.87Q-714.89 337.87 -720.01 335.28Q-723.58 333.48 -726.52 330.42L-734.56 340.53Q-732.55 342.72 -730.19 344.43ZM-777.22 336.34Q-779.76 334.81 -781.39 331.77Q-784.65 325.64 -784.65 315.56Q-784.65 305.45 -781.39 299.37Q-779.77 296.35 -777.25 294.83Q-774.69 293.29 -771.2 293.29Q-767.66 293.29 -765.09 294.87Q-762.62 296.39 -761.04 299.37Q-757.83 305.45 -757.83 315.56Q-757.83 325.64 -761.04 331.77Q-762.63 334.77 -765.12 336.3Q-767.68 337.87 -771.2 337.87Q-774.67 337.87 -777.22 336.34Z" fill="#FFFFFF" fill-opacity="1.000000" fill-rule="evenodd"/>
		<path id="667" d="M-847.52 545.63Q-840.75 550.72 -830.16 550.72Q-820.99 550.72 -814.54 546.53Q-812.88 545.45 -811.41 544.09Q-808.11 541.08 -806.31 537.34Q-804.16 532.87 -804.16 527.36Q-804.16 519.88 -807.64 514.75Q-808.99 512.74 -810.88 511.1Q-813.15 509.12 -815.76 507.8Q-820.88 505.22 -827.29 505.22Q-829.35 505.22 -831.32 505.61Q-834.46 506.21 -837.4 507.79Q-842.19 510.33 -844.75 514.01Q-844.85 513.49 -844.85 512.57Q-844.85 506.76 -842.42 502.27Q-841.44 500.46 -840.07 498.87Q-837.74 496.17 -834.8 494.78Q-831.66 493.29 -827.82 493.29Q-823.36 493.29 -819.65 494.95Q-816.72 496.26 -814.25 498.6L-807.72 487.49Q-810.4 485.2 -813.46 483.66Q-819.83 480.44 -827.82 480.44Q-838.16 480.44 -845.41 485.18Q-848.53 487.21 -851.08 490.13Q-852.03 491.23 -852.88 492.4Q-859.54 501.6 -859.54 515.63Q-859.54 531.14 -852.2 540.93Q-850.15 543.66 -847.52 545.63ZM-785.51 545.63Q-778.73 550.72 -768.14 550.72Q-758.97 550.72 -752.52 546.53Q-750.87 545.45 -749.39 544.09Q-746.09 541.08 -744.3 537.34Q-742.14 532.87 -742.14 527.36Q-742.14 519.88 -745.62 514.75Q-746.98 512.74 -748.87 511.1Q-751.14 509.12 -753.74 507.8Q-758.86 505.22 -765.28 505.22Q-767.33 505.22 -769.31 505.61Q-772.44 506.21 -775.39 507.79Q-780.17 510.33 -782.74 514.01Q-782.83 513.49 -782.83 512.57Q-782.83 506.76 -780.4 502.27Q-779.42 500.46 -778.05 498.87Q-775.73 496.17 -772.78 494.78Q-769.64 493.29 -765.8 493.29Q-761.35 493.29 -757.63 494.95Q-754.7 496.26 -752.23 498.6L-745.71 487.49Q-748.39 485.2 -751.44 483.66Q-757.81 480.44 -765.8 480.44Q-776.14 480.44 -783.39 485.18Q-786.51 487.21 -789.06 490.13Q-790.02 491.23 -790.87 492.4Q-797.53 501.6 -797.53 515.63Q-797.53 531.14 -790.18 540.93Q-788.13 543.66 -785.51 545.63ZM-726.62 549.5L-710.71 549.5L-685.43 491.55L-685.43 481.46L-736.53 481.46L-736.53 494.21L-702.24 494.21L-726.62 549.5ZM-823.21 535.65Q-826.3 537.87 -830.98 537.87Q-836.1 537.87 -839.28 535.38Q-840.14 534.7 -840.87 533.83Q-841.74 532.79 -842.42 531.63Q-844.36 528.32 -844.75 524.1Q-842.17 520.84 -838.8 519.24Q-835.51 517.67 -831.48 517.67Q-826.63 517.67 -823.16 519.86Q-822.83 520.06 -822.51 520.29Q-821.12 521.26 -820.26 522.59Q-818.83 524.77 -818.83 527.88Q-818.83 528.89 -819.06 529.84Q-819.7 532.54 -822.16 534.81Q-822.66 535.26 -823.21 535.65ZM-761.19 535.65Q-764.28 537.87 -768.96 537.87Q-774.09 537.87 -777.26 535.38Q-778.13 534.7 -778.85 533.83Q-779.72 532.79 -780.4 531.63Q-782.35 528.32 -782.74 524.1Q-780.15 520.84 -776.78 519.24Q-773.5 517.67 -769.46 517.67Q-764.61 517.67 -761.14 519.86Q-760.81 520.06 -760.5 520.29Q-759.11 521.26 -758.24 522.59Q-756.81 524.77 -756.81 527.88Q-756.81 528.89 -757.04 529.84Q-757.68 532.54 -760.15 534.81Q-760.64 535.26 -761.19 535.65Z" fill="#FFFFFF" fill-opacity="1.000000" fill-rule="evenodd"/>
		<path id="2692" d="M-129.97 546.53Q-123.21 550.62 -113.97 550.62Q-103.6 550.62 -96.36 545.85Q-93.27 543.83 -90.76 540.93Q-89.78 539.8 -88.92 538.59Q-82.34 529.42 -82.34 515.53Q-82.34 505.54 -85.26 497.85Q-86.57 494.34 -88.69 491.41Q-91.24 487.91 -94.94 485.25Q-95.51 484.84 -96.09 484.47Q-102.54 480.34 -111.63 480.34Q-120.67 480.34 -127.12 484.44Q-128.87 485.55 -130.43 486.97Q-133.79 490.02 -135.61 493.82Q-137.73 498.25 -137.73 503.7Q-137.73 511.1 -134.31 516.2Q-132.91 518.28 -130.95 519.99Q-128.62 522 -125.95 523.31Q-120.83 525.84 -114.47 525.84Q-112.28 525.84 -110.18 525.41Q-107.19 524.79 -104.38 523.3Q-99.58 520.74 -96.94 517.05L-96.94 518.59Q-96.94 523.88 -98.99 528.18Q-99.99 530.26 -101.47 532.12Q-103.16 534.23 -105.34 535.56Q-108.98 537.77 -113.97 537.77Q-118.33 537.77 -122 536.17Q-125 534.86 -127.54 532.46L-133.97 543.57Q-132.09 545.25 -129.97 546.53ZM-259.2 549.5L-208 549.5L-208 536.75L-235.74 536.75Q-221.67 526.54 -215.1 518.54Q-208.96 511.06 -208.55 503.28Q-208.52 502.72 -208.52 502.16Q-208.52 496.64 -210.83 492.36Q-212.65 488.98 -215.92 486.37Q-216.95 485.54 -218.06 484.83Q-224.88 480.44 -234.52 480.44Q-237.58 480.44 -240.57 480.92Q-244.84 481.6 -248.96 483.26Q-253.32 485 -256.83 487.8Q-258.94 489.48 -260.74 491.55L-252.47 501.14Q-248.5 497.01 -243.65 495.05Q-239.29 493.29 -234.22 493.29Q-230.76 493.29 -228.03 494.7Q-227.22 495.12 -226.48 495.66Q-224.98 496.73 -224.17 498.18Q-223.21 499.9 -223.21 502.16Q-223.21 508.18 -230.31 515.08Q-237.38 521.96 -259.2 538.17L-259.2 549.5ZM-187.32 545.63Q-180.55 550.72 -169.96 550.72Q-160.79 550.72 -154.34 546.53Q-152.68 545.45 -151.21 544.09Q-147.91 541.08 -146.11 537.34Q-143.96 532.87 -143.96 527.36Q-143.96 519.88 -147.44 514.75Q-148.79 512.74 -150.68 511.1Q-152.95 509.12 -155.56 507.8Q-160.68 505.22 -167.09 505.22Q-169.15 505.22 -171.12 505.61Q-174.26 506.21 -177.2 507.79Q-181.99 510.33 -184.55 514.01Q-184.65 513.49 -184.65 512.57Q-184.65 506.76 -182.22 502.27Q-181.24 500.46 -179.87 498.87Q-177.54 496.17 -174.6 494.78Q-171.46 493.29 -167.62 493.29Q-163.16 493.29 -159.45 494.95Q-156.52 496.26 -154.05 498.6L-147.52 487.49Q-150.2 485.2 -153.26 483.66Q-159.63 480.44 -167.62 480.44Q-177.96 480.44 -185.21 485.18Q-188.33 487.21 -190.88 490.13Q-191.83 491.23 -192.68 492.4Q-199.34 501.6 -199.34 515.63Q-199.34 531.14 -192 540.93Q-189.95 543.66 -187.32 545.63ZM-73.97 549.5L-22.77 549.5L-22.77 536.75L-50.51 536.75Q-36.44 526.54 -29.86 518.54Q-23.73 511.06 -23.32 503.28Q-23.29 502.72 -23.29 502.16Q-23.29 496.64 -25.59 492.36Q-27.42 488.98 -30.69 486.37Q-31.72 485.54 -32.83 484.83Q-39.65 480.44 -49.29 480.44Q-52.35 480.44 -55.33 480.92Q-59.61 481.6 -63.73 483.26Q-68.09 485 -71.6 487.8Q-73.71 489.48 -75.51 491.55L-67.24 501.14Q-63.27 497.01 -58.42 495.05Q-54.06 493.29 -48.99 493.29Q-45.53 493.29 -42.8 494.7Q-41.99 495.12 -41.25 495.66Q-39.75 496.73 -38.94 498.18Q-37.98 499.9 -37.98 502.16Q-37.98 508.18 -45.08 515.08Q-52.15 521.96 -73.97 538.17L-73.97 549.5ZM-103.08 511.86Q-106.38 513.39 -110.38 513.39Q-114.95 513.39 -118.34 511.4Q-118.82 511.12 -119.27 510.8Q-120.64 509.82 -121.5 508.51Q-122.93 506.31 -122.93 503.18Q-122.93 502.13 -122.69 501.13Q-122.04 498.48 -119.67 496.26Q-119.2 495.82 -118.69 495.44Q-115.62 493.19 -110.91 493.19Q-105.67 493.19 -102.47 495.75Q-101.62 496.42 -100.92 497.28Q-99.94 498.46 -99.2 499.78Q-97.39 503.01 -97.04 507.06Q-99.68 510.28 -103.08 511.86ZM-163.01 535.65Q-166.1 537.87 -170.78 537.87Q-175.9 537.87 -179.08 535.38Q-179.94 534.7 -180.67 533.83Q-181.54 532.79 -182.22 531.63Q-184.16 528.32 -184.55 524.1Q-181.97 520.84 -178.6 519.24Q-175.31 517.67 -171.28 517.67Q-166.43 517.67 -162.96 519.86Q-162.63 520.06 -162.31 520.29Q-160.92 521.26 -160.06 522.59Q-158.63 524.77 -158.63 527.88Q-158.63 528.89 -158.86 529.84Q-159.5 532.54 -161.97 534.81Q-162.46 535.26 -163.01 535.65Z" fill="#FFFFFF" fill-opacity="1.000000" fill-rule="evenodd"/>
		<path id="433" d="M-189.16 346.7Q-182.21 349.72 -173.25 349.72Q-161.1 349.72 -153.78 344.16Q-149.78 341.14 -147.95 337.13Q-146.43 333.77 -146.43 329.72Q-146.43 325.55 -148.18 322.33Q-149.37 320.12 -151.38 318.37Q-154.9 315.28 -158.97 314.07Q-160.61 313.59 -162.34 313.41Q-158.65 312.73 -155.59 310.97Q-153.58 309.8 -151.83 308.16Q-149.76 306.2 -148.66 303.79Q-147.45 301.12 -147.45 297.9Q-147.45 293.71 -149.13 290.38Q-150.86 286.97 -154.35 284.45Q-161.22 279.44 -173.15 279.44Q-184.4 279.44 -192.44 284.52Q-196.13 286.85 -199.15 290.25L-191.9 299.34Q-187.84 295.45 -183.01 293.7Q-179.09 292.29 -174.67 292.29Q-169.07 292.29 -165.55 294.38Q-163.58 295.55 -162.71 297.27Q-162.02 298.64 -162.02 300.36Q-162.02 302.17 -162.8 303.53Q-165.16 307.61 -174.57 307.61Q-181.82 307.61 -183.04 307.48L-183.04 320.56Q-180.99 320.36 -174.57 320.36Q-167.42 320.36 -164.16 322.25Q-162.8 323.03 -162 324.2Q-160.9 325.82 -160.9 328.2Q-160.9 329.85 -161.5 331.23Q-162.33 333.1 -164.28 334.48Q-167.65 336.87 -173.75 336.87Q-178.85 336.87 -183.96 334.78Q-189.06 332.68 -192.52 329.12L-200.07 338.81Q-196.08 343.69 -189.16 346.7ZM-129.29 346.7Q-122.34 349.72 -113.37 349.72Q-101.22 349.72 -93.9 344.16Q-89.9 341.14 -88.08 337.13Q-86.56 333.77 -86.56 329.72Q-86.56 325.55 -88.3 322.33Q-89.5 320.12 -91.51 318.37Q-95.03 315.28 -99.1 314.07Q-100.74 313.59 -102.47 313.41Q-98.78 312.73 -95.72 310.97Q-93.7 309.8 -91.96 308.16Q-89.88 306.2 -88.79 303.79Q-87.58 301.12 -87.58 297.9Q-87.58 293.71 -89.26 290.38Q-90.98 286.97 -94.47 284.45Q-101.35 279.44 -113.28 279.44Q-124.52 279.44 -132.57 284.52Q-136.26 286.85 -139.27 290.25L-132.03 299.34Q-127.97 295.45 -123.13 293.7Q-119.22 292.29 -114.79 292.29Q-109.19 292.29 -105.68 294.38Q-103.71 295.55 -102.84 297.27Q-102.14 298.64 -102.14 300.36Q-102.14 302.17 -102.93 303.53Q-105.28 307.61 -114.69 307.61Q-121.94 307.61 -123.16 307.48L-123.16 320.56Q-121.12 320.36 -114.69 320.36Q-107.55 320.36 -104.29 322.25Q-102.92 323.03 -102.13 324.2Q-101.02 325.82 -101.02 328.2Q-101.02 329.85 -101.63 331.23Q-102.46 333.1 -104.41 334.48Q-107.77 336.87 -113.87 336.87Q-118.98 336.87 -124.08 334.78Q-129.19 332.68 -132.65 329.12L-140.19 338.81Q-136.21 343.69 -129.29 346.7ZM-227.92 348.5L-213.42 348.5L-213.42 334.43L-204.66 334.43L-204.66 321.68L-213.42 321.68L-213.42 280.46L-233.42 280.46L-260.46 323L-260.46 334.43L-227.92 334.43L-227.92 348.5ZM-227.92 293.31L-227.92 321.68L-246.27 321.68L-227.92 293.31Z" fill="#FFFFFF" fill-opacity="1.000000" fill-rule="evenodd"/>
		<path id="тыс. тонн" d="M-583.34 306.82Q-580.06 308.68 -575.73 308.68Q-570.66 308.68 -567.37 306.25Q-565.94 305.19 -564.85 303.67L-569.58 299.27Q-570.59 300.7 -571.98 301.44Q-573.47 302.24 -575.39 302.24Q-577.46 302.24 -579.06 301.36Q-580 300.85 -580.78 300.02Q-581.2 299.57 -581.54 299.05Q-582.85 297.06 -582.85 294.21Q-582.85 291.33 -581.52 289.35Q-581.19 288.85 -580.78 288.42Q-580.01 287.61 -579.09 287.1Q-577.48 286.22 -575.39 286.22Q-573.18 286.22 -571.58 287.21Q-570.42 287.93 -569.58 289.18L-564.85 284.74Q-565.91 283.27 -567.3 282.23Q-570.6 279.77 -575.73 279.77Q-580.04 279.77 -583.31 281.62Q-584.88 282.51 -586.22 283.82Q-587.64 285.22 -588.56 286.89Q-590.33 290.06 -590.33 294.21Q-590.33 298.48 -588.49 301.71Q-587.58 303.3 -586.22 304.64Q-584.9 305.94 -583.34 306.82ZM-652.33 308L-645.04 308L-645.04 286.79L-637.35 286.79L-637.35 280.47L-660.03 280.47L-660.03 286.79L-652.33 286.79L-652.33 308ZM-625.55 280.47L-632.79 280.47L-632.79 308L-616.15 308Q-612.55 308 -610.18 306.29Q-609.62 305.88 -609.13 305.38Q-608.02 304.24 -607.4 302.88Q-606.57 301.1 -606.57 298.94Q-606.57 296.45 -607.6 294.51Q-608.18 293.42 -609.08 292.49Q-609.4 292.16 -609.76 291.87Q-612.17 289.93 -616.15 289.93L-625.55 289.93L-625.55 280.47ZM-602.98 308L-595.68 308L-595.68 280.47L-602.98 280.47L-602.98 308ZM-625.55 295.97L-617.23 295.97Q-615.97 295.97 -615.14 296.58Q-615 296.68 -614.87 296.81Q-614.53 297.12 -614.32 297.51Q-613.98 298.13 -613.98 298.94Q-613.98 299.73 -614.31 300.35Q-614.52 300.75 -614.87 301.08Q-614.98 301.19 -615.11 301.28Q-615.94 301.9 -617.23 301.9L-625.55 301.9L-625.55 295.97ZM-554.81 308.34Q-553.91 308 -553.17 307.26Q-552.4 306.48 -552.06 305.55Q-551.79 304.82 -551.79 304Q-551.79 303.16 -552.07 302.43Q-552.41 301.51 -553.17 300.76Q-553.91 300.02 -554.81 299.68Q-555.56 299.4 -556.41 299.4Q-557.27 299.4 -558.02 299.68Q-558.91 300.02 -559.66 300.76Q-560.4 301.5 -560.74 302.4Q-561.02 303.15 -561.02 304Q-561.02 304.84 -560.75 305.58Q-560.41 306.5 -559.66 307.26Q-558.91 308 -558.02 308.34Q-557.27 308.62 -556.41 308.62Q-555.56 308.62 -554.81 308.34ZM-611.92 348.54Q-610.56 347.69 -609.43 346.49Q-607.8 344.79 -606.84 342.77Q-605.43 339.82 -605.43 336.21Q-605.43 332.52 -606.88 329.55Q-607.84 327.59 -609.43 325.94Q-610.54 324.77 -611.86 323.94Q-615.26 321.77 -620.03 321.77Q-624.78 321.77 -628.17 323.93Q-629.49 324.77 -630.61 325.94Q-632.13 327.54 -633.07 329.45Q-634.56 332.46 -634.56 336.21Q-634.56 339.88 -633.12 342.87Q-632.17 344.83 -630.61 346.49Q-629.47 347.69 -628.1 348.55Q-624.74 350.68 -620.03 350.68Q-615.3 350.68 -611.92 348.54ZM-652.33 350L-645.04 350L-645.04 328.79L-637.35 328.79L-637.35 322.47L-660.03 322.47L-660.03 328.79L-652.33 328.79L-652.33 350ZM-600.07 350L-592.84 350L-592.84 338.99L-581.44 338.99L-581.44 350L-574.19 350L-574.19 322.47L-581.44 322.47L-581.44 332.67L-592.84 332.67L-592.84 322.47L-600.07 322.47L-600.07 350ZM-567.01 350L-559.78 350L-559.78 338.99L-548.38 338.99L-548.38 350L-541.13 350L-541.13 322.47L-548.38 322.47L-548.38 332.67L-559.78 332.67L-559.78 322.47L-567.01 322.47L-567.01 350ZM-623.53 343.35Q-624.44 342.81 -625.15 341.94Q-625.53 341.48 -625.83 340.97Q-627.03 338.94 -627.03 336.21Q-627.03 333.63 -625.93 331.67Q-625.59 331.07 -625.15 330.53Q-624.43 329.64 -623.5 329.09Q-622.02 328.22 -620.03 328.22Q-618.03 328.22 -616.54 329.09Q-615.6 329.64 -614.87 330.53Q-614.39 331.11 -614.03 331.75Q-612.96 333.68 -612.96 336.21Q-612.96 338.88 -614.13 340.88Q-614.45 341.44 -614.87 341.94Q-615.59 342.81 -616.51 343.35Q-618.01 344.24 -620.03 344.24Q-622.04 344.24 -623.53 343.35Z" fill="#FFFFFF" fill-opacity="1.000000" fill-rule="evenodd"/>
		<path id="тыс. унций" d="M-583.34 506.82Q-580.06 508.68 -575.73 508.68Q-570.66 508.68 -567.37 506.25Q-565.94 505.19 -564.85 503.67L-569.58 499.27Q-570.59 500.7 -571.98 501.44Q-573.47 502.24 -575.39 502.24Q-577.46 502.24 -579.06 501.36Q-580 500.85 -580.78 500.02Q-581.2 499.57 -581.54 499.05Q-582.85 497.06 -582.85 494.21Q-582.85 491.33 -581.52 489.35Q-581.19 488.85 -580.78 488.42Q-580.01 487.61 -579.09 487.1Q-577.48 486.22 -575.39 486.22Q-573.18 486.22 -571.58 487.21Q-570.42 487.93 -569.58 489.18L-564.85 484.74Q-565.91 483.27 -567.3 482.23Q-570.6 479.78 -575.73 479.78Q-580.04 479.78 -583.31 481.62Q-584.88 482.51 -586.22 483.83Q-587.64 485.22 -588.56 486.89Q-590.33 490.06 -590.33 494.21Q-590.33 498.48 -588.49 501.71Q-587.58 503.3 -586.22 504.64Q-584.9 505.94 -583.34 506.82ZM-652.33 508L-645.04 508L-645.04 486.79L-637.35 486.79L-637.35 480.47L-660.03 480.47L-660.03 486.79L-652.33 486.79L-652.33 508ZM-625.55 480.47L-632.79 480.47L-632.79 508L-616.15 508Q-612.55 508 -610.18 506.29Q-609.62 505.88 -609.13 505.38Q-608.02 504.24 -607.4 502.88Q-606.57 501.1 -606.57 498.94Q-606.57 496.45 -607.6 494.51Q-608.18 493.42 -609.08 492.5Q-609.4 492.16 -609.76 491.88Q-612.17 489.93 -616.15 489.93L-625.55 489.93L-625.55 480.47ZM-602.98 508L-595.68 508L-595.68 480.47L-602.98 480.47L-602.98 508ZM-625.55 495.97L-617.23 495.97Q-615.97 495.97 -615.14 496.58Q-615 496.68 -614.87 496.81Q-614.53 497.12 -614.32 497.51Q-613.98 498.13 -613.98 498.94Q-613.98 499.73 -614.31 500.35Q-614.52 500.75 -614.87 501.08Q-614.98 501.19 -615.11 501.28Q-615.94 501.9 -617.23 501.9L-625.55 501.9L-625.55 495.97ZM-554.81 508.34Q-553.91 508 -553.17 507.26Q-552.4 506.49 -552.06 505.55Q-551.79 504.83 -551.79 504Q-551.79 503.16 -552.07 502.43Q-552.41 501.52 -553.17 500.76Q-553.91 500.02 -554.81 499.68Q-555.56 499.4 -556.41 499.4Q-557.27 499.4 -558.02 499.68Q-558.91 500.02 -559.66 500.76Q-560.4 501.5 -560.74 502.4Q-561.02 503.15 -561.02 504Q-561.02 504.84 -560.75 505.58Q-560.41 506.5 -559.66 507.26Q-558.91 508 -558.02 508.34Q-557.27 508.62 -556.41 508.62Q-555.56 508.62 -554.81 508.34ZM-509.98 518.45Q-507.51 517.2 -505.67 514.72L-508.88 512.03Q-510.26 513.95 -512.14 514.83Q-513.72 515.57 -515.65 515.57Q-517.8 515.57 -519.5 514.7Q-521.23 513.81 -522.5 512.03L-525.69 514.72Q-523.72 517.3 -521.12 518.55Q-518.67 519.73 -515.65 519.73Q-512.49 519.73 -509.98 518.45ZM-657.3 554.27L-658.39 560.77Q-656.79 561.17 -654.8 561.17Q-650.92 561.06 -648.35 559.6Q-645.78 558.15 -644.36 554.51L-631.42 522.47L-639.23 522.47L-646.41 541.62L-653.6 522.47L-661.35 522.47L-650.18 550.4L-651.19 552.74Q-651.44 553.27 -651.83 553.67Q-652.9 554.73 -655.02 554.73Q-656.27 554.73 -657.3 554.27ZM-628.17 550L-620.94 550L-620.94 538.99L-609.54 538.99L-609.54 550L-602.29 550L-602.29 522.47L-609.54 522.47L-609.54 532.67L-620.94 532.67L-620.94 522.47L-628.17 522.47L-628.17 550ZM-573.45 550L-573.45 557.01L-566.21 557.01L-566.21 543.67L-569.23 543.67L-569.23 522.47L-576.48 522.47L-576.48 543.67L-587.88 543.67L-587.88 522.47L-595.11 522.47L-595.11 550L-573.45 550ZM-561.66 550L-554.7 550L-543.02 532.73L-543.02 550L-535.77 550L-535.77 522.47L-543.08 522.47L-554.42 539.12L-554.42 522.47L-561.66 522.47L-561.66 550ZM-528.6 550L-521.64 550L-509.96 532.73L-509.96 550L-502.71 550L-502.71 522.47L-510.02 522.47L-521.36 539.12L-521.36 522.47L-528.6 522.47L-528.6 550Z" fill="#FFFFFF" fill-opacity="1.000000" fill-rule="evenodd"/>
		<path id="тыс. унций" d="M77.66 506.82Q80.94 508.68 85.27 508.68Q90.34 508.68 93.63 506.25Q95.06 505.19 96.15 503.67L91.42 499.27Q90.41 500.7 89.02 501.44Q87.53 502.24 85.61 502.24Q83.54 502.24 81.94 501.36Q81 500.85 80.22 500.02Q79.8 499.57 79.46 499.05Q78.15 497.06 78.15 494.21Q78.15 491.33 79.48 489.35Q79.81 488.85 80.22 488.42Q80.98 487.61 81.91 487.1Q83.52 486.22 85.61 486.22Q87.82 486.22 89.42 487.21Q90.58 487.93 91.42 489.18L96.15 484.74Q95.09 483.27 93.7 482.23Q90.4 479.78 85.27 479.78Q80.96 479.78 77.69 481.62Q76.11 482.51 74.78 483.83Q73.36 485.22 72.44 486.89Q70.67 490.06 70.67 494.21Q70.67 498.48 72.51 501.71Q73.42 503.3 74.78 504.64Q76.1 505.94 77.66 506.82ZM8.66 508L15.96 508L15.96 486.79L23.65 486.79L23.65 480.47L0.97 480.47L0.97 486.79L8.66 486.79L8.66 508ZM35.45 480.47L28.21 480.47L28.21 508L44.85 508Q48.45 508 50.82 506.29Q51.38 505.88 51.87 505.38Q52.98 504.24 53.6 502.88Q54.43 501.1 54.43 498.94Q54.43 496.45 53.4 494.51Q52.82 493.42 51.92 492.5Q51.6 492.16 51.24 491.88Q48.83 489.93 44.85 489.93L35.45 489.93L35.45 480.47ZM58.02 508L65.32 508L65.32 480.47L58.02 480.47L58.02 508ZM35.45 495.97L43.77 495.97Q45.03 495.97 45.86 496.58Q46 496.68 46.13 496.81Q46.47 497.12 46.68 497.51Q47.02 498.13 47.02 498.94Q47.02 499.73 46.69 500.35Q46.48 500.75 46.13 501.08Q46.02 501.19 45.89 501.28Q45.06 501.9 43.77 501.9L35.45 501.9L35.45 495.97ZM106.19 508.34Q107.09 508 107.83 507.26Q108.6 506.49 108.94 505.55Q109.21 504.83 109.21 504Q109.21 503.16 108.93 502.43Q108.59 501.52 107.83 500.76Q107.09 500.02 106.19 499.68Q105.44 499.4 104.59 499.4Q103.73 499.4 102.98 499.68Q102.09 500.02 101.34 500.76Q100.6 501.5 100.26 502.4Q99.98 503.15 99.98 504Q99.98 504.84 100.25 505.58Q100.59 506.5 101.34 507.26Q102.09 508 102.98 508.34Q103.73 508.62 104.59 508.62Q105.44 508.62 106.19 508.34ZM151.02 518.45Q153.49 517.2 155.33 514.72L152.12 512.03Q150.74 513.95 148.86 514.83Q147.28 515.57 145.35 515.57Q143.2 515.57 141.5 514.7Q139.77 513.81 138.5 512.03L135.31 514.72Q137.28 517.3 139.88 518.55Q142.33 519.73 145.35 519.73Q148.51 519.73 151.02 518.45ZM3.7 554.27L2.61 560.77Q4.21 561.17 6.2 561.17Q10.08 561.06 12.64 559.6Q15.22 558.15 16.64 554.51L29.58 522.47L21.77 522.47L14.59 541.62L7.4 522.47L-0.35 522.47L10.82 550.4L9.81 552.74Q9.56 553.27 9.17 553.67Q8.1 554.73 5.98 554.73Q4.73 554.73 3.7 554.27ZM32.83 550L40.06 550L40.06 538.99L51.46 538.99L51.46 550L58.71 550L58.71 522.47L51.46 522.47L51.46 532.67L40.06 532.67L40.06 522.47L32.83 522.47L32.83 550ZM87.55 550L87.55 557.01L94.79 557.01L94.79 543.67L91.77 543.67L91.77 522.47L84.52 522.47L84.52 543.67L73.12 543.67L73.12 522.47L65.89 522.47L65.89 550L87.55 550ZM99.35 550L106.3 550L117.98 532.73L117.98 550L125.23 550L125.23 522.47L117.92 522.47L106.58 539.12L106.58 522.47L99.35 522.47L99.35 550ZM132.41 550L139.36 550L151.04 532.73L151.04 550L158.29 550L158.29 522.47L150.98 522.47L139.64 539.12L139.64 522.47L132.41 522.47L132.41 550Z" fill="#FFFFFF" fill-opacity="1.000000" fill-rule="evenodd"/>
		<path id="тыс. тонн" d="M8.66 305.82Q11.94 307.68 16.27 307.68Q21.34 307.68 24.63 305.25Q26.06 304.19 27.15 302.67L22.42 298.27Q21.41 299.7 20.02 300.44Q18.53 301.24 16.61 301.24Q14.54 301.24 12.94 300.36Q12 299.85 11.22 299.02Q10.8 298.57 10.46 298.05Q9.15 296.06 9.15 293.21Q9.15 290.33 10.48 288.35Q10.81 287.85 11.22 287.42Q11.98 286.61 12.91 286.1Q14.52 285.22 16.61 285.22Q18.82 285.22 20.42 286.21Q21.58 286.93 22.42 288.18L27.15 283.74Q26.09 282.27 24.7 281.23Q21.4 278.77 16.27 278.77Q11.96 278.77 8.69 280.62Q7.11 281.51 5.78 282.82Q4.36 284.22 3.44 285.89Q1.67 289.06 1.67 293.21Q1.67 297.48 3.51 300.71Q4.42 302.3 5.78 303.64Q7.1 304.94 8.66 305.82ZM-60.34 307L-53.04 307L-53.04 285.79L-45.35 285.79L-45.35 279.47L-68.03 279.47L-68.03 285.79L-60.34 285.79L-60.34 307ZM-33.55 279.47L-40.79 279.47L-40.79 307L-24.15 307Q-20.55 307 -18.18 305.29Q-17.62 304.88 -17.13 304.38Q-16.02 303.24 -15.4 301.88Q-14.57 300.1 -14.57 297.94Q-14.57 295.45 -15.6 293.51Q-16.18 292.42 -17.08 291.49Q-17.4 291.16 -17.76 290.87Q-20.17 288.93 -24.15 288.93L-33.55 288.93L-33.55 279.47ZM-10.98 307L-3.68 307L-3.68 279.47L-10.98 279.47L-10.98 307ZM-33.55 294.97L-25.23 294.97Q-23.97 294.97 -23.14 295.58Q-23 295.68 -22.87 295.81Q-22.53 296.12 -22.32 296.51Q-21.98 297.13 -21.98 297.94Q-21.98 298.73 -22.31 299.35Q-22.52 299.75 -22.87 300.08Q-22.98 300.19 -23.11 300.28Q-23.94 300.9 -25.23 300.9L-33.55 300.9L-33.55 294.97ZM37.19 307.34Q38.09 307 38.83 306.26Q39.6 305.48 39.94 304.55Q40.21 303.82 40.21 303Q40.21 302.16 39.93 301.43Q39.59 300.51 38.83 299.76Q38.09 299.02 37.19 298.68Q36.44 298.4 35.59 298.4Q34.73 298.4 33.98 298.68Q33.09 299.02 32.34 299.76Q31.6 300.5 31.26 301.4Q30.98 302.15 30.98 303Q30.98 303.84 31.25 304.58Q31.59 305.5 32.34 306.26Q33.09 307 33.98 307.34Q34.73 307.62 35.59 307.62Q36.44 307.62 37.19 307.34ZM-19.92 347.54Q-18.56 346.69 -17.43 345.49Q-15.8 343.79 -14.84 341.77Q-13.43 338.82 -13.43 335.21Q-13.43 331.52 -14.88 328.55Q-15.84 326.59 -17.43 324.94Q-18.54 323.77 -19.86 322.94Q-23.26 320.77 -28.03 320.77Q-32.78 320.77 -36.17 322.93Q-37.49 323.77 -38.61 324.94Q-40.14 326.54 -41.07 328.45Q-42.56 331.46 -42.56 335.21Q-42.56 338.88 -41.12 341.87Q-40.17 343.83 -38.61 345.49Q-37.46 346.69 -36.1 347.55Q-32.74 349.68 -28.03 349.68Q-23.3 349.68 -19.92 347.54ZM-60.34 349L-53.04 349L-53.04 327.79L-45.35 327.79L-45.35 321.47L-68.03 321.47L-68.03 327.79L-60.34 327.79L-60.34 349ZM-8.07 349L-0.84 349L-0.84 337.99L10.56 337.99L10.56 349L17.81 349L17.81 321.47L10.56 321.47L10.56 331.67L-0.84 331.67L-0.84 321.47L-8.07 321.47L-8.07 349ZM24.99 349L32.22 349L32.22 337.99L43.62 337.99L43.62 349L50.87 349L50.87 321.47L43.62 321.47L43.62 331.67L32.22 331.67L32.22 321.47L24.99 321.47L24.99 349ZM-31.53 342.35Q-32.44 341.81 -33.15 340.94Q-33.53 340.48 -33.83 339.97Q-35.03 337.94 -35.03 335.21Q-35.03 332.63 -33.93 330.67Q-33.59 330.07 -33.15 329.53Q-32.43 328.64 -31.5 328.09Q-30.02 327.22 -28.03 327.22Q-26.03 327.22 -24.54 328.09Q-23.6 328.64 -22.87 329.53Q-22.39 330.11 -22.03 330.75Q-20.96 332.68 -20.96 335.21Q-20.96 337.88 -22.13 339.88Q-22.45 340.44 -22.87 340.94Q-23.59 341.81 -24.51 342.35Q-26.01 343.24 -28.03 343.24Q-30.04 343.24 -31.53 342.35Z" fill="#FFFFFF" fill-opacity="1.000000" fill-rule="evenodd"/>
		<path id="Никель" d="M-831.09 240L-829.59 240L-829.59 227.99L-831.09 227.99L-831.09 233.16L-838.11 233.16L-838.11 227.99L-839.6 227.99L-839.6 240L-838.11 240L-838.11 234.49L-831.09 234.49L-831.09 240ZM-806.01 239.68Q-805.04 240.21 -803.78 240.21Q-802.3 240.21 -801.2 239.56Q-800.73 239.28 -800.32 238.88L-800.97 238Q-801.41 238.45 -801.93 238.71Q-802.7 239.1 -803.65 239.1Q-804.57 239.1 -805.26 238.7Q-805.58 238.51 -805.85 238.23Q-806.17 237.91 -806.38 237.53Q-806.73 236.89 -806.79 236.09L-799.75 236.09L-799.75 235.75Q-799.75 234.14 -800.46 232.98Q-800.64 232.68 -800.87 232.41Q-801.27 231.94 -801.77 231.64Q-802.68 231.08 -803.93 231.08Q-804.88 231.08 -805.67 231.45Q-806.4 231.78 -806.98 232.41Q-807.46 232.93 -807.76 233.54Q-808.21 234.48 -808.21 235.64Q-808.21 237.13 -807.54 238.22Q-807.3 238.61 -806.97 238.95Q-806.53 239.39 -806.01 239.68ZM-826.84 240L-825.54 240L-820.95 233.23L-820.95 240L-819.6 240L-819.6 231.3L-820.93 231.3L-825.49 237.94L-825.49 231.3L-826.84 231.3L-826.84 240ZM-810.98 240L-809.25 240L-813.12 235.25L-809.27 231.3L-810.98 231.3L-815.55 235.93L-815.55 231.3L-816.9 231.3L-816.9 240L-815.55 240L-815.55 237.51L-814.11 236.09L-810.98 240ZM-798.6 239.1L-798.6 240.21Q-797.93 240.21 -797.42 239.93Q-796.94 239.67 -796.6 239.18Q-795.88 238.14 -795.59 235.75L-795.19 232.49L-791.68 232.49L-791.68 240L-790.33 240L-790.33 231.3L-796.38 231.3L-796.94 235.58Q-797.19 237.48 -797.59 238.29Q-797.91 238.94 -798.37 239.07Q-798.48 239.1 -798.6 239.1ZM-786.29 231.3L-787.64 231.3L-787.64 240L-783.03 240Q-782.01 240 -781.34 239.51Q-781.17 239.39 -781.02 239.23Q-780.75 238.95 -780.58 238.61Q-780.29 238.04 -780.29 237.33Q-780.29 236.61 -780.59 236.04Q-780.75 235.71 -781.01 235.43Q-781.14 235.29 -781.3 235.18Q-781.97 234.67 -783.03 234.67L-786.29 234.67L-786.29 231.3ZM-801.22 234.21Q-801.09 234.64 -801.08 235.1L-806.79 235.1Q-806.76 234.59 -806.6 234.12Q-806.4 233.57 -805.99 233.08Q-805.73 232.78 -805.41 232.58Q-804.8 232.2 -803.94 232.2Q-802.95 232.2 -802.29 232.67Q-802.04 232.85 -801.84 233.09Q-801.41 233.61 -801.22 234.21ZM-786.29 235.86L-783.17 235.86Q-782.54 235.86 -782.16 236.17Q-782.11 236.21 -782.06 236.26Q-781.99 236.34 -781.93 236.43Q-781.68 236.8 -781.68 237.33Q-781.68 237.86 -781.92 238.22Q-781.98 238.32 -782.06 238.41Q-782.11 238.46 -782.16 238.5Q-782.54 238.81 -783.17 238.81L-786.29 238.81L-786.29 235.86Z" fill="#FFFFFF" fill-opacity="1.000000" fill-rule="evenodd"/>
		<path id="Платина" d="M-829.09 440L-827.59 440L-827.59 427.99L-837.6 427.99L-837.6 440L-836.11 440L-836.11 429.32L-829.09 429.32L-829.09 440ZM-809.47 440L-808.12 440L-808.12 434.02Q-808.12 432.85 -808.69 432.15Q-808.85 431.96 -809.05 431.81Q-809.99 431.09 -811.48 431.09Q-812.68 431.09 -813.64 431.55Q-814.36 431.91 -814.96 432.53L-814.33 433.46Q-813.62 432.71 -812.76 432.43Q-812.24 432.26 -811.66 432.26Q-810.73 432.26 -810.13 432.71Q-810.1 432.73 -810.08 432.75Q-809.86 432.92 -809.72 433.15Q-809.47 433.54 -809.47 434.1L-809.47 435.66Q-809.74 435.34 -810.07 435.11Q-810.98 434.47 -812.35 434.47Q-813.07 434.47 -813.68 434.73Q-814.11 434.91 -814.48 435.22Q-814.74 435.44 -814.93 435.71Q-815.39 436.36 -815.39 437.33Q-815.39 438.2 -815 438.83Q-814.79 439.17 -814.47 439.44Q-814.03 439.82 -813.51 440.01Q-812.97 440.21 -812.35 440.21Q-811.22 440.21 -810.36 439.73Q-809.87 439.45 -809.47 439.01L-809.47 440ZM-772.87 440L-771.52 440L-771.52 434.02Q-771.52 432.85 -772.1 432.15Q-772.26 431.96 -772.46 431.81Q-773.4 431.09 -774.89 431.09Q-776.08 431.09 -777.04 431.55Q-777.77 431.91 -778.36 432.53L-777.73 433.46Q-777.03 432.71 -776.17 432.43Q-775.65 432.26 -775.07 432.26Q-774.13 432.26 -773.53 432.71Q-773.51 432.73 -773.48 432.75Q-773.26 432.92 -773.12 433.15Q-772.87 433.54 -772.87 434.1L-772.87 435.66Q-773.15 435.34 -773.48 435.11Q-774.39 434.47 -775.75 434.47Q-776.47 434.47 -777.09 434.73Q-777.51 434.91 -777.89 435.22Q-778.15 435.44 -778.34 435.71Q-778.79 436.36 -778.79 437.33Q-778.79 438.2 -778.41 438.83Q-778.2 439.17 -777.88 439.44Q-777.43 439.82 -776.92 440.01Q-776.37 440.21 -775.75 440.21Q-774.62 440.21 -773.77 439.73Q-773.28 439.45 -772.87 439.01L-772.87 440ZM-825.86 439.1L-825.86 440.21Q-825.2 440.21 -824.69 439.93Q-824.21 439.68 -823.87 439.18Q-823.15 438.14 -822.86 435.75L-822.46 432.49L-818.95 432.49L-818.95 440L-817.6 440L-817.6 431.31L-823.65 431.31L-824.21 435.59Q-824.46 437.48 -824.86 438.29Q-825.18 438.94 -825.64 439.07Q-825.75 439.1 -825.86 439.1ZM-803.83 440L-802.48 440L-802.48 432.49L-799.95 432.49L-799.95 431.31L-806.35 431.31L-806.35 432.49L-803.83 432.49L-803.83 440ZM-798.18 440L-796.88 440L-792.29 433.23L-792.29 440L-790.94 440L-790.94 431.31L-792.28 431.31L-796.83 437.95L-796.83 431.31L-798.18 431.31L-798.18 440ZM-788.25 440L-786.9 440L-786.9 436.11L-782.36 436.11L-782.36 440L-781.01 440L-781.01 431.31L-782.36 431.31L-782.36 434.92L-786.9 434.92L-786.9 431.31L-788.25 431.31L-788.25 440ZM-809.95 438.67Q-810.68 439.24 -811.86 439.24Q-812.6 439.24 -813.14 438.91Q-813.28 438.82 -813.4 438.71Q-813.68 438.47 -813.83 438.16Q-814 437.8 -814 437.35Q-814 436.86 -813.8 436.47Q-813.65 436.2 -813.4 435.98Q-813.28 435.87 -813.14 435.78Q-812.6 435.44 -811.86 435.44Q-810.68 435.44 -809.94 436.02Q-809.67 436.23 -809.47 436.52L-809.47 438.16Q-809.68 438.45 -809.95 438.67ZM-773.36 438.67Q-774.09 439.24 -775.27 439.24Q-776.01 439.24 -776.54 438.91Q-776.68 438.82 -776.81 438.71Q-777.08 438.47 -777.23 438.16Q-777.41 437.8 -777.41 437.35Q-777.41 436.86 -777.2 436.47Q-777.06 436.2 -776.81 435.98Q-776.68 435.87 -776.54 435.78Q-776.01 435.44 -775.27 435.44Q-774.08 435.44 -773.35 436.02Q-773.08 436.23 -772.87 436.52L-772.87 438.16Q-773.08 438.45 -773.36 438.67Z" fill="#FFFFFF" fill-opacity="1.000000" fill-rule="evenodd"/>
		<path id="Палладий" d="M-232.09 441L-230.59 441L-230.59 428.99L-240.6 428.99L-240.6 441L-239.11 441L-239.11 430.32L-232.09 430.32L-232.09 441ZM-163.54 430.9Q-162.77 430.51 -162.19 429.73L-162.86 429.15Q-163.3 429.79 -163.92 430.12Q-164.54 430.45 -165.34 430.45Q-166.09 430.45 -166.69 430.16Q-167.35 429.84 -167.85 429.15L-168.51 429.73Q-167.88 430.55 -167.06 430.94Q-166.29 431.31 -165.34 431.31Q-164.34 431.31 -163.54 430.9ZM-222.4 441L-221.05 441L-221.05 435.02Q-221.05 433.85 -221.63 433.15Q-221.79 432.96 -221.99 432.81Q-222.93 432.09 -224.42 432.09Q-225.61 432.09 -226.57 432.55Q-227.3 432.91 -227.89 433.53L-227.26 434.46Q-226.56 433.71 -225.7 433.43Q-225.18 433.26 -224.6 433.26Q-223.66 433.26 -223.06 433.71Q-223.04 433.73 -223.01 433.75Q-222.79 433.92 -222.65 434.15Q-222.4 434.54 -222.4 435.1L-222.4 436.66Q-222.68 436.34 -223.01 436.11Q-223.92 435.47 -225.28 435.47Q-226 435.47 -226.62 435.73Q-227.04 435.91 -227.42 436.22Q-227.68 436.44 -227.87 436.71Q-228.32 437.36 -228.32 438.33Q-228.32 439.2 -227.94 439.83Q-227.73 440.17 -227.41 440.44Q-226.96 440.82 -226.45 441.01Q-225.9 441.21 -225.28 441.21Q-224.15 441.21 -223.3 440.73Q-222.81 440.45 -222.4 440.01L-222.4 441ZM-193.05 441L-191.7 441L-191.7 435.02Q-191.7 433.85 -192.27 433.15Q-192.43 432.96 -192.63 432.81Q-193.57 432.09 -195.06 432.09Q-196.25 432.09 -197.22 432.55Q-197.94 432.91 -198.53 433.53L-197.91 434.46Q-197.2 433.71 -196.34 433.43Q-195.82 433.26 -195.24 433.26Q-194.31 433.26 -193.71 433.71Q-193.68 433.73 -193.66 433.75Q-193.43 433.92 -193.29 434.15Q-193.05 434.54 -193.05 435.1L-193.05 436.66Q-193.32 436.34 -193.65 436.11Q-194.56 435.47 -195.92 435.47Q-196.65 435.47 -197.26 435.73Q-197.69 435.91 -198.06 436.22Q-198.32 436.44 -198.51 436.71Q-198.96 437.36 -198.96 438.33Q-198.96 439.2 -198.58 439.83Q-198.37 440.17 -198.05 440.44Q-197.6 440.82 -197.09 441.01Q-196.54 441.21 -195.92 441.21Q-194.8 441.21 -193.94 440.73Q-193.45 440.45 -193.05 440.01L-193.05 441ZM-219.38 440.1L-219.38 441.21Q-218.71 441.21 -218.2 440.93Q-217.73 440.68 -217.38 440.18Q-216.66 439.14 -216.37 436.75L-215.98 433.49L-212.46 433.49L-212.46 441L-211.12 441L-211.12 432.31L-217.16 432.31L-217.72 436.59Q-217.98 438.48 -218.37 439.29Q-218.69 439.94 -219.16 440.07Q-219.26 440.1 -219.38 440.1ZM-209.44 440.1L-209.44 441.21Q-208.78 441.21 -208.26 440.93Q-207.79 440.68 -207.45 440.18Q-206.73 439.14 -206.44 436.75L-206.04 433.49L-202.53 433.49L-202.53 441L-201.18 441L-201.18 432.31L-207.23 432.31L-207.78 436.59Q-208.04 438.48 -208.43 439.29Q-208.76 439.94 -209.22 440.07Q-209.33 440.1 -209.44 440.1ZM-190.02 439.88L-190.02 443.21L-188.67 443.21L-188.67 441L-182.1 441L-182.1 443.21L-180.75 443.21L-180.75 439.81L-181.76 439.81L-181.76 432.31L-187.8 432.31L-188.36 436.59Q-188.6 438.4 -188.98 439.08Q-189.24 439.54 -189.63 439.75Q-189.81 439.84 -190.02 439.88ZM-178.9 441L-177.6 441L-173.01 434.23L-173.01 441L-171.66 441L-171.66 432.31L-172.99 432.31L-177.55 438.95L-177.55 432.31L-178.9 432.31L-178.9 441ZM-168.96 441L-167.66 441L-163.07 434.23L-163.07 441L-161.72 441L-161.72 432.31L-163.06 432.31L-167.61 438.95L-167.61 432.31L-168.96 432.31L-168.96 441ZM-187.01 436.75L-186.62 433.49L-183.11 433.49L-183.11 439.81L-188.27 439.81Q-187.32 439.04 -187.01 436.75ZM-222.89 439.67Q-223.62 440.24 -224.8 440.24Q-225.54 440.24 -226.07 439.91Q-226.21 439.82 -226.34 439.71Q-226.61 439.47 -226.76 439.16Q-226.94 438.8 -226.94 438.35Q-226.94 437.86 -226.73 437.47Q-226.59 437.2 -226.34 436.98Q-226.21 436.87 -226.07 436.78Q-225.54 436.44 -224.8 436.44Q-223.61 436.44 -222.88 437.02Q-222.61 437.23 -222.4 437.52L-222.4 439.16Q-222.61 439.45 -222.89 439.67ZM-193.53 439.67Q-194.26 440.24 -195.44 440.24Q-196.18 440.24 -196.71 439.91Q-196.85 439.82 -196.98 439.71Q-197.25 439.47 -197.4 439.16Q-197.58 438.8 -197.58 438.35Q-197.58 437.86 -197.37 437.47Q-197.23 437.2 -196.98 436.98Q-196.85 436.87 -196.71 436.78Q-196.18 436.44 -195.44 436.44Q-194.25 436.44 -193.52 437.02Q-193.25 437.23 -193.05 437.52L-193.05 439.16Q-193.26 439.45 -193.53 439.67Z" fill="#FFFFFF" fill-opacity="1.000000" fill-rule="evenodd"/>
		<path id="Медь" d="M-229.34 240L-227.85 240L-227.85 227.99L-229.99 227.99L-233.73 237.03L-237.46 227.99L-239.6 227.99L-239.6 240L-238.11 240L-238.11 230.11L-234.04 240L-233.43 240L-229.34 230.11L-229.34 240ZM-223.4 239.68Q-222.43 240.21 -221.17 240.21Q-219.69 240.21 -218.59 239.56Q-218.11 239.28 -217.71 238.88L-218.36 238Q-218.8 238.45 -219.32 238.71Q-220.08 239.1 -221.04 239.1Q-221.96 239.1 -222.65 238.7Q-222.97 238.51 -223.24 238.23Q-223.56 237.91 -223.77 237.53Q-224.12 236.89 -224.17 236.09L-217.13 236.09L-217.13 235.75Q-217.13 234.14 -217.85 232.98Q-218.03 232.68 -218.26 232.41Q-218.66 231.94 -219.16 231.64Q-220.07 231.08 -221.31 231.08Q-222.27 231.08 -223.06 231.45Q-223.79 231.78 -224.37 232.41Q-224.85 232.93 -225.14 233.54Q-225.59 234.48 -225.59 235.64Q-225.59 237.13 -224.93 238.22Q-224.69 238.61 -224.36 238.95Q-223.92 239.39 -223.4 239.68ZM-215.98 238.88L-215.98 242.21L-214.63 242.21L-214.63 240L-208.06 240L-208.06 242.21L-206.72 242.21L-206.72 238.81L-207.72 238.81L-207.72 231.3L-213.77 231.3L-214.33 235.58Q-214.56 237.4 -214.94 238.08Q-215.2 238.54 -215.59 238.74Q-215.77 238.84 -215.98 238.88ZM-203.51 231.3L-204.86 231.3L-204.86 240L-200.25 240Q-199.24 240 -198.57 239.51Q-198.4 239.39 -198.25 239.23Q-197.97 238.95 -197.8 238.61Q-197.52 238.04 -197.52 237.33Q-197.52 236.61 -197.81 236.04Q-197.98 235.71 -198.24 235.43Q-198.37 235.29 -198.52 235.18Q-199.19 234.67 -200.25 234.67L-203.51 234.67L-203.51 231.3ZM-218.61 234.21Q-218.48 234.64 -218.47 235.1L-224.17 235.1Q-224.15 234.59 -223.98 234.12Q-223.78 233.57 -223.38 233.08Q-223.12 232.78 -222.8 232.58Q-222.18 232.2 -221.33 232.2Q-220.33 232.2 -219.67 232.67Q-219.43 232.85 -219.23 233.09Q-218.8 233.61 -218.61 234.21ZM-212.98 235.75L-212.58 232.49L-209.07 232.49L-209.07 238.81L-214.24 238.81Q-213.29 238.04 -212.98 235.75ZM-203.51 235.86L-200.4 235.86Q-199.77 235.86 -199.39 236.17Q-199.34 236.21 -199.29 236.26Q-199.21 236.34 -199.15 236.43Q-198.9 236.8 -198.9 237.33Q-198.9 237.86 -199.14 238.22Q-199.21 238.32 -199.29 238.41Q-199.34 238.46 -199.39 238.5Q-199.77 238.81 -200.4 238.81L-203.51 238.81L-203.51 235.86Z" fill="#FFFFFF" fill-opacity="1.000000" fill-rule="evenodd"/>
		<rect id="Rectangle 538" x="-859.500000" y="220.500977" rx="14.500000" width="100.000000" height="29.000000" stroke="#FFFFFF" stroke-opacity="1.000000" stroke-width="1.000000"/>
		<rect id="Rectangle 539" x="-859.500000" y="420.501953" rx="14.500000" width="110.000000" height="29.000000" stroke="#FFFFFF" stroke-opacity="1.000000" stroke-width="1.000000"/>
		<rect id="Rectangle 540" x="-259.500000" y="420.501953" rx="15.000000" width="120.000000" height="30.000000" stroke="#FFFFFF" stroke-opacity="1.000000" stroke-width="1.000000"/>
		<rect id="Rectangle 541" x="-259.500000" y="220.500977" rx="14.500000" width="79.000000" height="29.000000" stroke="#FFFFFF" stroke-opacity="1.000000" stroke-width="1.000000"/>
	</g>
</svg>
