<svg width="60.000000" height="61.224487" viewBox="0 0 60 61.2245" fill="none" xmlns="http://www.w3.org/2000/svg" xmlns:xlink="http://www.w3.org/1999/xlink">
	<desc>
			Created with Pixso.
	</desc>
	<defs>
		<clipPath id="clip21_986">
			<rect id="arrow" width="60.000000" height="61.224491" transform="translate(60.000000 61.224487) rotate(180.000000)" fill="white" fill-opacity="0">
		</clipPath>
	</defs>
	<g clip-path="url(#clip21_986)">
		<path id="path" d="M29.94 40.87C30.64 41.59 31.35 41.59 32.06 40.87L47.06 25.57C47.71 24.85 47.7 24.14 47.02 23.44C46.34 22.74 45.64 22.73 44.94 23.4L31 37.62L17.06 23.4C16.35 22.73 15.65 22.74 14.97 23.44C14.29 24.14 14.28 24.84 14.94 25.56L29.94 40.87Z" fill="#FFFFFF" fill-opacity="1.000000" fill-rule="evenodd">
		<path id="path" d="M32.06 40.87L47.06 25.57C47.71 24.85 47.7 24.14 47.02 23.44C46.34 22.74 45.64 22.73 44.94 23.4L31 37.62L17.06 23.4C16.35 22.73 15.65 22.74 14.97 23.44C14.29 24.14 14.28 24.84 14.94 25.56L29.94 40.87C30.64 41.59 31.35 41.59 32.06 40.87Z" stroke="#000000" stroke-opacity="0" stroke-width="1.000000">
	</g>
</svg>
