<svg width="32.300049" height="32.299805" viewBox="0 0 32.3 32.2998" fill="none" xmlns="http://www.w3.org/2000/svg" xmlns:xlink="http://www.w3.org/1999/xlink">
	<desc>
			Created with Pixso.
	</desc>
	<defs/>
	<path id="Arrow" d="M16.15 32.2998C13.9194 32.2998 11.8523 31.9058 9.94849 31.1167C8.04578 30.3286 6.30627 29.146 4.7301 27.5698Q2.36584 25.2056 1.18335 22.3521Q0 19.4961 0 16.1499Q0 12.8042 1.18323 9.94824Q2.36572 7.09424 4.7301 4.72998Q7.09436 2.36572 9.94836 1.18311L9.94849 1.18311Q12.8041 0 16.15 0Q19.4958 0 22.3516 1.18311Q25.2056 2.36572 27.5699 4.72998Q29.9343 7.09424 31.1168 9.94873Q32.3 12.8042 32.3 16.1499C32.3 18.3804 31.9056 20.4478 31.1168 22.3516C30.3285 24.2544 29.1462 25.9937 27.5699 27.5698Q25.2057 29.9341 22.3518 31.1167Q19.4961 32.2998 16.15 32.2998ZM21.7745 29.7271L21.7745 29.7271Q24.364 28.6543 26.5092 26.5093Q28.6543 24.3643 29.7271 21.7744L29.7271 21.7744L29.7271 21.7744Q30.8 19.1846 30.8 16.1499Q30.8 13.1157 29.7271 10.5254L29.7271 10.5254C29.012 8.79932 27.9393 7.2207 26.5092 5.79102Q24.364 3.64551 21.7747 2.57275Q19.1846 1.5 16.15 1.5Q13.1155 1.5 10.5254 2.57275Q7.93591 3.64551 5.79077 5.79102Q3.64563 7.93604 2.573 10.5254Q1.5 13.1152 1.5 16.1499Q1.5 19.1846 2.573 21.7744Q3.64563 24.3643 5.79077 26.5093Q7.93591 28.6543 10.5251 29.7271Q13.1154 30.7998 16.15 30.7998Q19.1844 30.7998 21.7745 29.7271ZM21.0808 15.5728C21.2313 15.7236 21.3074 15.875 21.3086 16.0269C21.3099 16.1787 21.2367 16.3311 21.0887 16.4844L16.4434 21.1294C16.3859 21.1821 16.3234 21.2227 16.2556 21.251C16.1771 21.2837 16.0918 21.3003 15.9996 21.2998C15.9098 21.2993 15.8265 21.2832 15.75 21.251C15.6749 21.2192 15.6062 21.1724 15.5439 21.1104L10.9198 16.4858C10.7666 16.3325 10.6901 16.1792 10.6902 16.0259C10.6903 15.8726 10.767 15.7192 10.9203 15.5664C11.0737 15.4131 11.2271 15.3364 11.3804 15.3369C11.5336 15.3369 11.6868 15.4136 11.84 15.5669L15.3539 19.0811L15.3539 11.4028C15.3539 11.2134 15.4603 11.0034 15.5538 10.8931C15.6642 10.7998 15.8142 10.7529 16.0038 10.7529C16.1935 10.7529 16.4032 10.8594 16.5135 10.9531C16.6071 11.0635 16.6538 11.2134 16.6538 11.4028L16.6538 19.0811L20.1677 15.5669C20.3221 15.418 20.4758 15.3442 20.6285 15.3457C20.7802 15.3472 20.9309 15.4229 21.0808 15.5728Z" clip-rule="evenodd" fill="#FFFFFF" fill-opacity="1.000000" fill-rule="evenodd"/>
</svg>
