<svg width="33.000000" height="33.000000" viewBox="0 0 33 33" fill="none" xmlns="http://www.w3.org/2000/svg" xmlns:xlink="http://www.w3.org/1999/xlink">
	<desc>
			Created with Pixso.
	</desc>
	<defs>
		<clipPath id="clip21_992">
			<rect id="building" width="33.000000" height="33.000000" fill="white" fill-opacity="0">
		</clipPath>
	</defs>
	<g clip-path="url(#clip21_992)">
		<path id="path" d="M5.5 17.87L9.62 17.87L9.62 20.62L5.5 20.62L5.5 17.87ZM12.37 20.62L16.5 20.62L16.5 17.87L12.37 17.87L12.37 20.62ZM5.5 26.12L9.62 26.12L9.62 23.37L5.5 23.37L5.5 26.12ZM12.37 26.12L16.5 26.12L16.5 23.37L12.37 23.37L12.37 26.12ZM5.5 9.62L9.62 9.62L9.62 6.87L5.5 6.87L5.5 9.62ZM12.37 9.62L16.5 9.62L16.5 6.87L12.37 6.87L12.37 9.62ZM5.5 15.12L9.62 15.12L9.62 12.37L5.5 12.37L5.5 15.12ZM12.37 15.12L16.5 15.12L16.5 12.37L12.37 12.37L12.37 15.12ZM33 11L33 33L0 33L0 4.12C0 2.98 0.4 2.01 1.2 1.2C2.01 0.4 2.98 0 4.12 0L17.87 0C19.01 0 19.98 0.4 20.79 1.2C21.59 2.01 22 2.98 22 4.12L22 6.87L28.87 6.87C30.01 6.87 30.98 7.27 31.79 8.08C32.59 8.88 33 9.86 33 11ZM19.25 4.12C19.25 3.2 18.79 2.75 17.87 2.75L4.12 2.75C3.2 2.75 2.75 3.2 2.75 4.12L2.75 30.25L19.25 30.25L19.25 4.12ZM30.25 11C30.25 10.08 29.79 9.62 28.87 9.62L22 9.62L22 30.25L30.25 30.25L30.25 11ZM24.75 20.62L27.5 20.62L27.5 17.87L24.75 17.87L24.75 20.62ZM24.75 26.12L27.5 26.12L27.5 23.37L24.75 23.37L24.75 26.12ZM24.75 15.12L27.5 15.12L27.5 12.37L24.75 12.37L24.75 15.12Z" fill="#000000" fill-opacity="1.000000" fill-rule="nonzero">
	</g>
</svg>
