<svg width="33.000000" height="33.000000" viewBox="0 0 33 33" fill="none" xmlns="http://www.w3.org/2000/svg" xmlns:xlink="http://www.w3.org/1999/xlink">
	<desc>
			Created with Pixso.
	</desc>
	<defs>
		<clipPath id="clip21_994">
			<rect id="car" width="33.000000" height="33.000000" fill="white" fill-opacity="0">
		</clipPath>
	</defs>
	<g clip-path="url(#clip21_994)">
		<path id="path" d="M28.73 5.9C28.24 4.54 27.4 3.44 26.21 2.62C25.03 1.79 23.72 1.37 22.27 1.37L10.72 1.37C9.28 1.37 7.96 1.79 6.78 2.62C5.59 3.44 4.75 4.54 4.26 5.9L0.54 16.11C0.18 17.12 -0.01 18.17 0 19.25L0 20.62C0 22.9 0.92 24.72 2.75 26.09L2.75 28.87C2.75 30.01 3.15 30.98 3.95 31.79C4.76 32.59 5.73 33 6.87 33C8.01 33 8.98 32.59 9.79 31.79C10.59 30.98 11 30.01 11 28.87L11 27.5L22 27.5L22 28.87C22 30.01 22.4 30.98 23.2 31.79C24.01 32.59 24.98 33 26.12 33C27.26 33 28.23 32.59 29.04 31.79C29.84 30.98 30.25 30.01 30.25 28.87L30.25 26.12C32.07 24.76 32.99 22.9 33 20.62L33 19.25C33 18.17 32.81 17.12 32.45 16.11L28.73 5.9ZM6.85 6.84C7.51 5.03 8.8 4.13 10.72 4.12L22.27 4.12C24.19 4.12 25.49 5.03 26.15 6.84L29.16 15.12L3.83 15.12L6.85 6.84ZM8.25 28.87C8.25 29.79 7.79 30.25 6.87 30.25C5.95 30.25 5.5 29.79 5.5 28.87L5.5 27.36C5.95 27.45 6.41 27.5 6.87 27.5L8.25 27.5L8.25 28.87ZM27.5 28.87C27.5 29.79 27.04 30.25 26.12 30.25C25.2 30.25 24.75 29.79 24.75 28.87L24.75 27.5L26.12 27.5C26.58 27.5 27.04 27.45 27.5 27.36L27.5 28.87ZM30.25 20.62C30.25 21.76 29.84 22.73 29.04 23.54C28.23 24.34 27.26 24.75 26.12 24.75L6.87 24.75C5.73 24.75 4.76 24.34 3.95 23.54C3.15 22.73 2.75 21.76 2.75 20.62L2.75 19.25C2.75 18.78 2.81 18.32 2.91 17.87L5.5 17.87L5.5 19.25C5.5 20.16 5.95 20.62 6.87 20.62C7.79 20.62 8.25 20.16 8.25 19.25L8.25 17.87L24.75 17.87L24.75 19.25C24.75 20.16 25.2 20.62 26.12 20.62C27.04 20.62 27.5 20.16 27.5 19.25L27.5 17.87L30.08 17.87C30.18 18.32 30.24 18.78 30.25 19.25L30.25 20.62Z" fill="#000000" fill-opacity="1.000000" fill-rule="nonzero">
	</g>
</svg>
