<svg width="40" height="40" viewBox="0 0 40 40" fill="none" xmlns="http://www.w3.org/2000/svg">
<path fill-rule="evenodd" clip-rule="evenodd" d="M40 20C40 8.95432 31.0457 0 20 0C8.95432 0 0 8.95432 0 20C0 31.0457 8.95432 40 20 40C31.0457 40 40 31.0457 40 20ZM20.317 10H13V29.224H20.506C22.018 29.224 23.233 29.071 24.151 28.765C25.087 28.441 25.951 27.883 26.743 27.091C28.543 25.291 29.443 22.69 29.443 19.288C29.443 16.102 28.498 13.663 26.608 11.971C25.762 11.215 24.835 10.702 23.827 10.432C22.819 10.144 21.649 10 20.317 10ZM16.348 26.389V12.862H20.101C22.135 12.862 23.638 13.447 24.61 14.617C25.582 15.769 26.068 17.38 26.068 19.45C26.068 21.628 25.636 23.329 24.772 24.553C23.908 25.777 22.423 26.389 20.317 26.389H16.348Z" fill="white"/>
</svg>
