<svg width="166.000000" height="44.161133" viewBox="0 0 166 44.1611" fill="none" xmlns="http://www.w3.org/2000/svg" xmlns:xlink="http://www.w3.org/1999/xlink">
	<desc>
			Created with Pixso.
	</desc>
	<defs/>
	<rect id="logo_nornikel" width="166.000000" height="44.000000" fill="#FFFFFF" fill-opacity="0"/>
	<path id="path" d="M117.32 24.05L117.32 18.61L114.05 18.61L114.05 29.34L117.08 29.34L120.64 23.95L120.64 29.34L123.91 29.34L123.91 18.61L120.87 18.61L117.32 24.05ZM98.42 22.95C98.42 23.34 98.23 24.09 97.23 24.09L96.06 24.09L96.06 21.25L97.37 21.25C97.72 21.25 98.42 21.54 98.42 22.37L98.42 22.95ZM97.72 18.61L92.6 18.61L92.6 29.34L96.06 29.34L96.06 26.71L97.72 26.71C99.96 26.71 101.79 25.48 101.79 23.29L101.79 22.03C101.79 19.84 99.96 18.61 97.72 18.61ZM146.71 24.29C146.71 25.92 146.28 26.16 145.66 26.44C145.39 26.57 144.66 26.54 144.66 26.54L144.66 29.34L146.02 29.34C148.93 29.34 150.01 27.65 150.05 23.86C150.06 23.01 150.04 22.16 150.05 21.41L151.99 21.41L151.99 29.34L155.45 29.34L155.45 18.61L146.71 18.61L146.71 24.29ZM87.96 25.73C87.96 26.44 87.37 27.02 86.66 27.02L86.37 27.02C85.65 27.02 85.07 26.44 85.07 25.73L85.07 22.25C85.07 21.54 85.65 20.96 86.37 20.96L86.66 20.96C87.37 20.96 87.96 21.54 87.96 22.25L87.96 25.73ZM87.36 18.44L85.67 18.44C83.43 18.44 81.6 20.03 81.6 22.5L81.6 25.49C81.6 27.97 83.43 29.55 85.67 29.55L87.36 29.55C89.6 29.55 91.43 27.96 91.43 25.49L91.43 22.5C91.43 19.9 89.6 18.44 87.36 18.44ZM135.31 18.61L131.56 18.61L129.74 22.67L128.88 22.67L128.88 18.61L125.43 18.61L125.43 29.34L128.88 29.34L128.88 25.53L129.73 25.53L131.6 29.34L135.57 29.34L132.64 23.93L135.31 18.61ZM139.59 25.27L143.49 25.27L143.49 22.72L139.59 22.72L139.59 21.41L143.84 21.41L143.84 18.61L136.13 18.61L136.13 29.34L144.16 29.34L144.16 26.54L139.59 26.54L139.59 25.27ZM161.53 26.7L160.22 26.7L160.22 24.36L161.39 24.36C162.36 24.36 162.59 25.07 162.59 25.54C162.59 26.5 161.79 26.7 161.53 26.7ZM161.88 21.74L160.22 21.74L160.22 18.61L156.77 18.61L156.77 29.34L161.88 29.34C164.12 29.34 165.95 28.11 165.95 25.92L165.95 25.16C165.95 22.97 164.12 21.74 161.88 21.74ZM109.07 22.58L106.12 22.58L106.12 18.61L102.66 18.61L102.66 29.34L106.12 29.34L106.12 25.53L109.07 25.53L109.07 29.34L112.53 29.34L112.53 18.61L109.07 18.61L109.07 22.58ZM76.97 22.58L74.01 22.58L74.01 18.61L70.56 18.61L70.56 29.34L74.01 29.34L74.01 25.53L76.97 25.53L76.97 29.34L80.42 29.34L80.42 18.61L76.97 18.61L76.97 22.58Z" fill="#FFFFFF" fill-opacity="1.000000" fill-rule="nonzero"/>
	<path id="path" d="M41.86 4C37.96 4 34.33 5.12 31.25 7.04C30.64 7.42 30.06 7.83 29.51 8.26C29.93 8.84 30.31 9.43 30.66 10.06C31.21 9.61 31.8 9.2 32.4 8.82C35.15 7.11 38.39 6.12 41.86 6.12C51.73 6.12 59.77 14.14 59.77 24C59.77 33.85 51.73 41.87 41.86 41.87C35.96 41.87 30.72 39.01 27.46 34.61C27.42 34.63 26.81 33.68 26.76 33.6C26.52 33.24 26.3 32.86 26.1 32.49C25.69 31.73 25.33 30.94 25.03 30.13C24.43 28.5 24.08 26.78 23.98 25.05C23.92 24.17 23.94 23.28 24.02 22.39C24.06 21.96 24.11 21.54 24.18 21.11C24.25 20.71 24.34 20.31 24.39 19.9C24.58 18.21 24.31 16.48 23.6 14.93C23.24 14.13 22.77 13.38 22.2 12.7C21.9 12.35 21.58 12.02 21.24 11.72C21.15 11.65 20.18 10.88 20.17 10.9C18.65 9.89 16.84 9.3 14.88 9.3C9.6 9.3 5.31 13.58 5.31 18.85C5.31 24.11 9.6 28.4 14.88 28.4C15.06 28.4 15.25 28.39 15.43 28.38L3.71 42.81L6.48 42.81L18.85 27.54C18.86 27.53 18.88 27.52 18.9 27.51C18.78 26.77 18.7 26.01 18.66 25.24C18.03 25.62 17.33 25.9 16.59 26.08C16.04 26.21 15.47 26.27 14.88 26.27C10.77 26.27 7.44 22.95 7.44 18.85C7.44 14.75 10.77 11.42 14.88 11.42C16.47 11.42 17.93 11.92 19.14 12.76C19.14 12.77 19.52 13.04 19.56 13.08C19.72 13.21 19.88 13.34 20.03 13.49C20.3 13.75 20.56 14.04 20.79 14.34C21.23 14.91 21.58 15.54 21.84 16.22C22.1 16.91 22.26 17.64 22.31 18.38C22.33 18.81 22.32 19.24 22.28 19.66C22.23 20.05 22.13 20.43 22.07 20.82C21.53 24.2 21.87 27.71 23.06 30.92C23.39 31.81 23.78 32.66 24.23 33.49C24.45 33.91 24.69 34.32 24.95 34.72C25.07 34.91 25.2 35.1 25.33 35.29C25.39 35.38 25.46 35.48 25.53 35.57C25.56 35.63 25.73 35.79 25.73 35.85C29.38 40.79 35.25 43.99 41.86 43.99C52.91 43.99 61.9 35.02 61.9 24C61.9 12.97 52.91 4 41.86 4Z" fill="#FFFFFF" fill-opacity="1.000000" fill-rule="nonzero"/>
	<path id="path" d="M41.86 9.31C38.88 9.31 36.1 10.2 33.78 11.72C33.15 12.13 32.56 12.59 32.01 13.09C32.27 13.85 32.48 14.64 32.63 15.44C33.18 14.85 33.79 14.31 34.45 13.83C36.53 12.32 39.09 11.43 41.86 11.43C48.81 11.43 54.45 17.06 54.45 24C54.45 30.94 48.81 36.56 41.86 36.56C37.38 36.56 33.44 34.23 31.21 30.71C31.22 30.69 30.69 29.82 30.64 29.72C30.45 29.34 30.27 28.95 30.11 28.55C29.79 27.71 29.56 26.85 29.42 25.96C29.28 25.07 29.23 24.17 29.28 23.27C29.33 22.46 29.52 21.68 29.63 20.87C30.11 17.38 29.31 13.77 27.39 10.81C26.34 9.19 24.98 7.78 23.39 6.67C20.98 4.99 18.04 4 14.88 4C6.67 4 0 10.66 0 18.85C0 25.04 3.82 30.37 9.23 32.59L10.64 30.86C5.68 29.11 2.12 24.39 2.12 18.85C2.12 11.83 7.85 6.12 14.88 6.12C17.51 6.12 19.96 6.92 22 8.29C24.62 10.05 26.53 12.77 27.28 15.84C27.67 17.44 27.74 19.11 27.5 20.73C27.27 22.24 27.06 23.67 27.19 25.2C27.34 27.04 27.84 28.85 28.66 30.51C28.99 31.17 29.38 31.82 29.81 32.42C32.47 36.21 36.88 38.69 41.86 38.69C49.97 38.69 56.58 32.1 56.58 24C56.58 15.9 49.97 9.31 41.86 9.31Z" fill="#C8C8C8" fill-opacity="1.000000" fill-rule="nonzero"/>
	<path id="path" d="M19.83 31.37L10.63 42.81L13.4 42.81L20.74 33.64L19.83 31.37Z" fill="#C8C8C8" fill-opacity="1.000000" fill-rule="nonzero"/>
</svg>
