<svg width="32.000000" height="32.000000" viewBox="0 0 32 32" fill="none" xmlns="http://www.w3.org/2000/svg" xmlns:xlink="http://www.w3.org/1999/xlink">
	<desc>
			Created with Pixso.
	</desc>
	<defs>
		<clipPath id="clip21_996">
			<rect id="research-arrows-circle" width="32.000000" height="32.000000" fill="white" fill-opacity="0"/>
		</clipPath>
	</defs>
	<g clip-path="url(#clip21_996)">
		<path id="path" d="M14.57 24.61L18.32 17.33L12.82 17.33C12.14 17.33 11.49 17 11.09 16.46C10.68 15.91 10.56 15.2 10.76 14.55L15.16 6.04L17.53 7.28L13.68 14.66L19.19 14.66C19.98 14.66 20.7 15.1 21.07 15.79C21.43 16.46 21.41 17.26 21.02 17.91L16.94 25.83L14.57 24.61ZM4 10.66L10.66 10.66L10.66 8L5.34 8C7.84 4.68 11.79 2.66 16 2.66C23.35 2.66 29.33 8.64 29.33 16L32 16C32 7.17 24.82 0 16 0C11.36 0 7 2.05 4 5.47L4 1.33L1.33 1.33L1.33 8C1.33 9.47 2.52 10.66 4 10.66ZM28 21.33L21.33 21.33L21.33 24L26.65 24C24.15 27.31 20.2 29.33 16 29.33C8.64 29.33 2.66 23.35 2.66 16L0 16C0 24.82 7.17 32 16 32C20.63 32 24.99 29.94 28 26.52L28 30.66L30.66 30.66L30.66 24C30.66 22.52 29.47 21.33 28 21.33Z" fill="#000000" fill-opacity="1.000000" fill-rule="nonzero"/>
	</g>
</svg>
