<svg width="32.000000" height="32.000000" viewBox="0 0 32 32" fill="none" xmlns="http://www.w3.org/2000/svg" xmlns:xlink="http://www.w3.org/1999/xlink">
	<desc>
			Created with Pixso.
	</desc>
	<defs/>
	<path id="arrow" d="M16 30.79C7.82 30.79 1.2 24.17 1.2 16C1.2 7.82 7.82 1.2 16 1.2C24.17 1.2 30.8 7.82 30.8 16C30.8 24.17 24.17 30.79 16 30.79ZM16 32C7.16 32 0 24.83 0 16C0 7.16 7.16 0 16 0C24.83 0 32 7.16 32 16C32 24.83 24.83 32 16 32ZM15.84 21.49L20.47 16.85C20.7 16.61 20.7 16.38 20.47 16.15C20.24 15.92 20 15.92 19.77 16.14L16 19.91L16 11.87C16 11.54 15.83 11.37 15.5 11.37C15.16 11.37 15 11.54 15 11.87L15 19.91L11.23 16.14C10.99 15.91 10.76 15.91 10.52 16.14C10.28 16.38 10.28 16.61 10.52 16.85L15.14 21.47C15.24 21.57 15.36 21.62 15.49 21.62L15.84 21.49L15.49 21.62C15.62 21.62 15.74 21.58 15.84 21.49Z" fill="#FFFFFF" fill-opacity="1.000000" fill-rule="evenodd"/>
</svg>
